<?xml version="1.0" encoding="UTF-8" standalone="no"?>
<svg
   id="svg9"
   viewBox="0 0 673.03 844.95"
   version="1.1"
   xmlns="http://www.w3.org/2000/svg"
   xmlns:svg="http://www.w3.org/2000/svg"
   xmlns:rdf="http://www.w3.org/1999/02/22-rdf-syntax-ns#"
   xmlns:cc="http://creativecommons.org/ns#"
   xmlns:dc="http://purl.org/dc/elements/1.1/">
  <defs
     id="defs11" />
  <title
     id="title2">logo-s-outline</title>
  <path
     d="M 0,0"
     id="path111" />
  <g
     id="g15"
     transform="translate(0.96786939,5.8072166)">
    <path
       id="path107"
       d="m 168,842.09 a 16.29,16.29 0 0 1 -2,-7.25 c 0,-2.2 -0.74,-10.07 -1.64,-17.5 -2.87,-23.69 -3.3,-22.86 13.45,-26 23.67,-4.41 49.34,-11.83 62.73,-18.12 a 78.18,78.18 0 0 0 12,-7.47 c 14.11,-11 23.28,-12.16 33.65,-4.37 6.21,4.66 8.19,4.91 9.64,1.19 3.47,-8.89 7,-39.58 5.59,-48.87 -0.62,-4.15 -1,-4.65 -5.79,-7.05 -17.65,-8.88 -67.53,-45.76 -93.6,-69.19 a 320.41,320.41 0 0 0 -42.19,-32.71 c -16.19,-10.57 -20,-14 -26.66,-24.43 -10,-15.48 -19.17,-25.83 -58.88,-66.21 -16.66,-16.94 -32.48,-34 -35.28,-37.95 -7.63,-10.86 -8.54,-14.84 -8.43,-36.84 0.09,-19 1.71,-34.18 6.7,-62.72 2.65,-15.16 2.74,-15.11 -6.35,-3.7 a 98.48,98.48 0 0 0 -15.49,29.42 c -3.57,11 -5,13.19 -8.35,12.81 l -2.6,-0.31 -0.3,-13.9 c -0.31,-15.22 0.69,-22.12 5.94,-41 5.68,-20.42 10.51,-31 21.68,-47.72 A 196.73,196.73 0 0 1 45,294.84 c 3.42,-3.85 6.93,-8.07 7.8,-9.37 1.51,-2.28 1.44,-2.51 -1.58,-5.2 A 21,21 0 0 0 44,276.35 c -5.91,-1.6 -19.26,-3 -28.67,-3 -9.41,0 -11.33,-0.52 -11.33,-3.06 0,-3.58 9.79,-9.34 22,-12.93 4.13,-1.21 8.65,-3.29 10.08,-4.63 3.49,-3.3 10.86,-4.37 30,-4.38 h 15.51 l 5.22,-15.75 c 8.84,-26.6 17.59,-42.6 32.76,-59.7 9.57,-10.81 29.26,-28 39,-34.15 20.09,-12.58 60.65,-26.61 94.84,-32.81 7.28,-1.32 15.05,-3.33 17.26,-4.46 7.27,-3.69 17.33,-17.16 28.81,-38.48 5.14,-9.54 6.4,-11.21 8.69,-11.48 3.6,-0.41 5,1.89 8.74,14.81 1.68,5.78 3.8,12.18 4.7,14.22 1.46,3.32 1.86,3.59 3.72,2.59 3.51,-1.87 12.55,-10.83 20.3,-20.09 a 180.44,180.44 0 0 0 25,-38.47 c 5.08,-10.78 7.65,-13.94 9.24,-11.38 0.39,0.64 1.47,8 2.4,16.4 1.75,15.79 3.82,27.2 5.81,32.05 l 1.16,2.81 4.43,-4.31 c 9.86,-9.6 28.58,-35.32 36.77,-50.53 6.17,-11.45 8.3,-10.76 10.91,3.53 0.87,4.78 2.73,17.91 4.14,29.18 1.41,11.27 2.65,20.89 2.79,21.36 0.56,2 26.59,-27.19 33.13,-37.17 7.11,-10.87 8.4,-4.55 3.54,17.31 -3.15,14.13 -3.69,19.5 -2,19.5 5.36,0 64.39,-34.88 73.7,-43.55 5.21,-4.86 6.35,-5.23 8.7,-2.87 2,2 2.09,0.93 -1.39,12.27 -1.64,5.31 -4.78,18.2 -7,28.65 -2.22,10.45 -5,22.15 -6.13,26 -3.39,11.29 -3.44,11.64 -1.28,10.85 2.85,-1 12.68,-7.83 24.72,-17 6,-4.57 11.54,-8.31 12.39,-8.31 1.32,0 1.46,1.5 1,10.75 a 137.73,137.73 0 0 1 -2.33,18.75 78.56,78.56 0 0 0 -1.85,12 c 0,4 0,4 3.45,3.68 5.26,-0.48 25.39,-7.4 37,-12.74 5.67,-2.59 12.25,-4.94 14.64,-5.21 4,-0.44 4.34,-0.29 4.34,1.73 0,3 -5.28,16 -10.05,24.72 -6.7,12.25 -11,22.69 -9.63,23.59 1.51,1 13.6,-0.1 20.55,-1.91 a 31.48,31.48 0 0 0 8.46,-3.59 c 4.24,-3 15.31,-3.86 16.32,-1.23 1.51,3.94 -5.07,20.2 -9.3,23 -1.53,1 -2.56,2.91 -3,5.53 -0.47,2.93 -1.94,5.37 -5.56,9.16 a 130.74,130.74 0 0 0 -11,14.18 c -5.32,8 -5.81,9.09 -4.19,9.67 1,0.37 7.35,0.93 14.1,1.26 18.51,0.9 21.46,3.24 14.15,11.17 -5.15,5.59 -14.63,12 -25.91,17.48 -13.11,6.38 -12.67,5.78 -9.17,12.7 1.63,3.21 6.59,12.09 11,19.72 15.32,26.44 25.7,53.19 30.58,78.78 1.43,7.51 3.27,15.56 4.09,17.88 3.41,9.66 1.72,18.24 -11.48,58.46 -10.94,33.35 -11.34,34.91 -10.54,41.46 0.37,3.05 2.44,16.28 4.6,29.4 5.19,31.51 6.39,45.81 4.95,59.18 -3.54,32.9 -16.47,56.61 -63.42,116.36 -15.47,19.69 -22.31,31.24 -27,45.65 -3.65,11.16 -8.94,19.63 -16.79,26.91 -8,7.43 -16.11,11.93 -25.42,14.14 -5.88,1.39 -11.18,1.55 -35.89,1.07 -31.68,-0.61 -48.89,-1.77 -75.25,-5.06 L 401,745.81 V 755 c 0,11.94 0.25,12.14 11.09,8.78 11.94,-3.69 22.6,-3.81 29.41,-0.33 19.2,9.83 24.26,12.22 34.5,16.24 6.32,2.49 21.17,7.78 33,11.76 11.83,3.98 22,7.73 22.59,8.34 0.59,0.61 1.83,7.18 2.72,14.6 a 156.24,156.24 0 0 0 3.81,20.79 c 1.73,5.71 1.94,7.55 1,8.5 -0.94,0.95 -6.8,1.32 -19.16,1.55 -16.86,0.31 -17.95,0.21 -17.95,-1.5 0,-1 1.12,-9.49 2.49,-18.84 1.37,-9.35 2.5,-17.14 2.5,-17.26 0.05,-0.86 -5,-4.55 -8.48,-6.18 -5.59,-2.63 -39.64,-15.11 -41.22,-15.11 -2.25,0 -4.06,4.32 -8.8,20.94 -2.57,9.05 -6.24,20.81 -8.16,26.14 l -3.48,9.7 -7.17,0.6 c -3.95,0.32 -26.12,0.88 -49.27,1.24 l -42.09,0.66 -38.39,-28.82 c -21.1,-15.85 -40.37,-29.94 -42.83,-31.32 -5,-2.79 -4.07,-2.94 -18.63,3.19 a 66.49,66.49 0 0 1 -14,3.59 45.77,45.77 0 0 0 -16.25,5.2 c -4.54,2.27 -8.25,4.45 -8.25,4.82 0,0.37 2.77,4.71 6.15,9.63 18.25,26.49 19,27.64 18.65,30.29 l -0.3,2.64 h -9.5 c -11.35,0 -18.12,-2 -24.23,-7.14 l -4.22,-3.53 -2,2.69 c -5.17,6.86 -7.32,8.52 -11,8.52 -3,0 -3.93,-0.55 -5.58,-3.25 z m 13,-5.66 c 3.15,-5.17 6,-5.34 12.1,-0.72 5.25,4 11.91,6.37 20.42,7.25 10.7,1.09 10.74,0.54 0.93,-13.66 -14.59,-21.15 -17.58,-25.95 -17.25,-27.74 0.17,-0.94 3.45,-3.37 7.32,-5.41 6.86,-3.62 13.12,-5.56 24.91,-7.7 a 60.78,60.78 0 0 0 12.36,-4.09 c 7.55,-3.53 13.3,-3.88 17.89,-1.08 1.73,1.06 20.63,15.06 42,31.1 L 340.52,843.56 356,843 c 8.52,-0.33 29.73,-0.89 47.13,-1.24 l 31.64,-0.64 5,-15.12 c 2.78,-8.32 6.28,-19.79 7.79,-25.48 2.85,-10.79 5.73,-16.39 8.72,-17 2.12,-0.41 39.21,13 46,16.65 7.58,4.05 7.8,5.07 5.09,23.17 -1.28,8.53 -2.35,16.58 -2.37,17.89 v 2.39 l 15,-0.49 c 8.28,-0.26 15.45,-0.89 15.94,-1.38 0.49,-0.49 0.14,-3.63 -0.94,-7.51 a 183.69,183.69 0 0 1 -3.5,-19.47 c -0.91,-7.08 -1.77,-13 -1.91,-13.12 -0.14,-0.12 -9.67,-3.45 -21.19,-7.36 -28.48,-9.65 -43.93,-15.83 -60.1,-24 -15.94,-8.09 -18.44,-8.42 -32.85,-4.44 -10.81,3 -15,3.19 -16,0.76 -0.4,-1 -1,-6.35 -1.24,-12 -0.44,-8.92 -0.29,-10.31 1.16,-10.87 0.92,-0.35 9.42,0.31 18.88,1.46 24.15,2.95 36.61,3.94 64.72,5.15 39.34,1.7 50.12,0.08 63.62,-9.55 11.77,-8.41 17.47,-16.58 23.37,-33.57 4.77,-13.73 10,-22.84 21.19,-37.12 48.17,-61.32 62.22,-85.2 67.32,-114.48 2.62,-15 1.58,-33.75 -3.44,-61.79 -1.09,-6 -2.89,-17.32 -4,-25 l -2,-14.05 2,-7.45 c 1.13,-4.1 6.06,-19.7 11,-34.68 4.94,-14.98 9.68,-31 10.6,-35.72 1.62,-8.25 1.61,-8.68 -0.39,-14.78 -1.13,-3.45 -3.24,-12.29 -4.69,-19.65 C 662,314.4 653.35,293 633.91,259.29 c -10,-17.29 -11.31,-20.38 -10,-22.87 0.56,-1 6.07,-4.43 12.24,-7.54 12.49,-6.3 22.19,-12.82 26.27,-17.67 2.49,-3 2.56,-3.27 0.91,-4.2 -1,-0.54 -7.74,-1.33 -15,-1.74 -15.09,-0.86 -17.34,-1.36 -17.34,-3.82 0,-2.46 10.58,-18.08 17.46,-25.92 4,-4.51 5.54,-7.13 5.54,-9.18 0,-2.75 2.18,-6 4,-6 1.37,0 8,-14.36 8,-17.35 0,-2.22 -0.45,-2.65 -2.75,-2.64 -1.52,0 -5.8,1.53 -9.52,3.41 a 55.12,55.12 0 0 1 -26.77,5.39 c -6.26,-0.3 -6.47,-0.39 -6.79,-3.13 -0.22,-2 2.71,-9.05 9.84,-23.7 5.58,-11.48 10,-21.56 9.82,-22.4 -0.27,-1.24 -1.88,-0.87 -8.83,2 -20.77,8.72 -25.65,10.58 -34,13 -4.86,1.4 -10.57,2.39 -12.69,2.22 -3.46,-0.28 -3.87,-0.62 -4.14,-3.33 -0.16,-1.66 0.66,-7.06 1.83,-12 A 133.06,133.06 0 0 0 584.71,83 l 0.57,-9.9 -12.08,9.07 c -6.64,5 -14.22,10.49 -16.85,12.15 -5,3.18 -10.08,4 -11,1.67 -0.28,-0.75 0.8,-5.81 2.42,-11.25 1.62,-5.44 4.83,-18.9 7.13,-29.9 2.3,-11 5.35,-23.49 6.76,-27.77 1.41,-4.28 2.28,-8.06 1.94,-8.4 -0.34,-0.34 -2.66,1.26 -5.15,3.55 -11.61,10.71 -70.66,44.6 -76.5,43.92 -2.39,-0.28 -2.51,-0.58 -2.35,-6.3 a 116.69,116.69 0 0 1 2.64,-17 c 4.35,-19.33 4.41,-18.82 -1.18,-10.92 -8.44,12 -31,36.42 -33.51,36.42 -1.63,0 -1.45,1 -4.62,-25 -2.34,-19.18 -4.88,-34.91 -6,-36.86 -0.51,-0.93 -2,0.81 -4.58,5.5 C 426.3,23 422.29,29 411.94,42.84 c -13.18,17.61 -19.15,23.73 -22.72,23.32 -2.5,-0.29 -2.94,-1 -5,-8.13 a 174.69,174.69 0 0 1 -3.84,-22 c -2.5,-22 -2.21,-21.55 -6.91,-10.69 -6.94,16.06 -22.78,38.2 -37.38,52.25 -7.42,7.15 -9.65,8.75 -12.17,8.75 -3.64,0 -4.64,-1.89 -9,-17.16 -3,-10.47 -4.93,-15.05 -6.4,-15.22 -0.52,-0.07 -3.76,5.18 -7.21,11.66 -11.59,21.74 -22.68,35.87 -30.82,39.28 -1.84,0.77 -8.68,2.34 -15.19,3.49 -41.85,7.41 -84.89,23.77 -104.84,39.84 -25.41,20.47 -40,37.49 -50.67,59 -2.35,4.74 -7,16.5 -10.3,26.14 l -6,17.52 -21.19,0.5 -21.18,0.5 -2.88,2.76 c -1.83,1.76 -6.17,3.78 -12,5.62 -8.51,2.67 -20,8.71 -18.78,9.9 0.29,0.29 7.39,0.84 15.79,1.23 17.61,0.82 26.3,2.83 30.92,7.14 3.93,3.66 3.35,6.47 -2.75,13.35 C 30.23,315.68 19,336.53 11.52,365.59 6,387.36 3.81,405.15 6.05,411 c 1,2.69 1.14,2.73 2.47,0.92 0.76,-1 2.59,-5.54 4.06,-10 3.39,-10.25 9.06,-21.64 14,-28.19 C 36,361.44 43,354.83 43,358.32 c 0,0.53 -1.35,8.84 -3,18.46 -6.53,38.18 -8.85,69.58 -6.06,81.89 2.79,12.31 6.87,17.33 46.06,57.17 37.16,37.75 48.12,50.19 55.46,63 4.13,7.22 12.94,15.41 23.67,22 12.87,7.93 29.16,20.32 42.89,32.63 26.75,24 65.45,53.12 89.73,67.53 13.61,8.08 12.59,6 11.93,24.71 -0.62,17.62 -2.83,33.15 -5.5,38.61 -2.38,4.9 -6.4,5.22 -11.76,1 -5.75,-4.59 -8.84,-6 -13.43,-6 -5.57,0 -10.07,2.07 -18.43,8.47 -7.85,6 -15.33,9.67 -29.58,14.46 A 411.55,411.55 0 0 1 178.58,794 c -5.45,1 -10.81,2.54 -11.92,3.44 -2,1.61 -2,1.78 -0.34,13.54 0.93,6.55 1.69,14.15 1.69,16.9 0,6.76 1.5,12.69 3.54,14.18 2.44,1.79 6.32,-0.52 9.41,-5.59 z m 202,3.25 c -6.6,-2.31 -11,-5.66 -26.5,-20.32 -7.7,-7.26 -21.69,-19.42 -31.07,-27 -9.38,-7.58 -17.94,-15.09 -19,-16.66 -1.43,-2.1 -1.9,-4.41 -1.81,-8.85 0.2,-9.27 5.93,-42.69 8.2,-47.83 2.91,-6.59 5.17,-6.86 15.42,-1.83 4.54,2.22 17.11,7 27.93,10.58 29.22,9.71 34.83,12.76 34.82,18.87 0,1.77 -0.68,8.84 -1.49,15.71 -2,16.4 -1.9,17.43 0.56,12.75 1.09,-2.06 2.56,-3.75 3.26,-3.75 0.7,0 4.18,2 7.73,4.53 14.66,10.3 15.82,12.82 13.41,29 -2.06,13.9 -5.76,28 -8.21,31.31 a 15.46,15.46 0 0 1 -4.35,3.86 c -3.32,1.71 -13.49,1.49 -18.9,-0.4 z m 18.6,-2.83 a 13.15,13.15 0 0 0 3.66,-4.68 c 2.18,-4.67 6.62,-25.16 7.35,-34 0.55,-6.66 0.39,-7.64 -1.66,-10.23 -2.27,-2.85 -16.83,-14.13 -17.41,-13.48 -0.17,0.19 -1.49,2.71 -2.94,5.59 -1.45,2.88 -3.31,5.25 -4.12,5.25 -1.94,0 -1.88,-4.19 0.39,-24 1.62,-14.12 1.64,-15.66 0.2,-17.35 -2.65,-3.13 -10.39,-6.48 -31.42,-13.59 -25.81,-8.72 -31.2,-10.8 -32.69,-12.59 -3,-3.66 -7.65,-0.37 -9.31,6.63 -1.07,4.5 -6.65,41.18 -6.65,43.7 0,4.58 3.58,8.47 20,21.67 9.07,7.31 22.31,18.77 29.41,25.48 20.33,19.19 23.94,21.71 33.05,23.08 5.72,0.87 9.1,0.44 12.14,-1.52 z M 471,744.71 c -2.48,-0.22 -11.25,-1.33 -19.5,-2.45 C 330.7,725.83 231.15,673.82 192.25,606.84 a 175.93,175.93 0 0 1 -8.23,-17 c -5.46,-13.13 -9.86,-20.88 -16.91,-29.74 -6.56,-8.26 -11.11,-12.38 -15.86,-14.38 l -6.7,-2.82 c -1.88,-0.8 -6.5,-4 -10.25,-7.21 -3.75,-3.21 -6.21,-5 -5.46,-4.06 3.36,4.17 18.25,15.83 22.59,17.7 5.56,2.38 14.5,11.21 20.62,20.36 3.7,5.52 4.08,6.64 3.67,10.87 -0.76,8 -6.62,14.56 -13.92,15.53 -3.88,0.52 -4.22,0.33 -10.17,-5.92 -3.38,-3.56 -10.29,-12.51 -15.35,-19.89 C 131.22,562.9 123.12,552 118.28,546 99.35,522.66 95.71,517 89.56,501.46 84.35,488.29 82.49,478.67 82.5,464.85 c 0,-13.49 1.51,-20 6.36,-27.66 6.45,-10.19 19.14,-13.19 31.4,-7.58 14.09,6.47 33.28,21.51 35.67,28 2.76,7.45 4.62,10.81 12,21.75 4.27,6.33 9.42,14.8 11.44,18.82 2.69,5.34 4.15,7.23 5.39,7 2.16,-0.42 4.08,-5.93 4.15,-11.95 0.16,-13.44 10.44,-51.09 23.3,-85.36 3.3,-8.8 7.28,-21.17 8.84,-27.5 1.56,-6.33 3.75,-14.15 4.87,-17.4 a 37.53,37.53 0 0 0 2,-8.19 c 0,-2.74 -1.74,-4.07 -3.29,-2.52 a 4.71,4.71 0 0 1 -2.91,1.11 c -2.69,0 -2.33,-5.51 1.2,-18.5 1.64,-6 3,-11.52 3,-12.16 0,-0.64 -1.71,-1.1 -4.74,-1 l -4.75,0.16 0.07,-5 c 0.06,-3.63 1.24,-7.53 4.32,-14.27 2.54,-5.56 4.11,-10.37 3.92,-12 -0.3,-2.59 -0.55,-2.71 -5.2,-2.47 -6.45,0.34 -7.61,-0.79 -7.61,-7.41 0,-19 28.65,-69.05 54.82,-95.68 19.25,-19.61 51.19,-40.66 69.25,-45.64 17.66,-4.89 47,-6.46 66.5,-3.55 23.29,3.49 78.88,26 111.1,45.05 18.06,10.66 23.4,13.38 23.4,11.93 0,-0.75 -1.36,-4.87 -3,-9.17 a 79.62,79.62 0 0 1 -3.63,-11.57 c -0.56,-3.41 -0.41,-3.75 1.68,-3.75 6.7,0 35.39,22.21 57.47,44.47 33.45,33.73 55.23,73.37 67,122 5,20.55 6.45,30.39 6.42,43.39 0,14.73 -1.64,22.06 -11.48,52.11 -9.41,28.75 -9.71,31.43 -6.5,59 1.93,16.54 2.18,22.51 1.71,40.94 -1,40.41 -6.45,61.57 -21.51,84.05 -10.4,15.53 -32.11,44.56 -41.32,55.27 -6.22,7.23 -9.16,12 -17,27.47 -11,22 -15.61,28.55 -23.23,33.61 -15.09,10 -28.69,13.74 -51.69,14.15 -9.08,0.16 -18.53,0.11 -21,-0.11 z m 45.5,-4.84 c 7.72,-2.18 21.22,-8.49 26.93,-12.59 6.13,-4.4 10.73,-11.38 21.53,-32.7 7.53,-14.86 10.66,-19.91 16.75,-27 16.44,-19.16 45.11,-59.33 50.25,-70.39 4.31,-9.3 7.73,-22.11 10.16,-38.16 2.78,-18.27 3.06,-49.28 0.61,-67.19 -4.07,-29.66 -3.79,-32.23 7.2,-65.88 12.14,-37.17 13.1,-46.75 7.51,-74.61 -9.4,-46.83 -26.54,-84.85 -53,-117.54 -9.65,-11.93 -35.35,-36.88 -48.67,-47.24 -11.76,-9.15 -22.12,-15.76 -22.57,-14.41 -0.16,0.49 1.09,4.44 2.77,8.78 a 73.53,73.53 0 0 1 3.67,12.15 c 0.54,3.75 0.38,4.25 -1.33,4.25 -1.07,0 -10.7,-5 -21.39,-11.15 A 518.46,518.46 0 0 0 427,145 c -18.32,-6.24 -27.89,-7.81 -48,-7.83 -18.25,0 -32.55,1.81 -45.13,5.77 -8.15,2.57 -27.58,13.68 -41.88,23.94 -10.91,7.84 -26.25,22.48 -34.84,33.28 -21.46,26.94 -41.89,65.25 -42.45,79.62 l -0.2,5 5.18,-0.31 c 4.63,-0.28 5.36,0 6.86,2.24 2.21,3.38 1.42,7.44 -3.69,18.77 -3.94,8.76 -5.29,14.46 -3.35,14.14 0.55,-0.09 2.68,-0.47 4.73,-0.86 3.07,-0.57 3.87,-0.37 4.43,1.09 0.56,1.46 -4.18,22.74 -6.45,29.2 -0.34,1 0.17,1 2.16,0.28 6.19,-2.35 7.9,2.11 4.76,12.37 -1.2,3.9 -3.69,12.93 -5.55,20.08 -1.86,7.15 -5.85,19.53 -8.87,27.5 -11.71,30.93 -20.71,63.23 -22.78,81.31 -0.63,5.64 -1.78,11.73 -2.55,13.54 -2.94,6.87 -7.54,5.25 -12.37,-4.37 -1.89,-3.76 -7.11,-12.3 -11.6,-19 -4.49,-6.7 -9,-14.35 -10,-17 a 40.43,40.43 0 0 0 -4.26,-8.24 c -6.77,-9.21 -34,-26.16 -42,-26.15 -6.26,0 -10.83,1.86 -15.06,6.09 -5.84,5.83 -8.31,13 -8.89,25.9 -1.09,23.86 7.71,48.43 25,69.83 15.53,19.23 20.6,25.89 29.35,38.6 11.05,16 18,23.57 21.62,23.57 5.16,0 11.79,-7.78 11.79,-13.84 0,-6.31 -14.57,-23.52 -23.5,-27.77 -9.41,-4.48 -30.34,-24.38 -29.21,-27.77 0.85,-2.57 4,-1.46 8.94,3.16 10.16,9.48 16.36,13.89 21.28,15.12 8.95,2.26 23.32,19 31.55,36.65 l 7.98,17.03 c 26.45,56.85 102.66,106.93 200.5,131.75 a 611.07,611.07 0 0 0 65.5,12.62 c 18.49,2.5 50.9,2.26 60.5,-0.44 z m -63,-97.63 c -10,-1 -13.56,-2 -14.93,-4.23 -2.12,-3.4 0.94,-3.76 25.62,-3.07 l 23.69,0.67 5.15,-2.69 c 6.9,-3.61 9.37,-3.2 9.77,1.61 0.25,3 -0.15,4 -2.08,5.26 -4.87,3.19 -28.36,4.41 -47.22,2.45 z m 39.61,-2.91 c 4.83,-0.9 7.89,-2.91 7.89,-5.18 0,-1.46 -3.21,-0.84 -6.66,1.29 -4.64,2.87 -15.18,3.46 -34.26,1.94 -10.31,-0.82 -15.64,-0.88 -16.32,-0.2 -0.68,0.68 0.42,1.19 3.36,1.57 2.41,0.31 5.5,0.74 6.88,0.94 5.59,0.85 34.09,0.59 39.11,-0.36 z m 31,-20.11 a 118,118 0 0 1 -14,-3.78 c -4.74,-1.58 -10.41,-3.45 -12.61,-4.15 -2.9,-0.93 -17.38,-1.44 -52.55,-1.86 -44.2,-0.53 -48.79,-0.74 -51.25,-2.36 -3.11,-2 -3.48,-4.72 -0.95,-7 3.2,-2.9 12.69,-6.71 16.72,-6.72 3.4,0 4.54,0.6 7.77,4.14 l 3.79,4.14 7.23,-0.55 c 4.46,-0.33 12.07,-2.12 19.82,-4.64 6.93,-2.25 13.68,-4.1 15,-4.1 1.32,0 4.52,1.12 7.09,2.49 4.28,2.28 5.6,2.46 16,2.25 l 11.33,-0.24 6.32,4.5 6.33,4.5 9.66,-0.27 c 5.72,-0.16 10.8,0.2 12.47,0.89 3.26,1.35 5.72,5.52 5.72,9.72 0,4.2 -2.92,4.82 -13.91,3.04 z M 535,615.28 c 0,-6 -4.31,-7.94 -16.16,-7.21 -9.06,0.57 -12.15,-0.34 -18.13,-5.33 -4,-3.37 -8.55,-4.34 -14.84,-3.19 -6.7,1.23 -12.74,0.46 -17.05,-2.17 -4.51,-2.75 -6.8,-2.58 -18.48,1.35 -12,4 -23.1,6.07 -28.05,5.14 -2.28,-0.43 -5,-2.12 -7.49,-4.61 -3.2,-3.22 -4.38,-3.83 -6.6,-3.34 -4,0.86 -13.48,5.74 -14,7.17 -1.1,3.33 4.53,3.76 46.26,3.51 45.24,-0.27 52.88,0.29 66.08,4.82 10.53,3.62 19.47,5.73 24.67,5.84 3.14,0.07 3.75,-0.25 3.75,-2 z m -9,-23 c -4.18,-2.42 -8.45,-8.24 -7.62,-10.39 1,-2.67 5.43,-1.71 9.66,2.11 4.43,4 6.09,8.06 3.87,9.47 -1.85,1.17 -1.86,1.16 -5.91,-1.19 z m 3.07,-2.83 c -1.24,-2.31 -5.87,-6.09 -7.43,-6 -1.1,0 6.76,8 7.88,8 0.27,-0.11 0.06,-0.97 -0.52,-2.03 z m -18.67,-0.33 c -6.1,-6.41 -8.37,-9.77 -8.37,-12.38 0,-3.48 3.55,-3.06 7.2,0.85 3.32,3.55 8.77,12.57 8.79,14.53 -0.02,2.55 -3.76,1.08 -7.67,-3.03 z m -0.35,-5.72 a 18.84,18.84 0 0 0 -3.25,-3.67 c -0.63,-0.38 0.12,0.95 1.66,3 3.3,4.33 4.54,4.88 1.54,0.64 z m -85.65,5.5 c -1.32,-3.44 8,-13.53 12.56,-13.53 3.75,0 2.4,4 -3.28,9.66 -5.4,5.39 -8.24,6.58 -9.28,3.87 z m 7.13,-5.53 c 2.14,-2.2 3.68,-4 3.4,-4 a 27.79,27.79 0 0 0 -4.4,4 c -2.15,2.2 -3.69,4 -3.41,4 a 28.11,28.11 0 0 0 4.36,-4.03 z M 407,587.59 c 0,-1 2.71,-4.59 6,-8.07 4.46,-4.72 6.54,-6.24 8.23,-6 3.45,0.49 3.51,4.43 0.12,8 -3.39,3.57 -10.51,7.85 -12.79,7.85 a 1.64,1.64 0 0 1 -1.55,-1.75 z m 13,-8.72 c 0.71,-0.87 1.09,-1.78 0.84,-2 -0.25,-0.22 -2.23,1.41 -4.39,3.69 -3.56,3.75 -3.64,3.94 -0.85,2 a 27.17,27.17 0 0 0 4.4,-3.69 z m -258.45,-33.5 c -1.64,-1.07 -6.95,-5.91 -11.8,-10.74 -15.15,-15.07 -17,-22.59 -8.89,-36 2.29,-3.78 4.16,-8 4.16,-9.37 0,-3.8 -13.48,-24.89 -15.9,-24.89 -2.14,0 -6,4.42 -8.07,9.15 -1.62,3.75 -2.4,8 -2.8,15.26 -0.34,6.28 -0.84,9.31 -1.32,8.07 -0.74,-1.9 -0.78,-1.9 -0.84,-0.06 -0.15,3.88 -1.1,0.7 -2.16,-7.17 -1.48,-11 -0.09,-17.58 5.16,-24.22 2.16,-2.73 3.93,-5.64 3.93,-6.47 0,-0.83 -2.71,-4.27 -6,-7.65 -6.94,-7.08 -7.32,-7 -11.32,1.88 a 76,76 0 0 0 -6.33,26 c -0.78,10.08 -2.28,10.69 -4.94,2 C 91.59,472 92,464.5 96,454.84 c 2.18,-5.35 3.3,-9.82 3.38,-13.5 0.12,-5.26 0.25,-5.51 3,-5.82 7.72,-0.88 23,11.74 37.29,30.82 9.77,13.06 13.48,19.36 14.1,24 0.44,3.32 0.05,4.54 -2.57,7.84 -8.46,10.68 -6.68,19.72 6.81,34.51 7.67,8.42 9.45,11.15 8.64,13.26 -0.72,1.88 -1.53,1.79 -5.07,-0.55 z m -6.4,-11.54 c -13.22,-14.14 -15.19,-25 -6.69,-36.86 3.42,-4.79 3.45,-4.93 2,-8.5 -1.45,-3.57 -10.06,-17.13 -10.86,-17.13 -0.22,0 1.47,3.25 3.76,7.21 5.48,9.46 5.52,13.1 0.22,21.26 -4.75,7.3 -5.68,13.34 -2.94,19.14 1.83,3.9 19.28,22.84 20.19,21.93 0.27,-0.26 -2.28,-3.44 -5.66,-7 z m -54.68,-75.05 c 4.89,-15.8 9.12,-18.63 17,-11.38 5.61,5.17 8.93,10.4 8.26,13 -0.43,1.64 0,2 2.57,2 a 9.38,9.38 0 0 1 5.61,2.25 c 4.06,3.63 -5.87,-8.15 -11.84,-14 a 86.1,86.1 0 0 0 -9.5,-8.13 c -4.33,-2.94 -10.49,-5.41 -10.64,-4.26 0,0.38 0,2.54 0.07,4.8 0.1,2.64 -1.11,7.35 -3.41,13.22 -3.59,9.19 -4.16,13.08 -2.85,19.3 0.66,3.15 0.76,3 1.47,-2.63 a 105.29,105.29 0 0 1 3.27,-14.06 z M 139,470 a 6.23,6.23 0 0 0 -1.75,-1.75 c -1.59,-1.25 -1.63,-1.21 -0.38,0.37 1.25,1.58 2.13,2.17 2.13,1.38 z m 366.35,74.87 c -0.76,-2 1.79,-5.75 6.27,-9.19 8.11,-6.24 10.61,-8.84 12.94,-13.43 3.09,-6.11 3.08,-9.65 -0.07,-14.29 a 53.48,53.48 0 0 1 -8,-17.27 c -1.67,-6.4 -1.23,-9.32 1.4,-9.32 2.63,0 5.68,3.81 9.55,12.19 10.85,23.47 8.42,35.25 -10,48.38 -6.38,4.55 -11.05,5.68 -12.11,2.93 z m 15,-9 c 4.52,-3.82 7.33,-7.21 9.23,-11.09 l 2.73,-5.58 -1.59,-7.32 a 102.77,102.77 0 0 0 -4.65,-14.67 c -3.32,-7.94 -8,-14.67 -8,-11.62 0,3.05 4.77,14.63 8.14,19.53 2.71,3.93 3.24,5.62 3.18,10 -0.11,7.13 -3.81,12.91 -13.28,20.69 -4.08,3.35 -7.62,6.69 -7.86,7.41 -0.79,2.17 4.9,-1.22 12.08,-7.37 z m 49.53,-54 c -13.78,-7 -16.07,-11.25 -14,-25.88 2.42,-17.25 4.21,-20 12.42,-19 4.11,0.48 5.56,0.27 6.57,-0.95 3.11,-3.74 -3.11,-9.64 -10.16,-9.65 -5.26,0 -9.7,-2.46 -9.7,-5.36 0,-8.41 22,-13.25 41.5,-9.13 15.13,3.2 30.86,13.41 35.53,23.05 2.73,5.65 2,8.43 -2.3,8.43 -2.51,0 -4.27,-1.17 -8.8,-5.82 l -5.67,-5.83 -0.66,8.72 c -1.72,22.73 -10.5,38.76 -24,43.8 -8,3 -10.9,2.65 -20.73,-2.36 z m 18.81,0.08 C 602.15,477.5 612,458 612,435.68 c 0,-7.26 0.3,-9.34 1.37,-9.34 0.76,0 4,2.94 7.1,6.52 8.69,9.9 13.08,11.36 8.57,2.86 -6,-11.39 -23.48,-20.63 -43.12,-22.85 -10.58,-1.19 -26.94,3.34 -27.74,7.69 -0.34,1.82 0.72,2.21 9.06,3.29 6.69,0.87 10.76,4.46 10.76,9.51 0,5.83 -2.12,7.36 -9.17,6.62 -5,-0.52 -5.92,-0.35 -6.81,1.32 -1.72,3.21 -4,15.83 -4,22 0,4.84 0.45,6.4 2.57,8.92 2.65,3.15 20,12.48 21.85,11.78 0.59,-0.22 3.41,-1.16 6.27,-2.1 z M 337,447.7 c -5.8,-1.08 -12.27,-3.71 -15.18,-6.15 -5,-4.19 -8.83,-13.46 -8.81,-21.21 0,-9.69 3.84,-20.78 7.93,-23 2.95,-1.58 7.81,-1.23 14.51,1 9,3 12.27,1.47 11.58,-5.56 -0.3,-3 -4.93,-10.5 -6.49,-10.5 -0.76,0 -6.55,2 -12.88,4.5 -13.66,5.34 -19.28,5.9 -20.26,2 -0.98,-3.9 1.87,-7.07 9.84,-10.87 a 129.82,129.82 0 0 1 34.15,-10.3 c 8.42,-1.35 11.86,-1.43 20.61,-0.51 12.85,1.35 24.17,4.27 33.47,8.62 9.3,4.35 12.82,8.14 12.94,13.79 0.08,4.05 -0.08,4.29 -2.93,4.57 -2.2,0.22 -4.9,-0.93 -10,-4.23 -10.8,-7 -12.48,-6.09 -12.48,6.65 0,10.72 -6.29,34.48 -11.47,43.31 -3.86,6.59 -7.81,7.79 -26.53,8.07 -8.55,0.19 -16.65,0.12 -18,-0.18 z m 28.3,-2.38 a 40.65,40.65 0 0 0 9.7,-2.48 c 5.93,-3.06 13.15,-24.32 15.11,-44.5 0.57,-5.77 1.34,-11.62 1.73,-13 1.28,-4.58 5.68,-4 14.73,1.87 7.3,4.75 10.07,5.51 9.6,2.62 -0.95,-5.75 -7.72,-10.76 -20,-14.83 -16.77,-5.54 -33.79,-7 -47.93,-4.08 -18.27,3.77 -37.7,12 -37.7,16 0,2.76 4,2.07 15.89,-2.72 7.16,-2.87 11,-3.89 14,-3.68 3.79,0.28 4.32,0.69 6.83,5.3 7.28,13.36 0.13,20 -15.4,14.36 -7.29,-2.66 -9.67,-1.84 -12.55,4.3 -3.3,7 -4.53,14.76 -3.26,20.44 1.37,6.12 5.14,12.67 8.74,15.2 7.35,5.16 25.07,7.42 40.55,5.18 z m 167.36,-36.64 c -2.86,-2.86 1.77,-11.74 13.36,-25.62 8.94,-10.71 17.34,-18 25.91,-22.59 7,-3.71 26,-10.31 41,-14.2 9.65,-2.51 11.92,-2.8 14.29,-1.82 4.16,1.73 12.35,11.41 16.29,19.28 6.17,12.31 4.23,14.92 -6.9,9.29 -18.46,-9.33 -38.43,-8.6 -61.15,2.23 -13.71,6.53 -25,15.27 -33.1,25.68 -6.13,7.85 -8.08,9.4 -9.74,7.75 z m 21.29,-23.58 c 16.13,-13 36.77,-20.91 54.55,-21 11.61,-0.08 24.63,2.84 30.84,6.9 2.11,1.39 4,2.32 4.3,2.07 1.88,-1.89 -7.75,-18 -14.1,-23.53 -4.49,-3.93 -4.11,-4 -24.49,1.9 -30.61,8.8 -40.18,14.29 -55.51,31.84 -6.21,7.11 -14.54,19.19 -14.54,21.08 0,0.67 2.37,-1.86 5.28,-5.63 a 99.3,99.3 0 0 1 13.67,-13.6 z M 417.06,369.93 c -3.1,-3.3 -2.42,-6 1.61,-6.39 a 6.59,6.59 0 0 1 7.31,6.3 c 0,2.17 -0.45,2.5 -3.33,2.5 a 7.35,7.35 0 0 1 -5.59,-2.41 z m 6.36,-0.86 c -0.65,-1.71 -4.48,-4 -5.29,-3.21 -0.81,0.79 3.47,4.48 4.92,4.48 0.48,0 0.64,-0.57 0.37,-1.27 z M 440,341.21 c -14.94,-6.24 -28.35,-10.68 -39.36,-13 -14.63,-3.14 -44.27,-3.15 -64.27,0 -17.35,2.71 -22.2,2.82 -23.08,0.52 -1.33,-3.46 14.06,-14.26 34.25,-24 9.21,-4.45 10.5,-4.8 17.45,-4.77 22.5,0.09 95,31 95,40.47 0,3 -2.82,5 -6.83,4.91 -2.03,-0.12 -7.96,-1.95 -13.16,-4.13 z m 16,0.62 c 1,-1.25 0.94,-1.88 -0.52,-3.5 -7.41,-8.18 -60.33,-30.71 -82.31,-35 -10.15,-2 -15.09,-1 -28.63,6 a 197.59,197.59 0 0 0 -20,11.88 l -8,5.7 3.71,0.31 c 2,0.17 10.14,-0.64 18,-1.81 A 207,207 0 0 1 370,323.19 c 26.46,-0.05 38.61,2.42 66,13.39 11.5,4.62 16.5,6.46 18.12,6.68 0.35,0.05 1.2,-0.6 1.89,-1.43 z M 235.36,161.16 c 2,-9.93 18.65,-38.36 28.46,-48.57 5.13,-5.34 9.16,-6.86 9.16,-3.47 0,5.23 -17.63,33.62 -29.53,47.56 -7.16,8.4 -9.08,9.46 -8.09,4.48 z M 255.09,136 c 8.07,-12 14.54,-23.66 13.15,-23.65 -2.92,0 -22.89,30.12 -26.2,39.49 l -1.06,3 3.07,-3.5 c 1.7,-1.92 6.66,-8.83 11.04,-15.34 z"
       transform="translate(-3.48,-1.17)" />
    <path
       d="m 338.29,846.12 a 0.47,0.47 0 0 1 -0.3,-0.1 L 299.64,817.2 C 278.5,801.32 259.31,787.29 256.86,785.92 l -0.64,-0.36 c -3.88,-2.19 -3.88,-2.2 -15.67,2.77 l -1.88,0.8 a 67,67 0 0 1 -14.13,3.62 45.37,45.37 0 0 0 -16.09,5.16 59.74,59.74 0 0 0 -7.93,4.48 c 0.36,0.71 2.51,4.13 6,9.23 18.54,26.92 19.07,27.78 18.74,30.64 L 225,844.9 a 0.5,0.5 0 0 1 -0.49,0.44 v 0 h -9.5 c -11.46,0 -18.34,-2.08 -24.54,-7.26 l -3.81,-3.19 -1.72,2.27 c -5.29,7 -7.52,8.72 -11.36,8.72 -3.15,0 -4.27,-0.65 -6,-3.48 v 0 a 16.68,16.68 0 0 1 -2.06,-7.5 c 0,-2.2 -0.74,-10 -1.64,-17.45 l -0.25,-2.07 c -2.56,-21 -2.6,-21.37 12.64,-24.19 l 1.47,-0.27 c 23.56,-4.39 49.3,-11.83 62.6,-18.08 a 76.59,76.59 0 0 0 11.91,-7.42 c 14.36,-11.16 23.65,-12.34 34.27,-4.37 3.85,2.9 5.92,3.94 7.14,3.6 0.67,-0.2 1.21,-0.87 1.72,-2.19 3.48,-8.89 7,-39.33 5.57,-48.62 -0.6,-4 -0.91,-4.34 -5.53,-6.67 -17.68,-8.91 -67.6,-45.81 -93.7,-69.27 a 318.42,318.42 0 0 0 -42.13,-32.66 c -16.29,-10.63 -20.05,-14.08 -26.81,-24.58 -9.92,-15.4 -19.26,-25.91 -58.82,-66.13 -16.67,-17 -32.52,-34 -35.33,-38 C 30.95,465.6 30,461.44 30.11,439.4 c 0.09,-19 1.72,-34.28 6.71,-62.81 l 0.1,-0.59 c 1,-5.52 1.73,-9.9 1.37,-10.67 -0.79,0.23 -3.36,3.46 -6.58,7.51 l -0.36,0.45 a 98.16,98.16 0 0 0 -15.4,29.27 c -3.45,10.58 -5,13.59 -8.89,13.14 l -2.6,-0.3 A 0.5,0.5 0 0 1 4.02,414.91 L 3.7,400.93 c -0.31,-15.28 0.69,-22.2 6,-41.11 5.65,-20.43 10.52,-31.17 21.7,-47.82 a 198.54,198.54 0 0 1 13.22,-17.45 c 3.42,-3.85 6.9,-8 7.76,-9.32 1.34,-2 1.34,-2 -1.5,-4.55 a 20.64,20.64 0 0 0 -7,-3.81 c -5.85,-1.58 -19.19,-3 -28.54,-3 -9.35,0 -11.83,-0.45 -11.83,-3.56 0,-4.28 11.36,-10.17 22.35,-13.41 4,-1.17 8.53,-3.24 9.88,-4.52 3.62,-3.41 11,-4.5 30.32,-4.51 h 15.16 l 5.12,-15.4 c 8.81,-26.55 17.71,-42.78 32.86,-59.87 9.59,-10.83 29.34,-28.11 39.14,-34.24 20,-12.56 60.9,-26.69 95,-32.88 7.26,-1.32 14.94,-3.3 17.12,-4.41 7.1,-3.62 17.24,-17.21 28.57,-38.27 5.28,-9.79 6.55,-11.44 9.07,-11.73 4.13,-0.48 5.61,2.61 9.28,15.16 1.68,5.78 3.78,12.12 4.68,14.16 0.74,1.68 1.23,2.62 1.67,2.78 0.25,0.08 0.63,0 1.36,-0.43 3.44,-1.84 12.47,-10.8 20.14,-20 a 180.5,180.5 0 0 0 25,-38.36 C 375,14.12 377.07,12 378.62,11.87 a 1.91,1.91 0 0 1 1.7,1.08 c 0.57,0.92 1.8,10.44 2.48,16.6 1.75,15.77 3.8,27.11 5.78,31.92 l 0.87,2.13 3.9,-3.8 c 9.74,-9.47 28.59,-35.39 36.68,-50.41 3.33,-6.18 5.31,-8.49 7.1,-8.19 1.79,0.3 3.22,3.52 4.74,11.87 0.88,4.79 2.73,17.9 4.14,29.21 1.35,10.87 2.42,19 2.71,20.88 3.6,-2.16 26,-27.29 32.3,-36.91 2.79,-4.25 4.63,-5.89 6,-5.32 0.89,0.37 3.26,1.37 -1.56,23 -1.79,8 -3.7,17.46 -2.61,18.82 a 0.17,0.17 0 0 0 0.15,0.07 c 5.24,0 64.21,-34.9 73.36,-43.42 5.06,-4.71 6.65,-5.61 9.4,-2.86 l 0.39,0.38 c 1.67,1.6 1.62,1.75 -1,10.11 l -0.71,2.29 c -1.63,5.31 -4.76,18.15 -7,28.61 -2.24,10.46 -5,22.17 -6.14,26 -1.74,5.77 -3,10 -2.7,10.51 l 0.76,-0.28 c 2.79,-1 12.67,-7.84 24.59,-17 4.42,-3.38 11.44,-8.41 12.7,-8.41 a 1.37,1.37 0 0 1 1,0.41 c 0.78,0.83 0.86,2.76 0.45,10.87 a 137.33,137.33 0 0 1 -2.23,18.97 78.83,78.83 0 0 0 -1.84,11.9 c 0,1.7 0,2.82 0.28,3.12 0.28,0.3 1.27,0.18 2.62,0.06 5.25,-0.48 25.23,-7.37 36.87,-12.7 5.71,-2.62 12.35,-5 14.78,-5.25 2.43,-0.25 3.69,-0.35 4.34,0.24 a 2.52,2.52 0 0 1 0.55,2 c 0,3.09 -5.28,16.16 -10.1,25 -7.26,13.27 -10.38,22 -9.77,23 1.24,0.82 13.1,-0.18 20.12,-2 a 30.79,30.79 0 0 0 8.3,-3.52 c 3.56,-2.54 11.53,-3.54 15.1,-2.46 a 2.8,2.8 0 0 1 2,1.46 c 1.59,4.15 -5.07,20.66 -9.5,23.57 -1.4,0.92 -2.36,2.71 -2.75,5.19 -0.49,3 -2,5.58 -5.7,9.43 A 129.48,129.48 0 0 0 640.25,192 c -3,4.54 -5.17,7.82 -4.91,8.61 0,0.08 0.1,0.18 0.47,0.31 0.85,0.31 6.66,0.87 14,1.23 12.13,0.59 17,1.79 18.11,4.41 0.73,1.78 -0.35,4.06 -3.61,7.6 -5.21,5.64 -14.71,12.06 -26.07,17.59 l -1.63,0.8 c -6,2.92 -8.78,4.26 -9.27,5.71 -0.33,1 0.37,2.38 1.53,4.65 l 0.44,0.86 c 1.63,3.21 6.56,12 11,19.7 15.42,26.61 25.73,53.17 30.64,78.94 1.43,7.51 3.26,15.5 4.07,17.8 3.45,9.77 1.73,18.56 -11.47,58.79 -10.91,33.25 -11.31,34.79 -10.52,41.24 0.37,3.05 2.43,16.23 4.6,29.38 5.19,31.5 6.39,45.91 4.95,59.31 -3.58,32.94 -16.67,56.92 -63.58,116.62 -15.45,19.66 -22.25,31.14 -26.94,45.5 -3.67,11.19 -9,19.81 -16.93,27.11 -8.09,7.51 -16.24,12 -25.64,14.26 -5.92,1.41 -11.31,1.57 -36,1.09 -31.88,-0.62 -48.77,-1.75 -75.31,-5.06 l -16.69,-2.08 V 755 c 0,5.77 0.06,8.82 1.34,9.77 1.28,0.95 4.12,0.08 9.11,-1.46 12,-3.72 22.89,-3.83 29.78,-0.3 19.12,9.78 24.28,12.21 34.46,16.22 6.32,2.49 21.11,7.76 33,11.75 8.36,2.81 21.94,7.59 22.8,8.46 0.86,0.87 2.2,9.4 2.85,14.89 a 155.73,155.73 0 0 0 3.8,20.7 c 1.82,6 2,7.87 0.87,9 -0.71,0.71 -3.56,1.4 -19.51,1.7 -14.16,0.25 -17,0.22 -18,-0.77 a 1.61,1.61 0 0 1 -0.43,-1.24 c 0,-1.15 1.27,-10.51 2.49,-18.9 1.46,-10 2.47,-16.92 2.5,-17.18 -0.24,-0.68 -4.76,-4.07 -8.2,-5.69 -5.46,-2.56 -39.2,-14.95 -41,-15.06 -1.8,-0.11 -3.76,4.62 -8.3,20.58 -2.59,9.07 -6.25,20.82 -8.18,26.17 l -3.48,9.7 a 0.49,0.49 0 0 1 -0.43,0.33 l -7.17,0.59 c -4,0.33 -26.07,0.89 -49.3,1.25 l -42.09,0.66 z m -85.83,-63 c 1.44,0 2.52,0.56 4.25,1.55 l 0.64,0.36 c 2.48,1.38 21.72,15.45 42.89,31.35 l 38.22,28.72 41.92,-0.66 c 23.2,-0.36 45.29,-0.92 49.22,-1.24 l 6.86,-0.57 3.37,-9.39 c 1.92,-5.35 5.58,-17.06 8.15,-26.11 4.94,-17.32 6.67,-21.31 9.28,-21.31 1.89,0 36.71,12.94 41.43,15.16 2.66,1.25 8.85,5.23 8.77,6.66 0,0.23 -2.47,17.09 -2.5,17.26 -1.37,9.36 -2.48,17.78 -2.48,18.76 0,0.33 0,0.44 0.13,0.52 0.76,0.75 5.86,0.69 17.31,0.48 14.67,-0.28 18.33,-0.92 18.82,-1.4 0.77,-0.77 0.51,-2.64 -1.12,-8 a 157,157 0 0 1 -3.83,-20.87 c -1,-8.37 -2.16,-13.78 -2.58,-14.32 -0.68,-0.54 -9.85,-4 -22.39,-8.2 -11.88,-4 -26.69,-9.28 -33,-11.77 -10.22,-4 -15.38,-6.46 -34.54,-16.26 -6.67,-3.42 -17.25,-3.28 -29,0.36 -5.61,1.73 -8.37,2.51 -10,1.31 -1.63,-1.2 -1.75,-4.3 -1.75,-10.57 v -9.14 a 0.54,0.54 0 0 1 0.17,-0.38 0.52,0.52 0 0 1 0.4,-0.12 l 17.25,2.15 c 26.49,3.3 43.36,4.43 75.19,5 24.62,0.48 30,0.32 35.78,-1.06 9.23,-2.18 17.23,-6.64 25.19,-14 7.76,-7.19 13,-15.67 16.65,-26.69 4.74,-14.49 11.58,-26 27.11,-45.81 46.73,-59.48 59.73,-83.36 63.25,-116.07 1.43,-13.29 0.23,-27.64 -4.94,-59 -2.17,-13.16 -4.23,-26.36 -4.61,-29.42 -0.81,-6.66 -0.41,-8.22 10.57,-41.67 13.11,-39.99 14.83,-48.73 11.46,-58.19 -0.83,-2.34 -2.67,-10.39 -4.11,-17.94 -4.89,-25.66 -15.14,-52.11 -30.5,-78.6 -4.45,-7.66 -9.39,-16.52 -11,-19.74 l -0.44,-0.87 c -1.28,-2.5 -2,-4 -1.58,-5.41 0.62,-1.86 3.3,-3.16 9.77,-6.3 l 1.64,-0.8 c 11.22,-5.51 20.62,-11.88 25.75,-17.4 2.88,-3.13 4,-5.21 3.42,-6.54 -0.88,-2.14 -5.87,-3.24 -17.24,-3.79 -6.06,-0.3 -13.05,-0.86 -14.24,-1.29 a 1.56,1.56 0 0 1 -1.08,-0.94 c -0.38,-1.15 0.73,-3 5,-9.48 a 129.56,129.56 0 0 1 11,-14.24 c 3.55,-3.73 5,-6.06 5.43,-8.9 0.43,-2.84 1.55,-4.79 3.19,-5.87 4,-2.6 10.52,-18.69 9.11,-22.37 -0.13,-0.34 -0.6,-0.64 -1.33,-0.86 -3.29,-1 -10.94,0 -14.23,2.32 a 32.15,32.15 0 0 1 -8.63,3.67 c -6.74,1.75 -19.16,3 -21,1.83 -2.74,-1.84 9,-23.33 9.47,-24.24 4.67,-8.53 10,-21.57 10,-24.48 0,-0.63 0,-1.07 -0.21,-1.24 -0.37,-0.32 -1.77,-0.19 -3.57,0 -2.34,0.26 -8.84,2.58 -14.48,5.17 -11.64,5.37 -31.8,12.3 -37.14,12.77 -1.79,0.16 -2.77,0.26 -3.39,-0.32 -0.62,-0.58 -0.63,-1.69 -0.6,-3.86 a 79.85,79.85 0 0 1 1.86,-12.11 136.5,136.5 0 0 0 2.33,-18.66 c 0.27,-5.53 0.43,-9.49 -0.18,-10.13 a 0.41,0.41 0 0 0 -0.32,-0.1 c -0.66,0.09 -5.36,3.06 -12.09,8.21 -12.18,9.32 -21.93,16 -24.85,17.11 -0.63,0.23 -1.34,0.49 -1.81,0 -0.77,-0.72 -0.28,-2.45 2.44,-11.5 1.16,-3.84 3.9,-15.49 6.12,-26 2.22,-10.51 5.36,-23.36 7,-28.7 l 0.7,-2.28 c 2.45,-7.93 2.45,-7.93 1.23,-9.09 l -0.41,-0.4 c -2,-2 -2.79,-2 -8,2.88 -9.65,9 -68.47,43.69 -74,43.69 a 1.14,1.14 0 0 1 -0.93,-0.45 c -0.95,-1.17 -0.87,-4.87 2.42,-19.65 4.3,-19.34 2.72,-21.64 2.14,-21.89 -0.21,-0.08 -1.38,-0.24 -4.77,4.95 -5.29,8.08 -30.67,37.49 -33.47,37.5 h -0.05 a 0.64,0.64 0 0 1 -0.52,-0.45 C 447.7,63.18 446.3,52.41 445.05,42.32 443.64,31.02 441.79,17.94 440.92,13.16 440,8.24 438.7,2.46 437,2.18 c -1.7,-0.28 -4.23,4.27 -6.06,7.68 -8.29,15.38 -26.89,41 -36.87,50.66 l -4.43,4.31 a 0.53,0.53 0 0 1 -0.45,0.13 0.5,0.5 0 0 1 -0.36,-0.3 l -1.16,-2.81 c -2,-4.9 -4.09,-16.33 -5.84,-32.18 -1,-8.75 -2,-15.56 -2.34,-16.2 -0.34,-0.64 -0.69,-0.6 -0.79,-0.6 -2,0.12 -6.19,9 -7.57,11.94 A 181.41,181.41 0 0 1 346,63.38 c -7.87,9.41 -16.85,18.29 -20.44,20.21 a 2.67,2.67 0 0 1 -2.15,0.49 c -0.82,-0.28 -1.34,-1.21 -2.27,-3.32 -0.93,-2.11 -3,-8.47 -4.72,-14.28 -3.85,-13.14 -5.14,-14.8 -8.2,-14.45 -2.06,0.24 -3.3,1.92 -8.31,11.22 -11.59,21.54 -21.61,34.92 -29,38.68 -2.26,1.15 -10.07,3.17 -17.41,4.5 -34,6.17 -74.69,20.25 -94.65,32.75 -9.74,6.09 -29.38,23.28 -38.93,34 -15,17 -23.89,33.11 -32.65,59.52 l -5.21,15.8 a 0.49,0.49 0 0 1 -0.47,0.34 H 66 c -18.8,0 -26.27,1.08 -29.63,4.24 -1.47,1.39 -6.08,3.52 -10.28,4.75 -12.95,3.81 -21.64,9.51 -21.64,12.45 0,2 1.34,2.55 10.83,2.56 9.49,0.01 22.88,1.42 28.8,3 a 21.89,21.89 0 0 1 7.44,4 c 3.09,2.76 3.38,3.27 1.66,5.85 -0.88,1.33 -4.4,5.56 -7.84,9.44 A 195.76,195.76 0 0 0 32.2,312.46 C 21.09,329.05 16.25,339.72 10.59,360.04 5.36,378.83 4.36,385.7 4.67,400.86 v 1.24 c 0.3,-8.71 2.51,-21.79 6.32,-36.68 7.49,-29.24 18.69,-50 40,-74 6.33,-7.14 6.25,-9.42 2.79,-12.65 -4.52,-4.23 -13.11,-6.2 -30.6,-7 C 19.55,271.6 7.67,271.01 7.06,270.4 a 0.83,0.83 0 0 1 -0.21,-0.78 c 0.51,-2.06 11.7,-7.61 19.19,-10 5.75,-1.8 10.07,-3.81 11.84,-5.5 l 2.87,-2.76 a 0.58,0.58 0 0 1 0.34,-0.14 l 42,-1 5.91,-17.06 c 3.33,-9.68 8,-21.43 10.32,-26.2 10.65,-21.5 25.37,-38.63 50.81,-59.12 20,-16.1 63.19,-32.53 105.06,-39.94 6.5,-1.15 13.27,-2.71 15.08,-3.47 8,-3.33 19.13,-17.56 30.58,-39.05 2.93,-5.51 6.67,-12 7.71,-11.92 1.5,0.18 3.17,2.85 6.82,15.58 4.47,15.56 5.39,16.8 8.54,16.8 2.34,0 4.56,-1.61 11.83,-8.61 14.63,-14.09 30.31,-36 37.26,-52.08 l 0.53,-1.23 c 2,-4.74 2.8,-6.52 3.91,-6.35 1.32,0.19 1.68,2.95 3.15,15.93 l 0.28,2.48 a 175.73,175.73 0 0 0 3.82,21.92 c 2.05,7.21 2.4,7.52 4.54,7.76 3.3,0.38 9.36,-5.88 22.26,-23.12 10.32,-13.78 14.34,-19.82 20.47,-30.8 3.08,-5.53 4,-6 4.66,-6 v 0 a 0.89,0.89 0 0 1 0.79,0.5 c 1.25,2.28 4,20.36 6,37 L 443.8,46 c 2.46,20.16 2.69,21.82 3.59,21.82 h 0.2 c 2.31,-0.19 24.47,-24 33.11,-36.2 l 0.68,-1 c 2.66,-3.78 3.31,-4.67 4.08,-4.33 0.93,0.42 0.65,1.8 -2.16,14.25 L 482.77,43 a 115.54,115.54 0 0 0 -2.63,16.91 c -0.15,5.54 -0.07,5.55 1.91,5.78 h 0.18 c 6.64,0 64.65,-33.41 75.92,-43.79 2.23,-2.05 5.05,-4.33 5.84,-3.54 0.79,0.79 -0.83,5.89 -1.82,8.9 -1.4,4.28 -4.43,16.72 -6.74,27.73 -2.31,11.01 -5.52,24.46 -7.14,29.93 -1.82,6.13 -2.59,10.36 -2.43,10.94 a 1.42,1.42 0 0 0 1,0.81 c 1.91,0.63 5.72,-0.49 9.26,-2.73 2.61,-1.66 10.16,-7.1 16.81,-12.13 L 585,72.65 a 0.5,0.5 0 0 1 0.8,0.43 l -0.57,9.9 a 134,134 0 0 1 -2.71,19 c -1.15,4.83 -2,10.25 -1.82,11.84 0.23,2.38 0.35,2.61 3.69,2.88 2,0.17 7.76,-0.84 12.51,-2.2 8.32,-2.39 13.07,-4.2 33.9,-12.95 6.1,-2.55 7.92,-3.09 8.87,-2.59 a 1.27,1.27 0 0 1 0.65,0.9 c 0.29,1.33 -6.33,15.45 -9.87,22.72 -4.69,9.66 -10,21.06 -9.78,23.43 0.22,2.37 0.27,2.39 6.32,2.68 a 54.83,54.83 0 0 0 26.51,-5.34 c 3.86,-1.94 8.14,-3.46 9.74,-3.46 v 0 a 3.55,3.55 0 0 1 2.59,0.65 3.38,3.38 0 0 1 0.64,2.49 c 0,2.47 -6.38,17.85 -8.47,17.85 -1.43,0 -3.53,2.91 -3.53,5.51 0,2.2 -1.59,4.86 -5.67,9.51 -7.14,8.14 -17.33,23.53 -17.33,25.59 0,2.06 2.52,2.5 16.87,3.32 6.57,0.37 14.07,1.15 15.24,1.81 0.68,0.38 1.25,0.74 1.36,1.36 0.14,0.79 -0.47,1.62 -2.13,3.59 -4.14,4.89 -13.81,11.43 -26.41,17.75 -6.54,3.3 -11.58,6.51 -12,7.34 -1.22,2.26 0.18,5.4 10,22.38 19.59,34 28.09,55 33.68,83.33 1.45,7.36 3.55,16.15 4.68,19.6 2,6.16 2,6.72 0.4,15 -0.93,4.7 -5.69,20.75 -10.61,35.78 -4.92,15.03 -9.84,30.54 -11,34.65 l -2,7.35 2,14 c 1.13,7.74 2.93,19 4,25 5.06,28.26 6.09,46.79 3.45,62 -5.14,29.48 -19,53.07 -67.42,114.7 -11.22,14.28 -16.35,23.26 -21.12,37 -6,17.12 -11.67,25.33 -23.55,33.81 -13.64,9.73 -24.39,11.35 -63.94,9.65 -28,-1.2 -40.69,-2.22 -64.75,-5.15 -10,-1.22 -17.84,-1.77 -18.64,-1.49 -1.13,0.43 -1.25,2 -0.84,10.38 0.3,6.07 0.86,11 1.2,11.81 0.88,2.1 5.06,1.82 15.42,-1 14.6,-4 17.08,-3.7 33.21,4.47 16.13,8.17 31.75,14.41 60,24 9.6,3.26 21.11,7.2 21.39,7.47 0.11,0.12 0.37,0.38 2,13.41 a 180.38,180.38 0 0 0 3.48,19.41 c 0.58,2.07 1.81,7 0.82,8 -0.99,1 -15.66,1.51 -16.28,1.53 l -15,0.49 a 0.59,0.59 0 0 1 -0.37,-0.15 0.48,0.48 0 0 1 -0.14,-0.36 v -2.39 c 0,-1.33 1.09,-9.39 2.37,-18 2.69,-17.9 2.51,-18.74 -4.82,-22.66 -7.33,-3.92 -43,-16.6 -45.62,-16.6 h -0.06 c -2.75,0.53 -5.55,6.12 -8.33,16.61 -1.51,5.71 -5,17.16 -7.79,25.5 l -5,15.13 a 0.51,0.51 0 0 1 -0.46,0.34 l -31.64,0.64 c -17.45,0.35 -38.59,0.91 -47.13,1.24 l -15.5,0.59 a 0.5,0.5 0 0 1 -0.31,-0.1 l -38.85,-29.18 c -21.4,-16.08 -40.23,-30 -42,-31.07 -4.45,-2.72 -10,-2.37 -17.41,1.11 A 61.84,61.84 0 0 1 229.47,789 c -11.7,2.12 -17.95,4 -24.76,7.64 -4.14,2.19 -7,4.46 -7.06,5.07 -0.31,1.66 4,8.29 17.18,27.35 6,8.77 8.08,12 7.06,13.7 -0.81,1.37 -3.2,1.28 -8.46,0.74 -8.59,-0.88 -15.35,-3.28 -20.67,-7.34 -3.29,-2.51 -5.53,-3.48 -7.27,-3.16 -1.43,0.27 -2.69,1.42 -4.1,3.74 l -0.43,-0.26 0.43,0.26 c -2.17,3.56 -4.77,5.88 -7.13,6.35 a 3.72,3.72 0 0 1 -3,-0.61 c -2.19,-1.6 -3.73,-7.6 -3.75,-14.58 0,-2.74 -0.76,-10.29 -1.68,-16.84 -1.65,-11.73 -1.72,-12.19 0.52,-14 1.32,-1.07 7.21,-2.64 12.14,-3.54 a 411.93,411.93 0 0 0 46.33,-11.67 c 14.2,-4.77 21.63,-8.4 29.44,-14.39 8.47,-6.48 13,-8.57 18.73,-8.57 4.71,0 7.92,1.42 13.75,6.06 2.85,2.28 5.28,3.2 7.24,2.77 1.51,-0.35 2.77,-1.54 3.76,-3.55 2.64,-5.41 4.83,-20.84 5.44,-38.41 0.05,-1.37 0.1,-2.64 0.15,-3.8 0.52,-13.22 0.52,-13.22 -9.07,-18.83 -0.85,-0.5 -1.77,-1 -2.77,-1.63 -24.36,-14.45 -63,-43.51 -89.81,-67.58 -13.63,-12.23 -30,-24.72 -42.81,-32.59 C 148.1,594.7 139.19,586.41 135.02,579.14 127.7,566.36 116.83,554.01 79.64,516.24 40.55,476.54 36.23,471.18 33.44,458.83 30.65,446.48 33,415 39.49,376.69 c 1.77,-10.34 3,-17.85 3,-18.37 0,-0.3 -0.07,-0.41 -0.09,-0.42 -1,-0.31 -6,3.78 -15.38,16.16 -5,6.54 -10.57,17.81 -13.95,28.05 -1.52,4.58 -3.33,9 -4.14,10.14 -0.65,0.88 -1.12,1.53 -1.75,1.44 -0.63,-0.09 -1,-0.83 -1.59,-2.48 a 14.61,14.61 0 0 1 -0.75,-3.74 l 0.16,6.93 2.16,0.25 c 2.83,0.33 4.19,-1.27 7.83,-12.46 a 99.08,99.08 0 0 1 15.57,-29.58 l 0.35,-0.45 c 5.27,-6.61 6.7,-8.32 7.79,-7.83 1.09,0.49 0.79,2.67 -0.8,11.78 l -0.11,0.59 c -5,28.47 -6.6,43.7 -6.69,62.65 -0.11,22 0.75,25.74 8.34,36.54 2.79,4 18.59,21 35.23,37.89 39.61,40.29 49,50.82 58.94,66.29 6.66,10.34 10.38,13.75 26.51,24.29 a 318.58,318.58 0 0 1 42.26,32.75 c 26.06,23.42 75.86,60.24 93.48,69.12 4.91,2.47 5.42,3.09 6.07,7.42 1.41,9.38 -2.12,40.14 -5.63,49.13 -0.64,1.63 -1.37,2.49 -2.38,2.78 -1.59,0.45 -3.77,-0.57 -8,-3.76 -10.17,-7.64 -19.12,-6.46 -33.05,4.36 a 78.13,78.13 0 0 1 -12.09,7.53 c -13.37,6.29 -39.22,13.76 -62.84,18.16 l -1.47,0.27 c -14.33,2.65 -14.33,2.65 -11.84,23.09 l 0.25,2.07 c 0.91,7.46 1.64,15.34 1.65,17.56 a 15.82,15.82 0 0 0 1.91,7 c 1.56,2.56 2.33,3 5.15,3 3.44,0 5.51,-1.63 10.57,-8.32 l 2,-2.69 a 0.5,0.5 0 0 1 0.71,-0.08 l 4.22,3.52 c 6,5 12.7,7 23.91,7 h 9.05 l 0.26,-2.2 c 0.28,-2.44 -0.59,-3.84 -18.57,-29.95 -1,-1.51 -6.24,-9.11 -6.24,-9.91 0,-0.24 0,-1 8.52,-5.27 a 46.32,46.32 0 0 1 16.41,-5.25 65.72,65.72 0 0 0 13.87,-3.55 l 1.88,-0.8 c 7.16,-2.95 10.13,-4.2 12.28,-4.2 z M 456.36,783 c 3.57,0 40.34,13.59 46.18,16.71 7.85,4.19 8.1,5.3 5.34,23.69 -1.25,8.38 -2.34,16.54 -2.36,17.82 v 1.86 l 14.52,-0.47 c 9.14,-0.29 15,-0.94 15.64,-1.27 0.2,-0.34 0,-2.84 -1.11,-7 A 182.84,182.84 0 0 1 531,814.83 c -0.87,-6.7 -1.61,-11.78 -1.83,-12.82 -1.33,-0.52 -9.62,-3.4 -20.94,-7.24 -28.33,-9.61 -44.07,-15.9 -60.16,-24.06 -15.81,-8 -18.24,-8.34 -32.5,-4.4 -11.26,3.12 -15.45,3.24 -16.6,0.48 -0.48,-1.15 -1,-7.08 -1.28,-12.15 -0.44,-8.86 -0.36,-10.66 1.48,-11.36 1.16,-0.45 10.72,0.4 19.12,1.43 24,2.93 36.72,3.94 64.68,5.14 39.25,1.69 49.9,0.1 63.31,-9.46 11.72,-8.34 17.35,-16.39 23.22,-33.32 4.81,-13.84 10,-22.89 21.27,-37.27 48.29,-61.47 62.11,-85 67.22,-114.25 2.63,-15 1.6,-33.48 -3.44,-61.62 -1.09,-6.06 -2.89,-17.3 -4,-25.06 l -2,-14.05 a 0.47,0.47 0 0 1 0,-0.2 l 2,-7.45 c 1.13,-4.13 6.06,-19.7 11,-34.7 4.94,-15 9.66,-31 10.58,-35.66 1.61,-8.22 1.6,-8.49 -0.37,-14.53 -1.14,-3.48 -3.25,-12.32 -4.71,-19.71 -5.57,-28.18 -14,-49.13 -33.56,-83 -10.13,-17.58 -11.44,-20.64 -10,-23.35 0.7,-1.31 6.94,-5 12.46,-7.76 12.34,-6.22 22.1,-12.78 26.1,-17.54 0.89,-1 2,-2.36 1.92,-2.77 0,-0.21 -0.6,-0.52 -0.86,-0.67 -0.8,-0.44 -7.07,-1.25 -14.81,-1.69 -14.9,-0.84 -17.82,-1.27 -17.82,-4.31 0,-2.68 11.06,-18.81 17.58,-26.25 3.85,-4.38 5.42,-6.95 5.42,-8.85 0,-3 2.41,-6.51 4.53,-6.51 1.18,-0.59 7.47,-13.91 7.47,-16.85 0,-1 -0.1,-1.54 -0.35,-1.79 -0.25,-0.25 -0.8,-0.35 -1.89,-0.35 v 0 c -1.43,0 -5.69,1.54 -9.3,3.36 a 56,56 0 0 1 -27,5.44 c -6.11,-0.29 -6.89,-0.33 -7.26,-3.57 -0.25,-2.1 2.62,-9.05 9.88,-24 5.84,-12 9.77,-21.14 9.77,-22.12 0,-0.14 -0.09,-0.17 -0.12,-0.18 -0.73,-0.38 -4.36,1.09 -8,2.63 -20.88,8.76 -25.65,10.58 -34,13 -4.92,1.41 -10.7,2.42 -12.87,2.24 -3.7,-0.31 -4.31,-0.8 -4.6,-3.78 -0.16,-1.71 0.66,-7.17 1.84,-12.17 a 131.79,131.79 0 0 0 2.69,-18.79 l 0.51,-8.82 -11.28,8.45 c -6.67,5 -14.24,10.5 -16.88,12.17 -3.83,2.43 -7.9,3.57 -10.11,2.84 a 2.41,2.41 0 0 1 -1.58,-1.41 c -0.43,-1.11 1.2,-7.53 2.4,-11.57 1.62,-5.45 4.81,-18.84 7.12,-29.86 2.31,-11.02 5.36,-23.52 6.77,-27.83 a 44.39,44.39 0 0 0 2,-7.68 22.35,22.35 0 0 0 -4.38,3.36 C 547,33.47 489.18,66.64 482.13,66.65 h -0.2 c -3,-0.34 -2.94,-1.33 -2.79,-6.8 a 115.47,115.47 0 0 1 2.66,-17.1 l 0.53,-2.36 c 1.55,-6.89 2.56,-11.37 2.61,-12.82 -0.57,0.61 -1.63,2.12 -2.74,3.69 l -0.69,1 c -8,11.35 -31,36.63 -33.92,36.63 h -0.16 c -1.84,0 -1.85,0.05 -4.62,-22.69 l -0.34,-2.76 c -2.3,-18.88 -4.82,-34.56 -5.87,-36.63 -0.29,0.15 -1.23,1 -3.72,5.46 -6.15,11 -10.18,17.09 -20.54,30.91 -13.49,18 -19.32,24 -23.18,23.52 -2.88,-0.34 -3.36,-1.38 -5.39,-8.49 a 177.94,177.94 0 0 1 -3.85,-22.08 l -0.28,-2.47 c -1,-8.57 -1.62,-14.3 -2.29,-15 -0.54,0.36 -1.66,3 -2.85,5.73 l -0.5,1.15 c -7,16.2 -22.8,38.24 -37.52,52.46 -7.59,7.32 -9.82,8.89 -12.52,8.89 -4.14,0 -5.23,-2.64 -9.5,-17.52 -2.69,-9.38 -4.66,-14.36 -5.85,-14.83 -0.7,0.66 -3.32,4.75 -6.84,11.36 -11.72,22 -22.76,36 -31.07,39.51 -1.87,0.78 -8.74,2.36 -15.3,3.52 -41.72,7.39 -84.74,23.73 -104.61,39.74 -25.31,20.39 -39.95,37.43 -50.53,58.79 -2.35,4.73 -7,16.43 -10.28,26.07 L 84,251 a 0.5,0.5 0 0 1 -0.46,0.33 l -42.18,1 -2.78,2.67 c -1.91,1.82 -6.25,3.86 -12.23,5.74 -7.94,2.49 -17.38,7.5 -18.43,9.05 1.41,0.26 7.46,0.74 15.31,1.1 17.76,0.83 26.52,2.87 31.25,7.28 4.17,3.9 3.59,6.92 -2.73,14 C 30.6,316 19.46,336.65 12,365.71 6.46,387.35 4.3,405.07 6.51,410.85 a 10.75,10.75 0 0 0 0.79,1.8 7.78,7.78 0 0 0 0.8,-1 c 0.73,-1 2.56,-5.5 4,-9.86 3.41,-10.33 9.08,-21.72 14.1,-28.33 3.15,-4.12 13.6,-17.46 16.51,-16.46 0.35,0.12 0.77,0.45 0.77,1.37 0,0.63 -1.53,9.92 -3,18.54 -6.48,38.09 -8.84,69.4 -6.07,81.65 2.74,12.09 7,17.42 45.94,56.93 37.26,37.84 48.16,50.23 55.54,63.11 4.08,7.12 12.87,15.29 23.5,21.83 12.83,7.9 29.29,20.43 43,32.69 26.8,24 65.34,53 89.66,67.47 1,0.6 1.91,1.13 2.76,1.63 10,5.85 10.1,6 9.56,19.73 -0.05,1.16 -0.1,2.42 -0.15,3.8 -0.62,17.69 -2.85,33.29 -5.55,38.81 -1.12,2.3 -2.61,3.67 -4.43,4.08 -2.26,0.51 -5,-0.48 -8.09,-2.95 -5.69,-4.54 -8.63,-5.85 -13.12,-5.85 -5.45,0 -9.86,2 -18.12,8.37 -7.91,6.06 -15.42,9.73 -29.73,14.54 a 412.48,412.48 0 0 1 -46.48,11.7 c -5.84,1.07 -10.76,2.59 -11.68,3.34 -1.76,1.42 -1.8,1.45 -0.16,13.08 0.93,6.58 1.69,14.2 1.69,17 0,6.48 1.45,12.4 3.34,13.78 a 2.73,2.73 0 0 0 2.22,0.44 c 2.05,-0.41 4.47,-2.61 6.47,-5.89 v 0 c 1.57,-2.58 3.05,-3.87 4.78,-4.2 2.06,-0.39 4.47,0.61 8.05,3.35 5.17,3.94 11.77,6.28 20.17,7.14 4.06,0.41 7,0.64 7.5,-0.26 0.74,-1.25 -2.19,-5.61 -7,-12.62 -14.95,-21.66 -17.7,-26.12 -17.33,-28.11 0.26,-1.43 4.67,-4.23 7.57,-5.76 6.91,-3.65 13.23,-5.6 25.06,-7.75 a 60.42,60.42 0 0 0 12.24,-4.05 c 7.75,-3.63 13.59,-4 18.36,-1.06 1.75,1.07 20.61,15 42,31.13 l 38.69,29.08 15.33,-0.59 c 6.42,-0.25 20,-0.62 33.75,-1 a 30.64,30.64 0 0 1 -6.89,-1.37 c -6.66,-2.33 -11.15,-5.77 -26.69,-20.43 -7.71,-7.27 -21.63,-19.38 -31,-27 -9.37,-7.62 -18,-15.16 -19.1,-16.76 -1.49,-2.21 -2,-4.6 -1.89,-9.15 0.2,-9.23 6,-42.89 8.24,-48 1.19,-2.69 2.37,-4.62 4.29,-5.32 2.51,-0.91 6.09,0.43 11.81,3.24 4.54,2.22 17.05,7 27.87,10.56 29.59,9.83 35.17,12.9 35.16,19.34 0,1.78 -0.66,8.71 -1.5,15.77 -0.72,6.07 -1.46,12.32 -1.37,14.23 0.35,-0.53 0.81,-1.41 1,-1.77 0.73,-1.39 2.45,-4 3.7,-4 1.06,0 5.37,2.77 8,4.62 14.78,10.39 16.05,13.15 13.62,29.52 -2.09,14 -5.81,28.17 -8.31,31.54 a 15.88,15.88 0 0 1 -4.52,4 9.39,9.39 0 0 1 -2.52,0.78 l 3.51,-0.07 31.28,-0.63 4.94,-14.79 c 2.78,-8.33 6.27,-19.75 7.78,-25.45 2.92,-11 5.89,-16.71 9.1,-17.33 z m -138,-68.82 a 4.29,4.29 0 0 0 -1.43,0.23 c -1.37,0.5 -2.41,1.84 -3.71,4.78 -2.25,5.07 -8,38.47 -8.16,47.65 -0.09,4.31 0.36,6.55 1.72,8.55 1,1.52 9.68,9.09 18.9,16.55 9.42,7.62 23.37,19.75 31.1,27 15.41,14.54 19.84,17.94 26.33,20.2 5.27,1.85 15.3,2.08 18.5,0.44 a 15.21,15.21 0 0 0 4.18,-3.72 c 2.37,-3.2 6.09,-17.43 8.12,-31.09 2.37,-16 1.26,-18.38 -13.21,-28.55 -3.84,-2.69 -6.92,-4.4 -7.44,-4.44 -0.34,0 -1.65,1.28 -2.81,3.49 -1.16,2.21 -1.63,2.87 -2.28,2.65 -0.91,-0.28 -0.93,-1.37 0.77,-15.69 0.82,-6.92 1.49,-13.94 1.49,-15.66 0,-5.76 -5.79,-8.86 -34.47,-18.39 -10.87,-3.61 -23.42,-8.37 -28,-10.61 -4.36,-2.1 -7.41,-3.37 -9.56,-3.37 z M 181,836.43 Z M 563.2,18.9 Z M 394.34,839.3 a 34.19,34.19 0 0 1 -5,-0.43 c -9.21,-1.39 -12.95,-4 -33.31,-23.22 -7.12,-6.72 -20.3,-18.13 -29.39,-25.45 -16.6,-13.36 -20.18,-17.27 -20.18,-22.06 0,-2.5 5.6,-39.35 6.66,-43.81 1.06,-4.46 3.46,-7.81 6.09,-8.43 a 4,4 0 0 1 4.1,1.59 c 1.39,1.68 7.16,3.88 32.46,12.44 21.22,7.17 28.91,10.51 31.64,13.73 1.58,1.86 1.57,3.35 -0.08,17.74 -1.7,14.83 -2.32,22.1 -1.25,23.29 a 0.42,0.42 0 0 0 0.36,0.15 c 0.43,0 2.07,-1.79 3.67,-5 0.11,-0.22 2.67,-5.31 3,-5.7 a 1,1 0 0 1 0.48,-0.2 c 1.67,0 15.66,11.15 17.69,13.7 2.15,2.71 2.33,3.8 1.77,10.58 -0.74,9 -5.17,29.37 -7.4,34.13 a 13.64,13.64 0 0 1 -3.84,4.89 v 0 a 13,13 0 0 1 -7.47,2.06 z M 320.1,716.8 a 2.79,2.79 0 0 0 -0.64,0.07 c -2.26,0.53 -4.36,3.55 -5.34,7.69 -1.06,4.44 -6.64,41.1 -6.64,43.58 0,4.34 3.7,8.32 19.81,21.28 9.11,7.33 22.31,18.77 29.44,25.5 20.16,19 23.84,21.61 32.78,23 5.58,0.84 8.88,0.43 11.79,-1.45 v 0 a 12.62,12.62 0 0 0 3.48,-4.47 c 2.15,-4.59 6.59,-25.12 7.31,-33.79 0.55,-6.57 0.42,-7.4 -1.55,-9.88 -2.15,-2.7 -14.67,-12.33 -16.77,-13.25 -0.35,0.62 -1.35,2.5 -2.75,5.28 -0.95,1.91 -3.14,5.52 -4.56,5.52 a 1.43,1.43 0 0 1 -1.11,-0.48 c -1.25,-1.4 -1.05,-6.12 1,-24.07 1.58,-13.86 1.61,-15.45 0.31,-17 -2.57,-3 -10.44,-6.42 -31.2,-13.43 -26.11,-8.83 -31.33,-10.85 -32.91,-12.75 a 3.21,3.21 0 0 0 -2.45,-1.35 z m 161.39,28.62 c -5,0 -9.05,-0.08 -10.56,-0.21 v 0 c -2.47,-0.23 -11.23,-1.32 -19.52,-2.45 C 330.31,726.28 230.84,674.3 191.82,607.1 A 177.17,177.17 0 0 1 183.56,590 c -5.43,-13.07 -9.84,-20.82 -16.84,-29.63 -6.48,-8.15 -11,-12.27 -15.66,-14.23 l -6.71,-2.82 a 44.07,44.07 0 0 1 -6.92,-4.53 c 5.38,4.38 11.67,8.95 14.2,10 5.67,2.43 14.63,11.26 20.84,20.54 3.74,5.6 4.16,6.85 3.75,11.2 -0.78,8.25 -6.82,15 -14.35,16 -4.17,0.56 -4.72,0.1 -10.6,-6.08 -3.41,-3.58 -10.32,-12.53 -15.4,-20 -5.08,-7.47 -13.13,-18.28 -18,-24.25 C 99,523 95.24,517.18 89.09,501.63 83.85,488.38 82,478.75 82,464.84 c 0,-13.65 1.51,-20.17 6.44,-27.93 6.6,-10.39 19.48,-13.51 32,-7.75 14.34,6.57 33.48,21.63 35.93,28.25 2.76,7.45 4.55,10.69 11.95,21.66 4.29,6.35 9.44,14.81 11.48,18.86 1.64,3.25 3.67,7 4.85,6.73 1.7,-0.33 3.66,-5.3 3.74,-11.46 0.16,-13.54 10.41,-51.11 23.33,-85.53 3.3,-8.81 7.26,-21.12 8.82,-27.45 1.56,-6.33 3.76,-14.17 4.89,-17.44 a 38.22,38.22 0 0 0 2,-8 c 0,-1.49 -0.56,-2.38 -1.11,-2.61 a 1.25,1.25 0 0 0 -1.33,0.45 5.2,5.2 0 0 1 -3.26,1.25 1.88,1.88 0 0 1 -1.56,-0.75 c -1.41,-1.84 -0.73,-7.33 2.27,-18.38 1.75,-6.42 3,-11.5 3,-12 v 0 c 0,0 -0.46,-0.63 -4.23,-0.5 l -4.75,0.16 a 0.46,0.46 0 0 1 -0.37,-0.14 0.48,0.48 0 0 1 -0.14,-0.36 l 0.07,-5 c 0.06,-3.72 1.24,-7.65 4.36,-14.48 2.46,-5.38 4.06,-10.21 3.88,-11.73 -0.26,-2.26 -0.26,-2.26 -4.68,-2 -3.1,0.16 -5.27,0 -6.56,-1.21 -1.29,-1.21 -1.57,-3.48 -1.57,-6.7 0,-19.1 28.76,-69.36 55,-96 19.4,-19.76 51.18,-40.71 69.4,-45.75 17.81,-4.92 47.11,-6.48 66.71,-3.55 23.13,3.46 79.3,26.23 111.28,45.11 10,5.93 20.86,12.22 22.63,12.23 a 70.63,70.63 0 0 0 -3,-8.86 81.08,81.08 0 0 1 -3.65,-11.67 c -0.34,-2.08 -0.45,-3.14 0.08,-3.76 a 2.64,2.64 0 0 1 2.09,-0.57 c 6.86,0 35.5,22.1 57.82,44.61 33.41,33.69 55.38,73.69 67.19,122.28 5,20.66 6.46,30.41 6.43,43.5 0,14.81 -1.64,22.14 -11.5,52.27 -9.37,28.61 -9.67,31.35 -6.48,58.77 1.92,16.51 2.18,22.64 1.71,41 -1,40.49 -6.49,61.77 -21.6,84.32 -10.45,15.6 -32.1,44.55 -41.35,55.31 -6.22,7.24 -9.06,11.84 -16.88,27.37 -11.1,22.06 -15.69,28.69 -23.4,33.81 -15.21,10.09 -28.81,13.82 -52,14.23 -3.54,-0.04 -7.19,-0.01 -10.44,-0.01 z M 471,744.21 c 2.47,0.23 11.86,0.27 21,0.11 22.94,-0.41 36.39,-4.09 51.43,-14.07 7.53,-5 12.05,-11.55 23.06,-33.42 7.77,-15.45 10.79,-20.34 17,-27.57 9.24,-10.74 30.84,-39.64 41.28,-55.21 15,-22.38 20.4,-43.52 21.43,-83.79 0.47,-18.32 0.21,-24.43 -1.7,-40.87 -3.22,-27.63 -2.92,-30.4 6.52,-59.2 9.82,-30 11.43,-37.29 11.45,-52 0,-13 -1.41,-22.69 -6.41,-43.26 -11.75,-48.4 -33.64,-88.25 -66.92,-121.8 -21.77,-21.95 -50.59,-44.32 -57.11,-44.32 -0.59,0 -1.16,0 -1.33,0.22 -0.17,0.22 -0.08,1.57 0.14,2.95 a 79.91,79.91 0 0 0 3.6,11.47 c 1.48,3.83 3.06,8.41 3.06,9.35 a 0.8,0.8 0 0 1 -0.41,0.73 c -1,0.6 -3.72,-0.41 -23.75,-12.23 -31.9,-18.83 -87.88,-41.53 -110.92,-45 -19.48,-2.92 -48.6,-1.37 -66.29,3.53 -18.08,5 -49.66,25.83 -69,45.48 -26.06,26.53 -54.67,76.42 -54.67,95.33 0,3.49 0.34,5.11 1.25,6 0.91,0.89 2.49,1.1 5.83,0.93 4.6,-0.24 5.37,-0.19 5.73,2.91 0.2,1.74 -1.36,6.56 -4,12.27 -3,6.69 -4.21,10.51 -4.27,14.07 l -0.07,4.48 4.23,-0.15 c 4,-0.13 4.7,0.55 4.93,0.77 a 1,1 0 0 1 0.33,0.73 c 0,0.8 -1.56,6.93 -3,12.3 -1,3.77 -4.15,15.27 -2.45,17.51 a 0.9,0.9 0 0 0 0.77,0.35 4.28,4.28 0 0 0 2.55,-1 2.18,2.18 0 0 1 2.42,-0.66 c 1.07,0.44 1.73,1.79 1.73,3.53 a 37.47,37.47 0 0 1 -2.07,8.35 c -1.12,3.25 -3.31,11 -4.87,17.36 -1.56,6.36 -5.5,18.79 -8.82,27.61 -12.88,34.33 -23.1,71.75 -23.26,85.19 -0.07,5.57 -1.83,11.9 -4.56,12.43 -1.55,0.29 -3,-1.53 -5.92,-7.26 -2,-4 -7.15,-12.43 -11.42,-18.76 -7.38,-10.93 -9.29,-14.4 -12.05,-21.86 -2.35,-6.32 -21.54,-21.33 -35.41,-27.69 -12.09,-5.54 -24.45,-2.58 -30.78,7.38 C 84.47,445 83,451.42 83,464.84 c 0,13.77 1.83,23.3 7,36.42 6.17,15.6 9.65,21 28.65,44.42 4.86,6 12.94,16.9 18,24.31 5.06,7.41 11.92,16.29 15.3,19.83 6,6.28 6.12,6.27 9.75,5.78 7.07,-1 12.75,-7.29 13.48,-15.08 0.4,-4.12 0.06,-5.11 -3.58,-10.56 -6,-9 -15,-17.85 -20.41,-20.17 -4.44,-1.91 -19.35,-13.58 -22.78,-17.85 -0.3,-0.37 -0.33,-0.67 -0.09,-0.91 0.24,-0.24 0.55,-0.53 6.26,4.28 3.67,3.09 8.31,6.36 10.12,7.13 l 6.71,2.82 c 4.81,2 9.46,6.23 16.05,14.52 7.07,8.9 11.51,16.71 17,29.87 a 173.67,173.67 0 0 0 8.19,16.94 c 38.88,66.94 138.07,118.74 258.86,135.18 8.31,1.12 17.05,2.23 19.49,2.44 z m 16.27,-1.66 a 251.94,251.94 0 0 1 -31.38,-1.75 609.73,609.73 0 0 1 -65.56,-12.63 c -48.05,-12.19 -92,-30.84 -127.17,-53.93 -35.17,-23.09 -60.64,-50.11 -73.66,-78.09 l -7.93,-17 c -8.14,-17.5 -22.44,-34.16 -31.22,-36.37 -5,-1.26 -11.25,-5.68 -21.5,-15.25 -4.52,-4.22 -6.48,-4.53 -7.24,-4.33 a 1.33,1.33 0 0 0 -0.89,1 c -0.93,2.82 19.23,22.53 29,27.15 9.11,4.34 23.78,21.75 23.78,28.22 0,6.31 -6.89,14.35 -12.28,14.35 -3.9,0 -10.69,-7.33 -22,-23.79 -8.79,-12.76 -13.72,-19.24 -29.33,-38.56 -17.27,-21.39 -26.19,-46.31 -25.1,-70.17 0.59,-13 3.12,-20.32 9,-26.24 a 20.31,20.31 0 0 1 15.42,-6.23 v 0 c 8.18,0 35.51,17 42.4,26.35 a 40.94,40.94 0 0 1 4.33,8.37 c 1,2.67 5.43,10.26 9.91,16.93 4.48,6.67 9.72,15.24 11.62,19 2.73,5.41 5.48,8.37 7.66,8.29 1.79,-0.05 3.06,-2.15 3.81,-3.9 0.75,-1.75 1.9,-7.88 2.51,-13.4 2,-18 11.17,-50.68 22.79,-81.36 3,-8 7,-20.3 8.86,-27.45 1.86,-7.15 4.35,-16.19 5.55,-20.1 1.86,-6.06 2,-10.21 0.43,-11.69 -0.9,-0.85 -2.43,-0.87 -4.53,-0.07 -1.44,0.55 -2.25,0.74 -2.7,0.31 a 1.15,1.15 0 0 1 -0.11,-1.22 c 2.37,-6.74 6.82,-27.38 6.45,-28.88 -0.4,-1 -0.79,-1.33 -3.86,-0.76 -2.07,0.39 -4.2,0.78 -4.76,0.87 a 1.12,1.12 0 0 1 -1.1,-0.41 c -1.41,-1.84 1.86,-9.83 3.93,-14.43 5,-11.16 5.82,-15.09 3.72,-18.29 -1.34,-2.06 -1.79,-2.3 -6.41,-2 l -5.18,0.31 a 0.49,0.49 0 0 1 -0.38,-0.14 0.45,0.45 0 0 1 -0.15,-0.38 l 0.2,-5.05 c 0.57,-14.58 20.86,-52.67 42.56,-79.91 8.63,-10.85 24,-25.5 34.94,-33.37 14.24,-10.23 33.88,-21.45 42,-24 12.54,-3.95 26.84,-5.79 45,-5.79 h 0.3 c 20.26,0 29.71,1.57 48.16,7.86 a 518.74,518.74 0 0 1 90,41.22 c 11.25,6.45 20.17,11 21.14,11.08 0.54,0 0.82,-0.05 0.94,-0.18 0.31,-0.37 0.12,-1.93 -0.1,-3.5 a 72.88,72.88 0 0 0 -3.64,-12 c -0.13,-0.33 -3.13,-8.09 -2.78,-9.12 a 0.73,0.73 0 0 1 0.5,-0.48 c 2.14,-0.65 14.83,8.41 22.85,14.65 13.47,10.48 39,35.24 48.74,47.31 26.36,32.58 43.72,71.1 53.09,117.76 5.6,27.9 4.61,37.69 -7.53,74.87 -11,33.59 -11.23,36.05 -7.18,65.66 2.48,18.06 2.2,48.89 -0.6,67.32 -2.44,16.08 -5.88,29 -10.21,38.3 -5.15,11.1 -33.84,51.29 -50.32,70.5 -6.06,6.99 -9.17,11.99 -16.67,26.79 -10.83,21.37 -15.49,28.44 -21.69,32.89 -5.7,4.1 -19.38,10.49 -27.09,12.66 v 0 c -5.17,1.46 -16.78,2.2 -29.32,2.2 z M 122,522.11 c 1.73,0 4.27,1.56 7.57,4.64 10.12,9.44 16.22,13.79 21.06,15 9,2.27 23.64,19.18 31.89,36.92 l 7.93,17.05 c 26.26,56.43 103,106.81 200.17,131.47 A 610,610 0 0 0 456,739.81 c 18.57,2.51 50.69,2.28 60.3,-0.42 7.63,-2.15 21.14,-8.46 26.78,-12.51 6,-4.34 10.64,-11.33 21.37,-32.53 7.56,-14.9 10.7,-20 16.82,-27.1 16.44,-19.16 45,-59.22 50.17,-70.27 4.29,-9.25 7.7,-22 10.13,-38 2.79,-18.35 3.06,-49.05 0.6,-67 -4.08,-29.82 -3.81,-32.3 7.22,-66.1 12.07,-37 13.05,-46.69 7.5,-74.36 -9.33,-46.5 -26.63,-84.88 -52.88,-117.33 -9.54,-11.79 -35.42,-36.91 -48.59,-47.16 -11.87,-9.24 -20.13,-14.25 -21.77,-14.47 a 61.26,61.26 0 0 0 2.75,8.27 74.82,74.82 0 0 1 3.7,12.26 c 0.37,2.62 0.41,3.67 -0.14,4.29 a 2.11,2.11 0 0 1 -1.69,0.53 c -1.35,0 -12.16,-5.78 -21.64,-11.21 a 516.44,516.44 0 0 0 -89.86,-41.14 c -18.32,-6.25 -27.71,-7.79 -47.84,-7.81 h -0.31 c -18,0 -32.22,1.83 -44.66,5.75 -8.06,2.54 -27.56,13.69 -41.74,23.87 -10.9,7.82 -26.16,22.4 -34.74,33.18 -21.21,26.63 -41.78,65.18 -42.35,79.33 l -0.17,4.5 4.63,-0.28 c 4.58,-0.28 5.62,-0.11 7.31,2.47 2.33,3.56 1.55,7.7 -3.65,19.25 -4.19,9.31 -4.48,12.84 -4,13.41 0,0 0,0 0.15,0 0.55,-0.09 2.68,-0.48 4.73,-0.86 3.06,-0.57 4.28,-0.44 5,1.4 0.72,1.84 -4.5,24 -6.45,29.55 a 0.83,0.83 0 0 1 0,0.12 8,8 0 0 0 1.55,-0.48 c 2.49,-0.94 4.37,-0.85 5.57,0.28 1.93,1.8 1.88,6.08 -0.16,12.71 -1.19,3.9 -3.68,12.9 -5.54,20.06 -1.86,7.16 -5.85,19.54 -8.88,27.55 -11.59,30.61 -20.73,63.21 -22.73,81.12 -0.64,5.7 -1.8,11.84 -2.59,13.68 -1.25,2.94 -2.84,4.45 -4.7,4.51 -2.68,0.06 -5.59,-2.89 -8.58,-8.85 -1.89,-3.75 -7.08,-12.25 -11.56,-18.92 -4.48,-6.67 -9,-14.41 -10,-17.15 a 39.17,39.17 0 0 0 -4.2,-8.11 c -6.6,-9 -33.8,-25.95 -41.59,-25.95 v 0 c -6.16,0 -10.55,1.79 -14.71,5.94 -5.72,5.72 -8.17,12.89 -8.74,25.58 -1.08,23.61 7.76,48.29 24.88,69.49 15.62,19.34 20.57,25.84 29.37,38.62 10.83,15.72 17.77,23.36 21.21,23.36 4.85,0 11.28,-7.61 11.28,-13.35 0,-6.08 -14.53,-23.18 -23.21,-27.31 -9.12,-4.34 -30.81,-24.35 -29.46,-28.38 a 2.23,2.23 0 0 1 1.58,-1.62 2.35,2.35 0 0 1 0.53,-0.11 z m 350.7,121.57 a 191.67,191.67 0 0 1 -19.26,-0.94 l 0.06,-0.5 -0.06,0.5 c -10.25,-1.06 -13.82,-2.1 -15.29,-4.46 a 2.4,2.4 0 0 1 -0.44,-2.43 c 1,-1.76 5.47,-2 26.49,-1.41 l 23.57,0.67 5,-2.63 c 4.45,-2.33 7,-3 8.61,-2.07 1.11,0.61 1.71,1.91 1.89,4.08 0.26,3.17 -0.21,4.35 -2.31,5.72 -3.33,2.19 -15.12,3.47 -28.28,3.47 z m -23.76,-8.54 c -6.2,0 -9.84,0.3 -10.36,1.21 -0.15,0.26 0,0.71 0.42,1.4 1.25,2 4.79,3 14.55,4 v 0 c 18.5,1.91 42.17,0.71 46.89,-2.38 1.76,-1.15 2.1,-2 1.86,-4.8 -0.15,-1.81 -0.58,-2.85 -1.37,-3.29 -1.24,-0.68 -3.61,0 -7.67,2.08 l -5.14,2.7 a 0.79,0.79 0 0 1 -0.25,0.05 l -23.69,-0.67 c -6.08,-0.17 -11.18,-0.3 -15.26,-0.3 z m 20.47,5.56 a 152.26,152.26 0 0 1 -15.49,-0.51 c -1.39,-0.21 -4.47,-0.63 -6.86,-0.94 -3,-0.39 -3.75,-0.86 -4,-1.44 a 1,1 0 0 1 0.3,-1 c 0.61,-0.61 3.06,-1 16.71,0.07 18.95,1.5 29.42,0.93 34,-1.87 2.42,-1.5 5.46,-2.68 6.79,-1.94 a 1.16,1.16 0 0 1 0.62,1.07 c 0,2.54 -3.17,4.71 -8.29,5.67 l -0.09,-0.49 0.09,0.49 c -2.96,0.57 -14.02,0.89 -23.8,0.89 z m -25.29,-3.17 a 8.33,8.33 0 0 0 3.07,0.73 c 2.4,0.31 5.48,0.73 6.88,0.94 5.57,0.84 34,0.58 38.95,-0.36 4.54,-0.85 7.47,-2.69 7.47,-4.69 a 0.19,0.19 0 0 0 -0.1,-0.2 c -0.57,-0.31 -2.81,0.07 -5.79,1.92 -4.72,2.92 -15.38,3.54 -34.56,2 -12.83,-1.01 -15.5,-0.65 -15.94,-0.34 z m 88.69,-16.85 a 56.89,56.89 0 0 1 -8.78,-1 119,119 0 0 1 -14.08,-3.79 c -4.7,-1.58 -10.36,-3.44 -12.61,-4.16 -2.82,-0.9 -17.51,-1.41 -52.4,-1.83 -44.59,-0.54 -48.93,-0.74 -51.52,-2.44 a 5.52,5.52 0 0 1 -2.83,-4 4.73,4.73 0 0 1 1.82,-3.82 c 3.31,-3 12.88,-6.84 17.06,-6.85 h 0.06 c 3.49,0 4.79,0.7 8.08,4.3 l 3.62,4 7,-0.53 c 4.43,-0.33 12,-2.1 19.71,-4.62 6.22,-2 13.59,-4.12 15.16,-4.12 1.57,0 4.64,1.12 7.32,2.55 4.17,2.22 5.5,2.4 15.75,2.19 l 11.32,-0.24 a 0.45,0.45 0 0 1 0.31,0.1 l 12.51,8.9 9.49,-0.27 c 5.85,-0.17 10.94,0.21 12.68,0.93 3.43,1.42 6,5.8 6,10.18 a 4.1,4.1 0 0 1 -1.24,3.38 c -0.89,0.77 -2.24,1.14 -4.45,1.14 z m -8.62,-2 c 7.52,1.25 11,1.27 12.41,0.08 a 3.16,3.16 0 0 0 0.89,-2.62 c 0,-4 -2.32,-8 -5.4,-9.26 -1.6,-0.66 -6.65,-1 -12.27,-0.85 l -9.65,0.27 a 0.54,0.54 0 0 1 -0.31,-0.09 l -12.52,-8.9 -11.16,0.23 c -10.5,0.22 -11.86,0 -16.24,-2.31 -2.47,-1.32 -5.61,-2.43 -6.85,-2.43 -1.24,0 -7.37,1.64 -14.85,4.08 -7.8,2.53 -15.44,4.32 -19.94,4.66 l -7.24,0.55 a 0.54,0.54 0 0 1 -0.4,-0.16 l -3.79,-4.15 c -3.13,-3.42 -4.15,-4 -7.4,-4 -3.92,0 -13.27,3.77 -16.39,6.59 a 3.76,3.76 0 0 0 -1.49,3 4.54,4.54 0 0 0 2.38,3.21 c 2.35,1.54 7.11,1.75 51,2.28 35.45,0.43 49.73,0.94 52.7,1.88 2.25,0.72 7.91,2.59 12.62,4.16 a 116.36,116.36 0 0 0 13.92,3.75 z m 7.77,-1 h -0.73 c -5.22,-0.12 -14.27,-2.26 -24.81,-5.88 -13.18,-4.52 -20.58,-5.06 -65.92,-4.79 -37.57,0.22 -45,-0.15 -46.55,-2.34 a 1.89,1.89 0 0 1 -0.18,-1.83 c 0.6,-1.83 10.72,-6.72 14.32,-7.5 2.56,-0.56 3.95,0.33 7.06,3.48 2.37,2.4 5.07,4.07 7.23,4.47 4.83,0.91 16,-1.15 27.8,-5.12 11.8,-3.97 14.25,-4.14 18.9,-1.31 4.2,2.56 10.13,3.31 16.7,2.11 6.41,-1.17 11.12,-0.15 15.26,3.3 5.86,4.89 8.85,5.77 17.77,5.22 8,-0.5 12.42,0.21 14.73,2.39 a 6.84,6.84 0 0 1 2,5.31 2.45,2.45 0 0 1 -0.55,1.82 c -0.62,0.62 -1.53,0.76 -3.05,0.76 z M 456.6,606 c 31.43,0 38.56,0.94 50.12,4.91 10.45,3.59 19.39,5.71 24.52,5.82 1.51,0 2.61,0 3,-0.39 0.18,-0.17 0.25,-0.5 0.25,-1.1 a 5.9,5.9 0 0 0 -1.63,-4.59 c -2.07,-1.94 -6.38,-2.59 -14,-2.12 -9.15,0.57 -12.42,-0.39 -18.48,-5.44 -3.94,-3.29 -8.25,-4.21 -14.43,-3.08 -6.81,1.24 -13,0.44 -17.4,-2.25 -4.4,-2.69 -6.54,-2.48 -18.07,1.4 -12.12,4.09 -23.23,6.11 -28.3,5.16 -2.38,-0.44 -5.2,-2.17 -7.75,-4.75 -3.24,-3.27 -4.22,-3.62 -6.14,-3.21 -4.29,0.94 -13.18,5.76 -13.58,6.85 -0.18,0.53 -0.08,0.77 0,0.93 1.38,1.88 12.08,2.12 45.74,1.92 6.03,0 11.37,-0.06 16.15,-0.06 z m 73.49,-11.34 c -0.91,0 -2,-0.62 -4.39,-2 v 0 c -4.13,-2.39 -8.84,-8.38 -7.84,-11 a 2.74,2.74 0 0 1 2,-1.74 c 2.16,-0.51 5.4,0.88 8.46,3.65 3.32,3 5.19,6.08 5,8.24 a 2.58,2.58 0 0 1 -1.2,2 3.94,3.94 0 0 1 -2.03,0.89 z m -3.89,-2.88 c 3.8,2.2 3.8,2.2 5.39,1.19 a 1.54,1.54 0 0 0 0.74,-1.26 c 0.15,-1.79 -1.68,-4.7 -4.68,-7.41 -2.78,-2.51 -5.74,-3.84 -7.56,-3.41 A 1.72,1.72 0 0 0 518.8,582 c -0.67,1.73 3.26,7.38 7.4,9.78 z m -9.36,2 c -1.63,0 -4.2,-1.64 -6.85,-4.43 -6.21,-6.52 -8.52,-10 -8.52,-12.73 0,-1.84 0.92,-2.48 1.47,-2.7 1.62,-0.64 4.16,0.59 6.6,3.21 3.22,3.44 8.91,12.61 8.93,14.87 a 1.61,1.61 0 0 1 -0.94,1.66 1.92,1.92 0 0 1 -0.69,0.21 z m -13,-19 a 1.62,1.62 0 0 0 -0.57,0.09 c -0.69,0.27 -0.84,1.11 -0.84,1.77 0,2.44 2.31,5.81 8.24,12 3.16,3.32 5.68,4.38 6.44,4.07 0.08,0 0.32,-0.13 0.32,-0.72 0,-1.67 -5.28,-10.58 -8.66,-14.2 -1.98,-2.06 -3.77,-2.94 -4.89,-2.94 z m 25.59,17 c -1.25,0 -8.47,-7.11 -8.48,-8.36 a 0.59,0.59 0 0 1 0.59,-0.61 v 0 c 1.89,0 6.61,4 7.85,6.32 v 0 c 0.42,0.79 0.86,1.84 0.55,2.35 a 0.61,0.61 0 0 1 -0.47,0.36 z m -7.06,-7.74 a 47.62,47.62 0 0 0 6.58,6.46 7.81,7.81 0 0 0 -0.41,-0.9 v 0 a 18,18 0 0 0 -6.13,-5.5 z m -96.33,6.67 a 2.26,2.26 0 0 1 -2.2,-1.72 v 0 c -0.61,-1.59 0.64,-3.92 1.79,-5.6 2.86,-4.16 8.05,-8.61 11.24,-8.61 1.6,0 2.22,0.68 2.45,1.25 1,2.39 -2.95,6.83 -5.38,9.26 -3.67,3.77 -6.15,5.48 -7.86,5.48 z m 10.83,-14.93 c -2.75,0 -7.76,4.32 -10.41,8.17 -1.4,2 -2,3.78 -1.69,4.68 v 0 c 0.24,0.62 0.56,1 1,1 1.3,0.27 3.81,-1.44 7.47,-5.1 4.46,-4.46 5.57,-7.19 5.17,-8.17 -0.15,-0.3 -0.66,-0.52 -1.5,-0.52 z m -28.36,14 a 2,2 0 0 1 -1.4,-0.59 2.34,2.34 0 0 1 -0.65,-1.66 c 0,-1.43 3.68,-5.81 6.13,-8.41 4.65,-4.93 6.75,-6.42 8.66,-6.15 a 3.3,3.3 0 0 1 2.85,2.15 c 0.65,1.86 -0.29,4.41 -2.44,6.65 -3.06,3.3 -10.52,8.07 -13.11,8.07 z M 420.88,574 c -1.46,0 -3.5,1.61 -7.52,5.87 -3.62,3.82 -5.85,7.08 -5.86,7.73 a 1.34,1.34 0 0 0 0.36,0.94 1,1 0 0 0 0.69,0.3 c 1.94,0 9.08,-4.2 12.43,-7.7 1.86,-1.94 2.73,-4.15 2.22,-5.63 a 2.34,2.34 0 0 0 -2.05,-1.49 z m 6.19,13.84 a 0.55,0.55 0 0 1 -0.49,-0.32 c -0.12,-0.29 -0.27,-0.63 3.54,-4.53 1.85,-1.89 4.17,-4.15 4.76,-4.15 a 0.56,0.56 0 0 1 0.49,0.33 c 0.13,0.29 0.27,0.63 -3.54,4.52 v 0 c -1.83,1.9 -4.17,4.15 -4.76,4.15 z m 4.41,-4.5 z m 80.2,3.45 c -0.4,0 -1.22,-0.61 -3.66,-3.81 -2.44,-3.2 -2.1,-3.38 -1.85,-3.66 a 0.6,0.6 0 0 1 0.84,0 18.41,18.41 0 0 1 3.39,3.8 c 2.12,3 2,3.29 1.58,3.59 a 0.48,0.48 0 0 1 -0.3,0.08 z m -98.09,-2.53 a 0.47,0.47 0 0 1 -0.37,-0.2 c -0.39,-0.45 -0.29,-0.6 2.83,-3.88 0.86,-0.9 3.73,-3.85 4.67,-3.87 a 1.16,1.16 0 0 1 0.44,0.17 c 0.57,0.58 -0.08,1.82 -0.82,2.71 v 0 a 27.8,27.8 0 0 1 -4.49,3.78 c -1.32,0.89 -1.85,1.29 -2.26,1.29 z m 6.55,-6.55 a 31.89,31.89 0 0 0 -3.37,3.16 l -0.6,0.64 a 23.8,23.8 0 0 0 3.4,-3 v 0 a 4.46,4.46 0 0 0 0.57,-0.8 z m -254.87,-30 c -0.91,0 -2.11,-0.68 -4,-2 v 0 c -1.66,-1.1 -7,-5.94 -11.87,-10.8 -15.26,-15.17 -17.18,-23.05 -9,-36.65 2.45,-4 4.09,-8 4.09,-9.11 0,-4.14 -13.64,-24.22 -15.41,-24.39 -1.72,0 -5.49,4 -7.6,8.84 -1.59,3.7 -2.36,7.93 -2.76,15.1 -0.47,8.64 -1,8.73 -1.52,8.8 a 0.62,0.62 0 0 1 -0.66,-0.36 c -0.07,1.12 -0.23,1.67 -0.77,1.69 -0.54,0.02 -1.11,0.06 -2.37,-9.25 -1.5,-11.18 -0.07,-17.84 5.26,-24.6 2.37,-3 3.83,-5.61 3.83,-6.16 0,-0.55 -2.31,-3.66 -5.87,-7.3 -3.12,-3.18 -5.1,-5.14 -6.34,-4.91 -1.24,0.23 -2.38,2.67 -4.16,6.64 a 75.34,75.34 0 0 0 -6.3,25.8 c -0.53,6.92 -1.31,8.42 -2.32,8.53 -1.01,0.11 -1.91,-1 -3.58,-6.42 -2.85,-9.31 -2.4,-16.76 1.6,-26.58 2.17,-5.33 3.26,-9.69 3.34,-13.33 0.12,-5.26 0.26,-5.95 3.41,-6.31 8,-0.92 23.15,11.56 37.73,31 9.86,13.15 13.57,19.49 14.2,24.21 0.47,3.44 0,4.82 -2.67,8.21 -8.27,10.44 -6.49,19.3 6.79,33.87 7.93,8.7 9.65,11.41 8.74,13.77 a 2.34,2.34 0 0 1 -1.29,1.56 1.62,1.62 0 0 1 -0.5,0.18 z M 161.78,545 c 1.8,1.18 3.11,1.94 3.67,1.75 0.23,-0.07 0.44,-0.37 0.67,-1 0.71,-1.86 -1.13,-4.59 -8.55,-12.74 -13.7,-15 -15.49,-24.23 -6.83,-35.16 2.55,-3.22 2.89,-4.26 2.46,-7.46 -0.6,-4.53 -4.27,-10.74 -14,-23.74 -14.2,-18.9 -29.31,-31.52 -36.83,-30.65 -2.36,0.27 -2.4,0.27 -2.52,5.34 -0.08,3.76 -1.2,8.23 -3.41,13.67 -3.9,9.59 -4.35,16.85 -1.58,25.92 1.65,5.4 2.44,5.7 2.53,5.71 0.09,0.01 0.9,-0.71 1.43,-7.6 a 76.06,76.06 0 0 1 6.38,-26.14 c 2,-4.52 3.17,-6.9 4.9,-7.21 1.73,-0.31 3.67,1.57 7.22,5.19 2.48,2.53 6.16,6.75 6.16,8 0,1.09 -2.08,4.31 -4,6.78 -5.15,6.51 -6.52,13 -5.06,23.85 0.48,3.53 0.88,5.73 1.17,7 0,-1.16 0.09,-1.56 0.57,-1.65 0.48,-0.09 0.59,0.16 0.93,1 a 62,62 0 0 0 0.66,-7.15 c 0.41,-7.29 1.2,-11.62 2.84,-15.43 1.92,-4.47 5.9,-9.45 8.53,-9.45 3.2,0 16.4,21.86 16.4,25.39 0,1.65 -2.15,6.19 -4.23,9.63 -8,13.22 -6.18,20.51 8.81,35.42 4.85,4.82 10.1,9.61 11.72,10.68 z m 346,1.86 a 3.9,3.9 0 0 1 -1.17,-0.16 2.64,2.64 0 0 1 -1.77,-1.64 v 0 c -0.87,-2.27 1.65,-6.1 6.42,-9.77 8,-6.16 10.53,-8.76 12.8,-13.26 3,-6 3,-9.3 0,-13.78 A 53.65,53.65 0 0 1 516,490.79 c -1.24,-4.76 -1.33,-7.61 -0.26,-9 a 2.57,2.57 0 0 1 2.14,-1 c 2.93,0 6,3.85 10,12.48 11,23.77 8.52,35.67 -10.15,49 -4.13,2.99 -7.58,4.55 -9.92,4.55 z m 10.06,-65 a 1.58,1.58 0 0 0 -1.35,0.57 c -0.84,1.08 -0.69,3.82 0.43,8.13 a 52.47,52.47 0 0 0 7.93,17.1 c 3.26,4.8 3.28,8.54 0.11,14.8 -2.36,4.66 -4.93,7.33 -13.09,13.6 -4.77,3.67 -6.68,7.11 -6.1,8.62 v 0 a 1.67,1.67 0 0 0 1.13,1.05 c 1.9,0.57 5.72,-1 10.22,-4.21 18.15,-13 20.54,-24.56 9.82,-47.76 -3.72,-8.14 -6.61,-11.92 -9.07,-11.92 z m -9.42,62.5 a 0.8,0.8 0 0 1 -0.48,-0.13 c -0.2,-0.13 -0.49,-0.46 -0.25,-1.17 0.35,-1.06 5,-5.15 8,-7.64 9.33,-7.66 13,-13.36 13.1,-20.31 0.06,-4.3 -0.43,-5.84 -3.09,-9.71 -3.45,-5 -8.29,-16.68 -8.23,-19.82 0,-0.9 0.41,-1.16 0.74,-1.22 1.85,-0.32 6,7.13 8.26,12.66 a 102.65,102.65 0 0 1 4.68,14.75 l 1.59,7.32 a 0.53,0.53 0 0 1 0,0.33 L 530,525 c -1.92,3.93 -4.81,7.4 -9.35,11.25 -1.65,1.41 -9.65,8.09 -12.2,8.09 z m 0.18,-0.81 z m 9.9,-58.16 a 1.06,1.06 0 0 0 0,0.21 c -0.06,2.94 4.76,14.44 8,19.23 2.75,4 3.33,5.83 3.27,10.29 -0.11,7.29 -3.88,13.2 -13.46,21.07 -4.45,3.66 -7.48,6.65 -7.7,7.19 1.09,-0.18 5.13,-2.62 11.34,-7.89 v 0 c 4.44,-3.76 7.24,-7.13 9.1,-10.93 l 2.66,-5.43 -1.5,-7.13 a 100.45,100.45 0 0 0 -4.63,-14.59 c -2.83,-6.8 -6.06,-11.48 -7.05,-12.04 z m -357.85,56 h -0.13 c -2.41,-0.42 -18.81,-18.81 -20.42,-22.23 -2.81,-6 -1.87,-12.2 3,-19.63 5.18,-8 5.14,-11.46 -0.23,-20.74 -4.12,-7.1 -3.92,-7.45 -3.77,-7.7 a 0.53,0.53 0 0 1 0.44,-0.26 c 1.45,0 10.22,14.77 11.32,17.44 1.55,3.74 1.47,4.07 -2,9 -8.38,11.73 -6.45,22.23 6.65,36.23 6.47,6.92 5.93,7.46 5.65,7.74 a 0.61,0.61 0 0 1 -0.48,0.17 z m -18.39,-65.66 q 0.63,1.14 1.44,2.55 c 5.57,9.61 5.6,13.48 0.2,21.78 -4.62,7.12 -5.54,13.05 -2.9,18.66 1.57,3.33 13.64,16.45 18.13,20.49 -0.94,-1.19 -2.44,-3 -4.41,-5.06 -13.32,-14.23 -15.34,-25.45 -6.74,-37.49 3.32,-4.65 3.32,-4.65 1.93,-8 -0.91,-2.33 -4.82,-8.66 -7.62,-12.91 z m -2.92,-3.95 z m 443.08,14.8 c -3.52,0 -7,-1.34 -12.81,-4.3 -14,-7.12 -16.37,-11.56 -14.29,-26.4 2.47,-17.54 4.4,-20.46 13,-19.45 4.28,0.51 5.35,0.17 6.13,-0.76 a 3.12,3.12 0 0 0 0.31,-3.49 c -1.23,-2.63 -5.34,-5.35 -10.09,-5.35 -5.63,0 -10.21,-2.63 -10.21,-5.86 0,-1.88 1,-3.63 2.91,-5.19 6.86,-5.57 24.45,-7.55 39.2,-4.43 15.36,3.25 31.12,13.49 35.88,23.33 1.72,3.55 2.09,6 1.14,7.53 -0.67,1.07 -2,1.61 -3.89,1.61 -2.66,0 -4.54,-1.23 -9.16,-6 l -4.9,-5 -0.57,7.62 c -1.74,23 -10.6,39.1 -24.31,44.23 a 23.69,23.69 0 0 1 -8.31,1.93 z m -12.36,-5.19 c 9.67,4.93 12.52,5.26 20.33,2.33 13.33,-5 22,-20.79 23.66,-43.36 l 0.66,-8.73 a 0.47,0.47 0 0 1 0.33,-0.43 0.5,0.5 0 0 1 0.53,0.12 l 5.66,5.83 c 4.44,4.56 6.1,5.67 8.45,5.67 1.54,0 2.57,-0.38 3,-1.14 0.75,-1.19 0.35,-3.4 -1.19,-6.57 -4.64,-9.58 -20.1,-19.59 -35.19,-22.78 -14.49,-3.07 -31.7,-1.17 -38.36,4.22 -1.68,1.37 -2.54,2.85 -2.54,4.42 0,2.58 4.3,4.85 9.21,4.86 5.15,0 9.63,3 11,5.93 a 4.08,4.08 0 0 1 -0.45,4.54 c -1.14,1.38 -2.72,1.63 -7,1.13 -7.83,-0.92 -9.49,1.68 -11.87,18.59 -1.97,14.43 0.21,18.46 13.8,25.39 z m 12.11,3.14 c -3.44,0 -19.59,-9.08 -22,-12 -2.21,-2.63 -2.69,-4.27 -2.69,-9.24 0,-6.29 2.33,-19 4.09,-22.27 1.08,-2 2.34,-2.09 7.3,-1.57 3.82,0.4 5.95,0.1 7.15,-1 1,-0.91 1.46,-2.5 1.46,-5.15 0,-4.81 -3.85,-8.18 -10.31,-9 -6.46,-0.82 -8.5,-1.25 -9.25,-2.28 a 2,2 0 0 1 -0.24,-1.6 c 0.92,-5 18.17,-9.23 28.29,-8.09 19.88,2.24 37.36,11.53 43.5,23.11 2.43,4.58 2,5.67 1.37,6.11 -1.84,1.26 -7.52,-4.73 -10.75,-8.41 -3.23,-3.68 -6.17,-6.25 -6.75,-6.35 -0.86,0 -0.86,6 -0.86,8.84 0,22.57 -9.94,42.22 -23.64,46.72 v 0 c -2.94,1 -5.68,1.89 -6.25,2.1 a 1.35,1.35 0 0 1 -0.39,0.1 z M 565.09,440.2 c -1.77,0 -2.19,0.4 -2.68,1.31 -1.67,3.12 -4,15.75 -4,21.8 0,4.72 0.42,6.17 2.46,8.6 2.81,3.33 19.65,12.12 21.3,11.63 0.58,-0.21 3.34,-1.14 6.28,-2.11 v 0 c 13.31,-4.37 23,-23.62 23,-45.77 0,-7.5 0.26,-9.84 1.88,-9.84 1.27,0 5.45,4.38 7.48,6.69 6.63,7.56 9.12,8.43 9.44,8.24 0,0 0.5,-0.68 -1.69,-4.81 -6,-11.31 -23.17,-20.38 -42.73,-22.59 -10.94,-1.23 -26.5,3.52 -27.2,7.28 -0.09,0.52 0,0.71 0.07,0.84 0.52,0.71 3.07,1.15 8.56,1.86 6.91,0.9 11.19,4.73 11.19,10 0,3 -0.55,4.78 -1.79,5.89 -1.43,1.29 -3.8,1.66 -7.92,1.23 -1.61,-0.14 -2.74,-0.23 -3.62,-0.23 z M 96.3,478 c -0.59,0 -0.73,-0.69 -1.1,-2.46 -1.33,-6.3 -0.74,-10.33 2.88,-19.58 2.27,-5.82 3.47,-10.45 3.37,-13 -0.08,-2 -0.13,-4.41 -0.06,-4.89 a 0.76,0.76 0 0 1 0.47,-0.61 c 1.5,-0.66 7.57,2.24 10.94,4.53 a 86.29,86.29 0 0 1 9.57,8.19 c 2.75,2.71 6.17,6.5 8.45,9.15 4.9,5.67 4.7,5.9 4.35,6.27 -0.35,0.37 -1,0 -1.64,-0.64 a 8.83,8.83 0 0 0 -5.28,-2.13 c -1.56,0 -2.49,-0.11 -3,-0.7 a 2.15,2.15 0 0 1 -0.11,-1.88 c 0.62,-2.38 -2.71,-7.52 -8.11,-12.49 -3.2,-2.95 -5.63,-4.07 -7.68,-3.52 -3,0.8 -5.6,5.33 -8.49,14.68 a 102.21,102.21 0 0 0 -3.25,14 c -0.61,4.76 -0.69,5.09 -1.33,5.12 z m 6.07,-39.68 c 0,0.58 0,2.42 0.08,4.58 0.1,2.71 -1.12,7.48 -3.44,13.43 -3.57,9.13 -4.13,12.86 -2.83,19 l 0.08,0.41 c 0.14,-0.9 0.29,-2 0.41,-3 A 104.91,104.91 0 0 1 100,458.63 l 0.48,0.15 -0.48,-0.15 c 3,-9.84 5.8,-14.43 9.19,-15.35 a 6.61,6.61 0 0 1 5.16,1.08 c -0.78,-0.62 -1.49,-1.15 -2.06,-1.54 -4.18,-2.82 -8.93,-4.6 -9.92,-4.47 z m 18.3,11.58 c 4,4.32 6.09,8.28 5.49,10.58 -0.14,0.55 -0.17,0.89 -0.07,1 0.24,0.31 1.64,0.31 2.16,0.31 a 9.54,9.54 0 0 1 4.51,1.36 c -2.49,-3.09 -7.44,-8.7 -11.09,-12.3 z m 18.07,20.92 c -0.42,0 -1.05,-0.37 -2.29,-2 -1,-1.24 -1.2,-1.54 -0.83,-1.91 0.37,-0.37 0.67,-0.14 1.91,0.83 1.24,0.97 1.95,1.73 1.95,2.15 a 0.79,0.79 0 0 1 -0.5,0.84 0.61,0.61 0 0 1 -0.24,0.12 z M 348,448.49 c -5.61,0 -10.07,-0.11 -11.08,-0.3 -5.93,-1.11 -12.4,-3.74 -15.4,-6.26 -5.05,-4.25 -9,-13.74 -9,-21.59 0,-10 3.92,-21.12 8.19,-23.41 3.07,-1.64 8.09,-1.3 14.91,1 5,1.69 8.06,1.9 9.62,0.66 1.16,-0.93 1.59,-2.79 1.3,-5.7 -0.3,-3.08 -4.94,-10 -6,-10.05 a 119.71,119.71 0 0 0 -12.7,4.47 c -10.86,4.25 -16.4,5.4 -19.12,4 a 3.48,3.48 0 0 1 -1.8,-2.35 c -1.06,-4.21 1.87,-7.52 10.11,-11.44 a 129.57,129.57 0 0 1 34.28,-10.34 c 8.46,-1.36 11.95,-1.44 20.74,-0.52 12.94,1.37 24.26,4.28 33.63,8.66 9.37,4.38 13.11,8.39 13.23,14.24 0.08,4.14 -0.12,4.76 -3.38,5.08 -2.33,0.22 -5.12,-0.94 -10.32,-4.31 -4.86,-3.15 -8.19,-4.92 -9.8,-4.05 -1.61,0.87 -1.92,4.58 -1.92,10.28 0,10.72 -6.35,34.74 -11.52,43.56 -4,6.79 -8,8 -27,8.32 -2.41,0.04 -4.8,0.05 -6.97,0.05 z M 325.51,396.9 a 9.17,9.17 0 0 0 -4.35,0.92 c -3.93,2.1 -7.66,13.05 -7.67,22.53 0,7.58 3.78,16.73 8.64,20.81 2.83,2.39 9.25,5 14.94,6 v 0 c 1.32,0.25 9.52,0.36 17.9,0.23 18.47,-0.27 22.37,-1.44 26.11,-7.82 5.11,-8.72 11.39,-32.47 11.39,-43.06 0,-6.37 0.39,-10 2.44,-11.16 2.05,-1.16 5.4,0.58 10.82,4.09 5,3.23 7.61,4.35 9.68,4.15 2.56,-0.25 2.56,-0.25 2.48,-4.06 -0.12,-5.47 -3.55,-9.09 -12.66,-13.35 -9.26,-4.34 -20.47,-7.22 -33.31,-8.57 -8.68,-0.92 -12.12,-0.83 -20.47,0.5 a 129,129 0 0 0 -34,10.26 c -7.71,3.67 -10.49,6.65 -9.57,10.3 a 2.45,2.45 0 0 0 1.29,1.7 c 2.37,1.23 8,0 18.29,-4 5.63,-2.2 12.12,-4.54 13.07,-4.54 2.11,0 6.71,8.16 7,11 0.32,3.31 -0.21,5.4 -1.68,6.57 -1.87,1.49 -5.13,1.34 -10.56,-0.49 a 31.71,31.71 0 0 0 -9.78,-2.01 z M 353,446.67 c -11.8,0 -23.1,-2.27 -28.6,-6.12 -3.7,-2.6 -7.54,-9.26 -8.93,-15.5 -1.31,-5.83 -0.08,-13.59 3.28,-20.76 3,-6.35 5.69,-7.29 13.18,-4.56 7.66,2.79 13.55,2.66 16.16,-0.38 2.32,-2.69 1.83,-7.4 -1.37,-13.27 -2.45,-4.49 -2.81,-4.77 -6.43,-5 -2.87,-0.21 -6.73,0.82 -13.77,3.65 -10,4 -14.15,5.06 -15.79,3.95 a 1.91,1.91 0 0 1 -0.79,-1.7 c 0,-4.65 20.95,-13 38.1,-16.5 14.22,-2.93 31.34,-1.47 48.19,4.1 12.53,4.14 19.39,9.26 20.37,15.22 q 0.24,1.5 -0.57,2 c -1,0.66 -3.07,0.21 -9.79,-4.16 -6,-3.91 -9.95,-5.42 -12.06,-4.63 a 3.35,3.35 0 0 0 -1.92,2.48 c -0.37,1.32 -1.16,7.23 -1.71,12.9 -2,20.36 -9.32,41.76 -15.38,44.9 a 41.33,41.33 0 0 1 -9.86,2.53 v 0 A 86.69,86.69 0 0 1 353,446.67 Z m -27.3,-47.41 c -2.74,0 -4.26,1.65 -6,5.46 -3.22,6.87 -4.46,14.58 -3.22,20.11 1.35,6 5,12.43 8.54,14.9 7.22,5.07 24.88,7.31 40.19,5.1 v 0 a 40.73,40.73 0 0 0 9.54,-2.43 c 5.71,-2.95 12.92,-24.39 14.85,-44.1 a 127.89,127.89 0 0 1 1.74,-13.08 4.29,4.29 0 0 1 2.53,-3.14 c 2.49,-0.94 6.49,0.52 13,4.72 6.23,4.06 8.16,4.5 8.69,4.16 0.18,-0.11 0.22,-0.49 0.13,-1 -0.91,-5.57 -7.54,-10.43 -19.7,-14.45 -16.68,-5.51 -33.61,-7 -47.67,-4.06 -18.86,3.89 -37.3,12.18 -37.3,15.52 0,0.56 0.2,0.77 0.35,0.87 1.58,1.07 8.39,-1.45 14.85,-4.05 7.2,-2.9 11.18,-3.94 14.23,-3.71 4,0.29 4.64,0.81 7.23,5.56 3.41,6.25 3.86,11.37 1.25,14.4 -2.9,3.36 -9.19,3.6 -17.27,0.66 a 18.31,18.31 0 0 0 -5.92,-1.44 z m 39.54,46.06 z m 168.61,-35.55 a 2.21,2.21 0 0 1 -1.6,-0.74 v 0 c -3.12,-3.12 1.36,-12 13.32,-26.29 8.95,-10.72 17.48,-18.15 26.07,-22.71 7,-3.71 26.19,-10.37 41.14,-14.25 9.79,-2.54 12.11,-2.82 14.61,-1.79 4.31,1.79 12.5,11.45 16.54,19.51 3.45,6.88 4.31,10.63 2.79,12.14 -1.52,1.51 -4.61,0.73 -10.36,-2.18 -18.29,-9.24 -38.15,-8.51 -60.71,2.24 -13.72,6.54 -24.79,15.13 -32.91,25.53 -5,6.36 -7.1,8.44 -8.76,8.54 z m -0.89,-1.45 a 1.2,1.2 0 0 0 1,0.45 c 1.45,-0.09 4.15,-3.18 8,-8.15 8.22,-10.53 19.41,-19.22 33.27,-25.82 22.86,-10.9 43,-11.63 61.59,-2.23 5.1,2.58 8.19,3.37 9.2,2.36 1.01,-1.01 0.12,-4.81 -3,-11 -3.88,-7.75 -12,-17.35 -16,-19 -2.24,-0.93 -4.46,-0.64 -14,1.83 -14.89,3.87 -34,10.48 -40.92,14.16 -8.48,4.5 -16.9,11.85 -25.77,22.47 -15.17,18.18 -14.9,23.43 -13.38,24.94 z m 2,-3.38 a 0.57,0.57 0 0 1 -0.16,0 0.59,0.59 0 0 1 -0.4,-0.58 c 0,-2.19 8.75,-14.63 14.67,-21.41 15.32,-17.53 25.22,-23.21 55.76,-32 l 0.91,-0.27 c 19.41,-5.58 19.41,-5.58 23.84,-1.71 l 0.2,0.18 c 5.69,5 14.36,18.74 14.5,23 a 1.65,1.65 0 0 1 -0.38,1.26 c -0.49,0.5 -2.15,-0.18 -4.93,-2 -6.06,-4 -18.66,-6.82 -30.1,-6.82 h -0.46 c -17.53,0.12 -38.31,8.13 -54.23,20.92 v 0 A 99.32,99.32 0 0 0 540.65,399 c -4.11,5.34 -5.21,5.94 -5.65,5.94 z m 89,-57.67 c -2.77,0 -7.43,1.34 -17.9,4.35 l -0.92,0.27 c -30.65,8.81 -39.94,14.14 -55.28,31.69 -5.47,6.27 -12.19,15.91 -14,19.52 a 57.12,57.12 0 0 0 3.94,-4.71 100,100 0 0 1 13.76,-13.68 v 0 c 16.33,-13.12 36.84,-21 54.85,-21.14 11.79,-0.06 24.83,2.86 31.12,7 a 17.32,17.32 0 0 0 3.73,2 1.25,1.25 0 0 0 0,-0.38 c -0.13,-3.69 -8.34,-17.18 -14.17,-22.29 l -0.2,-0.17 c -1.69,-1.59 -2.68,-2.46 -4.89,-2.46 z m -201.31,25.57 a 7.91,7.91 0 0 1 -6,-2.56 c -1.74,-1.86 -2.42,-3.65 -1.89,-5 0.32,-0.87 1.25,-1.95 3.83,-2.2 a 7.31,7.31 0 0 1 5.6,1.86 6.71,6.71 0 0 1 2.24,4.94 c 0.04,2.57 -0.82,2.96 -3.78,2.96 z m -5.23,-3.25 a 6.83,6.83 0 0 0 5.23,2.25 c 2.82,0 2.82,-0.3 2.82,-2 a 5.65,5.65 0 0 0 -1.92,-4.2 6.3,6.3 0 0 0 -4.83,-1.61 c -1.61,0.16 -2.67,0.71 -3,1.56 -0.36,1 0.28,2.46 1.7,4 z m 5.64,1.25 c -1.56,0 -4.84,-2.93 -5.4,-4.28 a 0.9,0.9 0 0 1 0.11,-1.05 1.44,1.44 0 0 1 1.38,-0.26 c 1.61,0.34 4.16,2.12 4.74,3.64 v 0 a 1.67,1.67 0 0 1 0,1.54 1,1 0 0 1 -0.83,0.41 z m -4.48,-4.65 c 0.33,0.94 3.42,3.65 4.48,3.65 a 1.66,1.66 0 0 0 -0.1,-0.59 v 0 c -0.41,-1.07 -2.44,-2.54 -3.74,-2.95 a 2.14,2.14 0 0 0 -0.64,-0.11 z m 34.83,-20.43 h -0.27 c -2.08,-0.05 -8.07,-1.88 -13.36,-4.09 -15,-6.27 -28.21,-10.65 -39.26,-13 -14.67,-3.15 -44,-3.16 -64.1,0 -18,2.81 -22.61,2.85 -23.62,0.21 -1.68,-4.37 16.52,-16 34.5,-24.64 9.3,-4.49 10.62,-4.85 17.67,-4.82 23.21,0.09 95.5,31.11 95.5,41 a 4.75,4.75 0 0 1 -1.46,3.47 7.9,7.9 0 0 1 -5.6,1.87 z m -13.24,-5 c 5.1,2.13 11.05,4 13,4 a 7.05,7.05 0 0 0 5.14,-1.66 3.77,3.77 0 0 0 1.16,-2.75 c 0,-4 -15.93,-13.58 -38.76,-23.3 -19.39,-8.26 -44.15,-16.63 -55.74,-16.67 -6.87,0 -8.13,0.32 -17.23,4.72 -21.37,10.32 -35.07,20.61 -34,23.39 0.75,1.93 6,1.74 22.54,-0.85 20.17,-3.15 49.69,-3.14 64.46,0 11.1,2.42 24.37,6.82 39.43,13.11 z m 14,3 H 454 c -1.67,-0.23 -6.62,-2 -18.24,-6.7 -27.22,-10.91 -39.48,-13.42 -65.81,-13.36 a 207.54,207.54 0 0 0 -31.72,2.15 c -7.91,1.17 -16,2 -18.11,1.81 l -3.72,-0.31 a 0.49,0.49 0 0 1 -0.24,-0.9 l 8,-5.71 a 196.86,196.86 0 0 1 20.12,-11.91 c 13.57,-7 18.71,-8 28.95,-6 21.92,4.31 75.17,27 82.58,35.19 1.46,1.62 1.86,2.55 0.54,4.15 v 0 c -0.12,0.15 -1.35,1.59 -2.21,1.59 z m -83.39,-21.07 c 25.92,0 38.32,2.57 65.41,13.43 11.39,4.57 16.44,6.43 18,6.64 a 4.66,4.66 0 0 0 1.44,-1.25 v 0 c 0.76,-0.92 0.92,-1.26 -0.51,-2.84 -7.33,-8.1 -60.23,-30.59 -82,-34.88 -10.07,-2 -14.83,-1 -28.31,5.92 a 195.34,195.34 0 0 0 -20,11.84 l -6.89,4.91 2.35,0.19 c 2,0.17 10.17,-0.66 17.88,-1.8 A 208.28,208.28 0 0 1 370,322.69 Z M 456,341.83 Z M 235.7,164.66 a 1.05,1.05 0 0 1 -0.44,-0.1 c -0.71,-0.34 -0.82,-1.36 -0.39,-3.5 2,-9.91 18.81,-38.65 28.59,-48.81 3.84,-4 7.16,-6 8.86,-5.29 0.53,0.21 1.16,0.75 1.16,2.16 0,5.41 -17.46,33.6 -29.65,47.89 -5.17,6.06 -7.07,7.65 -8.13,7.65 z m -0.34,-3.5 0.49,0.09 c -0.41,2.05 -0.17,2.39 -0.14,2.42 0.43,0.08 2.09,-1.13 7.36,-7.31 11.82,-13.85 29.41,-42.1 29.41,-47.24 0,-0.68 -0.18,-1.1 -0.53,-1.24 -1,-0.42 -3.85,1 -7.77,5.06 -9.69,10.08 -26.37,38.53 -28.33,48.31 z m 5.62,-5.82 a 0.54,0.54 0 0 1 -0.25,-0.06 0.51,0.51 0 0 1 -0.22,-0.6 l 1.06,-3 c 3.16,-8.94 23.16,-39.81 26.67,-39.83 v 0 a 0.66,0.66 0 0 1 0.59,0.35 c 1,1.78 -8.57,17 -13.33,24.08 -4.4,6.54 -9.36,13.45 -11.07,15.39 l -3.07,3.5 A 0.48,0.48 0 0 1 241,155.34 Z M 267.88,113 c -3.67,2.25 -22,29.59 -25.37,39 l -0.2,0.56 1.37,-1.56 c 1.68,-1.91 6.61,-8.77 11,-15.29 l 0.42,0.28 -0.42,-0.28 c 7.71,-11.48 12.64,-20.54 13.2,-22.71 z"
       id="path104"
       transform="translate(-3.48,-1.17)" />
  </g>
  <metadata
     id="metadata131">
    <rdf:RDF>
      <cc:Work
         rdf:about="">
        <dc:title>logo-s-outline</dc:title>
      </cc:Work>
    </rdf:RDF>
  </metadata>
</svg>
