<?xml version="1.0" encoding="utf-8"?>
<!-- Generator: Adobe Illustrator 23.0.3, SVG Export Plug-In . SVG Version: 6.00 Build 0)  -->
<svg version="1.1" id="Layer_1" xmlns="http://www.w3.org/2000/svg" xmlns:xlink="http://www.w3.org/1999/xlink" x="0px" y="0px"
	 viewBox="0 0 310.6 877.4" style="enable-background:new 0 0 310.6 877.4;" xml:space="preserve">
<title>no_face</title>
<g id="g235">
	<path id="path237" d="M1.2,697.4C1.2,598.9,1.6,508.3,2,496.2c1-34.5,4.7-89.3,7.6-115c1.1-9.4,2.2-19.5,2.5-22.5
		c0.6-5.9,1.3-11,4.6-32c1.2-7.4,2.3-14.9,2.5-16.5c0.7-5.7,5.4-29.3,11.9-59.5c2.3-10.7,11-43.6,16-60.5c3.3-11.2,2.7-8.4,7.5-37.5
		c8.8-53.3,10.6-62.1,16.6-78.8C84.4,37,113.3,6.7,140,1.8c20.5-3.7,37.5,2.3,54.3,19.1c8.7,8.8,19.9,24.8,20.9,30.1
		c0.2,1.2,0.7,2.3,1.4,3.2c1.7,2.1,8.8,23.2,11,32.5c4.1,18,7.8,48.6,9.6,79.5c0.9,15.1,3,29.7,4.7,33.1c2,3.9,13.3,34,16.3,43.4
		c5.1,15.7,6.3,19.8,8.7,28c1.4,4.7,3.4,11.6,4.5,15.5c7.9,26.9,17.4,72.3,22.5,108c2.3,15.5,5.5,39.5,6,44.5
		c0.2,2.5,0.9,8.3,1.5,13c0.6,4.7,1.5,14.8,2,22.5c2.1,29,3.8,55.1,3.9,57c0,1.1,0.5,21.6,1.1,45.5c0.6,23.9,1,101.2,1.1,171.8
		l0,128.2H1L1.2,697.4z M161.3,232.1c14.4-2.9,19.5-7.6,28.3-25.9c5.9-12.2,9.9-25.2,11.8-38.6c2-14.4,4.1-43.7,4.7-66
		c0.7-26.8-0.2-32.8-7.1-46.5c-6.1-12.2-12.8-20.2-22-26.3c-9-6-12.4-7.2-23-7.8c-25.1-1.6-46.5,13.8-55.9,40.2
		c-3.3,9.1-4.4,14.4-6.2,28.5c-1.8,14.7-1.8,22.3,0.1,40.2c2.3,22,5.5,37.1,12,56.4c10.9,32.4,19.2,42.6,38,46.8
		C146.4,234,154,233.6,161.3,232.1L161.3,232.1z M143.5,218.5l-2.5-1.1l2.5-0.8c3.4-1,18-1,20.5,0c1.9,0.8,1.8,0.9-0.8,1.9
		C159.7,220,146.9,219.9,143.5,218.5L143.5,218.5z M139,204.6c-8.4-1.9-11.2-3.9-9.9-7.3c1.1-2.8,6.7-3.6,25.3-3.6
		c21.2,0,23.3,0.6,21.5,5.6c-0.8,2.4-2,3.1-7,4.5C162.4,205.7,145.7,206.1,139,204.6L139,204.6z M117.3,173.7
		c-4.2-13-6.6-22.7-7.9-31.8c-1.4-10-1.2-10.3,7.6-9.9l6,0.3l-0.3,14c-0.1,7.7-0.8,18.9-1.5,25l-1.2,11L117.3,173.7z M180.2,160.5
		c-0.4-10.6-0.9-20.6-1.1-22.3c-0.7-4.8,1.8-7.5,6.8-7.5c2.3,0,4.6,0.6,6.6,1.6c2.1,1.5,2.3,2.2,1.9,7.8c-0.5,6.5-3.3,15.2-9.6,30.4
		l-3.9,9.3L180.2,160.5z M108.3,123.4c-4.8-1.9-3-2.7,6.3-2.7s11,0.8,6.4,2.8C117.9,124.9,112,124.9,108.3,123.4L108.3,123.4z
		 M177.5,120.7c-3.8-2.4,9.2-4.1,14.6-1.9c2.6,1,2.7,1.2,0.8,1.9C190.3,121.9,179.3,121.9,177.5,120.7z M105.8,112.2
		c-7.2-3.1-6.5-10.5,1.2-12.6c4.9-1.3,13.8,0.1,16.8,2.8c4.8,4.3-1.4,11.3-10.1,11.3C111,113.6,108.3,113.1,105.8,112.2L105.8,112.2
		z M178,110.3c-7.4-3.2-7.2-8.2,0.4-11.5c9.9-4.2,20.1-2,20.1,4.3S186.3,113.9,178,110.3L178,110.3z M110.7,86.9
		c-4.4-2.2-4.8-4.6-2.4-14.2c3.8-15,9.5-24.3,12.1-20c1,1.7,3,19.7,3,27.5c0,5.3-0.3,6.6-1.9,7.5C118.9,89.1,114.6,88.8,110.7,86.9
		L110.7,86.9z M177.2,82.9c-0.3-0.4-0.8-8.1-1.2-17c-0.7-16-0.7-16.2,1.4-16.2c1.6,0.2,3.1,1,4.2,2.3c4.2,4.4,12,22.1,12,27.2
		c-0.1,1.5-1.1,2.8-2.5,3.3C188.2,83.8,177.9,84.1,177.2,82.9L177.2,82.9z"/>
</g>
</svg>
