<?xml version="1.0" encoding="UTF-8" standalone="no"?>
<!-- Created with Inkscape (http://www.inkscape.org/) -->

<svg
   version="1.1"
   id="svg9"
   width="488"
   height="458"
   viewBox="0 0 488 458"
   xmlns="http://www.w3.org/2000/svg"
   xmlns:svg="http://www.w3.org/2000/svg">
  <defs
     id="defs13" />
  <g
     id="g15">
    <path
       style="fill:#000000;fill-opacity:0.82880437;stroke:#000000;stroke-opacity:0"
       d="m 92.070453,388.69723 c -1.075571,-1.29598 -1.079228,-2.15024 -0.02033,-4.75 0.710098,-1.74341 1.883804,-5.41983 2.608235,-8.16983 1.430052,-5.42859 2.691309,-9.26332 5.597732,-17.01933 1.0345,-2.76063 1.88081,-5.68563 1.88069,-6.5 -1.1e-4,-0.81437 0.86997,-4.18067 1.9335,-7.48067 1.06354,-3.3 2.44801,-8.025 3.0766,-10.5 0.62858,-2.475 1.77538,-6.975 2.54843,-10 0.77304,-3.025 2.10236,-8.425 2.95404,-12 0.85167,-3.575 2.03668,-8.525 2.63335,-11 1.80079,-7.46972 5.8781,-27.71551 8.86118,-44 1.75487,-9.57976 2.03328,-15.88792 0.74681,-16.92094 -0.68954,-0.55369 -5.0787,-4.01105 -9.7537,-7.68303 -13.51759,-10.6174 -34,-31.64152 -34,-34.89923 0,-0.15102 0.7875,-0.21208 1.75,-0.13569 1.004259,0.0797 1.625779,-0.44684 1.458496,-1.23562 -0.205158,-0.96737 0.387254,-1.21094 2,-0.82228 2.832154,0.68253 12.842913,3.17714 18.541504,4.6204 19.26768,4.87988 23.22599,5.58108 25.04574,4.43678 1.88373,-1.18452 2.36316,-7.76515 3.6144,-49.61039 0.71158,-23.79769 0.83037,-23.32081 -5.04583,-20.25616 -1.57537,0.82161 -3.85025,1.49661 -5.05529,1.5 -1.20504,0.003 -2.46154,0.44393 -2.79223,0.97899 -0.33068,0.53505 -2.49473,1.4564 -4.80901,2.04743 -2.31428,0.59104 -5.55778,1.66308 -7.20778,2.38232 -8.61571,3.75559 -13.359932,5.93558 -16.698118,7.67284 -9.628675,5.01097 -11.512168,-0.50467 -6.297631,-18.44205 1.361238,-4.68249 1.7116,-10.18709 1.750634,-27.50453 C 87.435495,84.053717 87.206093,80.907857 85.230484,73.766607 82.314534,63.226296 78.297722,50.576934 77.196395,48.466432 73.117947,40.650791 71.012633,35.196036 71.298104,33.184281 c 0.464223,-3.271443 4.569406,-5.018829 14.279749,-6.078227 4.432523,-0.483588 11.884133,-1.529617 16.559137,-2.324509 4.675,-0.794891 12.55,-1.702197 17.5,-2.016233 4.95,-0.314037 13.05,-1.208438 18,-1.987558 4.95,-0.779121 18.675,-1.921521 30.5,-2.538668 11.825,-0.617147 25.1,-1.503979 29.5,-1.970738 10.55177,-1.119349 70.06205,-1.13018 79,-0.01438 3.85,0.480629 13.525,1.381003 21.5,2.000832 7.975,0.619828 17.425,1.768542 21,2.552696 3.575,0.784155 8.75,1.679467 11.5,1.989583 2.75,0.310117 7.25,1.194468 10,1.965225 2.75,0.770758 7.025,1.850805 9.5,2.400106 7.32059,1.62473 15.27874,4.023384 18.65113,5.621614 1.73312,0.821354 3.66897,1.49337 4.30188,1.49337 0.63292,0 2.81491,0.877692 4.84887,1.950426 2.03397,1.072734 4.37312,2.219204 5.19812,2.547709 0.825,0.328506 3.14711,1.588314 5.16025,2.799574 2.01314,1.21126 5.83814,3.511377 8.5,5.111371 12.29361,7.389453 25.16653,20.81223 32.21487,33.59092 1.644,2.98058 4.88939,11.17371 6.27969,15.85335 l 0.99627,3.35335 2.23891,-2.10335 c 1.2314,-1.15684 2.53828,-2.10335 2.90418,-2.10335 0.36589,0 3.03689,-1.80965 5.93554,-4.02144 9.26094,-7.06646 12.75412,-4.10342 9.43328,8.00162 -0.83286,3.035896 -1.9667,7.544816 -2.51965,10.019816 -2.13945,9.57619 -6.38391,22.42991 -9.29092,28.13615 -1.01883,1.99989 -1.8524,4.24989 -1.85238,5 5e-5,1.42889 -11.39665,24.46775 -15.51483,31.36385 -1.31379,2.2 -2.74792,4.6843 -3.18696,5.52067 -0.43904,0.83637 -2.51054,3.98637 -4.60334,7 -11.76727,16.94487 -16.25286,22.39142 -30.69313,37.26859 -5.22598,5.3841 -9.66558,9.9729 -9.86578,10.19734 -0.20021,0.22444 0.58729,1.61746 1.75,3.0956 1.1627,1.47813 2.114,3.08145 2.114,3.56291 0,0.48147 1.49041,3.00829 3.31202,5.61515 1.82162,2.60686 3.62891,5.41474 4.01621,6.23974 1.17176,2.49601 15.28798,23.68149 16.6579,25 0.28572,0.275 1.85447,2.525 3.4861,5 2.54178,3.85559 9.9119,13.45235 11.51971,15 0.28568,0.275 2.38982,3.0158 4.67585,6.09067 2.28603,3.07488 4.78712,6.22488 5.55799,7 0.77087,0.77513 4.11168,4.55933 7.42403,8.40933 3.31236,3.85 9.00679,10.15 12.65431,14 10.89659,11.5015 9.40423,13.28768 -12.96069,15.51246 -5.58612,0.55568 -12.05519,1.6802 -14.37573,2.49894 -2.32053,0.81873 -5.62508,1.48208 -7.34343,1.47411 -1.71835,-0.008 -6.04927,0.85173 -9.62427,1.91044 -3.575,1.05871 -8.525,2.44666 -11,3.08432 -6.97308,1.79656 -12.87289,3.67071 -20.5,6.51209 -3.85,1.43426 -8.35,3.031 -10,3.54831 -1.65,0.5173 -4.575,1.68074 -6.5,2.58542 -1.925,0.90468 -5.3,2.44926 -7.5,3.43239 -2.2,0.98313 -8.73321,4.07216 -14.51826,6.86452 -5.78504,2.79236 -11.30867,5.07701 -12.27475,5.07701 -2.19038,0 -3.70699,-3.82734 -3.70699,-9.355 0,-2.32364 -0.62012,-6.68185 -1.37805,-9.6849 -0.75793,-3.00306 -1.67649,-8.55649 -2.04126,-12.34096 -0.36476,-3.78447 -1.31964,-8.45193 -2.12195,-10.37212 -0.80231,-1.9202 -1.45222,-4.67381 -1.44425,-6.11914 0.008,-1.44534 -0.92344,-5.77788 -2.0698,-9.62788 -1.14636,-3.85 -3.02374,-10.15 -4.17196,-14 -2.36815,-7.94042 -5.36615,-16.5755 -7.29097,-21 -0.7178,-1.65 -1.80047,-4.54578 -2.40593,-6.43507 -1.88246,-5.87413 -3.44873,-6.92196 -8.85846,-5.92627 -2.59455,0.47754 -6.06737,1.39129 -7.71737,2.03055 -1.79982,0.6973 -12.584,1.39602 -26.95645,1.74654 l -23.95645,0.58425 0.23038,9.5 c 0.1267,5.225 0.65515,16.025 1.17432,24 1.36275,20.93314 1.59231,48.81589 0.41162,49.99658 -0.65219,0.65219 -5.403,0.65114 -13.94628,-0.003 -14.78709,-1.13235 -32.32973,-0.43675 -40.60148,1.60992 -3.10439,0.76811 -7.63483,1.39657 -10.06763,1.39657 -2.43281,0 -7.76785,0.88941 -11.85566,1.97646 -4.0878,1.08706 -8.52565,1.98706 -9.86187,2 -1.33623,0.013 -5.16123,0.87198 -8.5,1.90896 -3.33878,1.03698 -8.0955,2.40451 -10.5705,3.03895 -8.77096,2.24835 -14.54376,3.88688 -18,5.10907 -16.360647,5.78543 -16.1139,5.73918 -18.066537,3.38639 z m 13.566537,-7.41983 c 2.2,-1.06268 5.125,-1.96268 6.5,-2 1.375,-0.0373 4.3,-0.93732 6.5,-2 2.2,-1.06268 5.47833,-1.94741 7.28518,-1.96607 1.80685,-0.0187 4.28185,-0.66611 5.5,-1.43876 1.21815,-0.77266 4.68982,-1.72613 7.71482,-2.11883 3.025,-0.39269 7.075,-1.29719 9,-2.01 1.925,-0.7128 6.2,-1.57633 9.5,-1.91894 3.3,-0.34262 8.64452,-1.30804 11.87671,-2.14538 4.53116,-1.17386 12.1739,-1.53838 33.37947,-1.59202 l 27.50276,-0.0696 -0.65565,-9.62021 c -0.3606,-5.29109 -1.06747,-15.69519 -1.57081,-23.12019 -1.30846,-19.30178 -1.28139,-49.35109 0.0457,-50.67815 0.72945,-0.72945 6.70111,-0.90931 18.46428,-0.55611 13.71132,0.41169 18.82041,0.18982 24.17186,-1.04973 3.73214,-0.86446 9.47382,-1.87416 12.75928,-2.24377 3.28546,-0.36961 6.87309,-1.30207 7.9725,-2.07213 1.09942,-0.77006 2.83343,-1.40011 3.85336,-1.40011 2.50728,0 7.70057,5.34579 7.70057,7.9267 0,1.1443 0.9,3.75975 2,5.81212 1.1,2.05236 2,4.43058 2,5.28493 0,0.85435 0.9,3.31866 2,5.47625 1.1,2.15759 2,4.85261 2,5.98894 0,1.13632 0.60855,2.95368 1.35234,4.03855 0.74379,1.08488 1.65666,3.93225 2.02861,6.32748 0.37194,2.39524 1.33839,5.63539 2.14765,7.20034 0.80927,1.56495 1.4714,4.00396 1.4714,5.42001 0,1.41606 0.9,5.13531 2,8.265 1.1,3.1297 2,7.63291 2,10.00714 0,2.37423 0.71814,5.98982 1.59587,8.03466 0.96273,2.24286 1.81403,8.01743 2.14575,14.5552 0.57979,11.42663 1.54959,13.43289 5.04563,10.43801 1.68118,-1.44019 4.72233,-2.94198 16.71275,-8.25317 3.3,-1.46174 7.19443,-3.30221 8.65429,-4.08994 1.45983,-0.78772 3.39568,-1.43222 4.30185,-1.43222 0.90618,0 3.31175,-0.85073 5.34571,-1.89052 4.19174,-2.14287 8.51202,-3.72395 15.56365,-5.6958 2.67605,-0.74831 5.37605,-1.7804 6,-2.29353 0.62396,-0.51314 3.38447,-1.26613 6.13447,-1.67331 2.75,-0.40718 5.9,-1.2962 7,-1.9756 1.1,-0.6794 4.52413,-1.50984 7.60917,-1.84544 3.08504,-0.33559 7.23309,-1.28868 9.21788,-2.11798 1.98479,-0.8293 5.76364,-1.50782 8.39743,-1.50782 2.6338,0 6.36075,-0.48679 8.28212,-1.08175 1.92137,-0.59497 6.94977,-1.60949 11.17423,-2.2545 l 7.68082,-1.17274 -8.58806,-8.99551 c -4.72343,-4.94752 -11.97557,-13.2705 -16.11586,-18.4955 -4.1403,-5.225 -8.6278,-10.625 -9.97222,-12 -1.34443,-1.375 -3.1574,-3.625 -4.02882,-5 -0.87143,-1.375 -2.99902,-4.3 -4.72797,-6.5 -3.57147,-4.54449 -13.34159,-18.60088 -15.08828,-21.70769 -0.63776,-1.13437 -1.53776,-2.3392 -2,-2.6774 -0.87845,-0.64272 -1.95911,-2.27938 -5.35815,-8.11491 -1.12126,-1.925 -2.9212,-4.85 -3.99985,-6.5 -1.07866,-1.65 -2.50186,-4.125 -3.16266,-5.5 -0.66081,-1.375 -2.10363,-3.52272 -3.20627,-4.7727 -1.34162,-1.52091 -1.97568,-3.59641 -1.91678,-6.2743 0.0811,-3.68923 0.822,-4.72173 9.49119,-13.22729 8.51598,-8.35524 28.81208,-32.54169 28.81208,-34.33476 0,-0.40341 0.74755,-1.5595 1.66122,-2.5691 1.87743,-2.07454 3.60798,-4.90196 5.75425,-9.40146 0.80794,-1.69378 2.16998,-3.66138 3.02675,-4.37244 0.85678,-0.71106 1.55778,-1.85764 1.55778,-2.54795 0,-0.69031 0.64607,-1.7913 1.43572,-2.44665 0.78965,-0.65535 1.71857,-2.47936 2.06428,-4.05335 0.34571,-1.57399 1.24571,-3.37399 2,-4 0.75429,-0.62601 1.65429,-2.42601 2,-4 0.34571,-1.57399 1.27463,-3.398 2.06428,-4.05335 0.78965,-0.65535 1.43869,-2.14894 1.44231,-3.31909 0.004,-1.17016 0.90066,-3.47756 1.99341,-5.12756 1.09275,-1.65 1.99275,-3.9 2,-5 0.007,-1.1 0.90725,-3.35 2,-5 1.09275,-1.65 1.98979,-4.13737 1.99341,-5.52749 0.004,-1.39013 0.63955,-3.43118 1.41318,-4.53568 0.77362,-1.1045 1.73039,-4.24213 2.12614,-6.97251 0.39576,-2.73038 1.14843,-5.50336 1.6726,-6.16219 1.18447,-1.48877 2.72246,-12.302133 1.74974,-12.302133 -0.3906,0 -1.27038,0.675 -1.95507,1.5 -0.68469,0.825 -1.6444,1.5 -2.1327,1.5 -0.4883,0 -3.02894,1.50496 -5.64587,3.344363 -3.02653,2.1273 -5.39986,3.11922 -6.52169,2.7257 -2.35586,-0.82639 -5.68495,-6.008333 -5.69315,-8.861763 -0.0175,-6.0944 -9.97996,-22.45432 -19.05521,-31.291716 -8.16754,-7.953476 -23.45947,-18.916584 -26.38586,-18.916584 -0.71269,0 -2.43997,-0.9 -3.83839,-2 -1.39842,-1.1 -3.42901,-2 -4.51241,-2 -1.08341,0 -2.49096,-0.627927 -3.1279,-1.395393 -0.63694,-0.767466 -2.82954,-1.700756 -4.87245,-2.073977 -2.0429,-0.37322 -4.61437,-1.254258 -5.71437,-1.95786 -1.1,-0.703603 -4.24407,-1.613867 -6.98683,-2.022811 -2.74275,-0.408943 -6.2079,-1.374979 -7.70034,-2.146746 -1.49243,-0.771767 -4.04576,-1.403213 -5.67408,-1.403213 -1.62831,0 -5.81315,-0.894194 -9.29966,-1.987099 -3.4865,-1.092904 -8.58909,-1.998245 -11.33909,-2.011869 -2.75,-0.01362 -7.475,-0.723253 -10.5,-1.576954 -6.67985,-1.885156 -43.03889,-3.855135 -71.5,-3.873961 -26.67163,-0.01764 -79.99402,2.118177 -85,3.404661 -2.2,0.565376 -10.975,1.445429 -19.5,1.955674 -8.525,0.510244 -16.76407,1.413093 -18.30904,2.006329 -1.54498,0.593237 -8.10677,1.4733 -14.58177,1.955695 -6.474997,0.482395 -12.718844,1.383431 -13.875216,2.002303 -1.156372,0.618871 -4.157079,1.125221 -6.668237,1.125221 -4.739928,0 -5.63048,0.871455 -3.065741,3 0.825,0.684689 1.5,2.259689 1.5,3.5 0,1.240311 0.663092,2.805428 1.473538,3.478038 0.810445,0.67261 1.767443,2.865211 2.126661,4.872445 0.359219,2.007234 1.207361,4.324517 1.884761,5.149517 0.6774,0.825 1.698237,3.75 2.268526,6.5 0.570289,2.75 1.513968,6.35 2.097065,8 0.583096,1.65 2.063796,9.62368 3.290444,17.71929 2.030001,13.39757 2.120197,15.642453 1.004462,25.000003 -3.085906,25.88117 -3.851752,30.72189 -5.098066,32.22361 -2.215429,2.66943 -0.648831,2.69027 4.534997,0.0603 2.704687,-1.37214 5.592612,-2.49968 6.417612,-2.5056 0.825,-0.006 2.850004,-0.90485 4.500004,-1.9976 1.65,-1.09275 3.78913,-1.98979 4.75362,-1.99341 0.9645,-0.004 3.43283,-0.90659 5.4852,-2.00659 2.05236,-1.1 4.6506,-2 5.77386,-2 1.12327,0 3.07057,-0.72022 4.32734,-1.6005 3.06557,-2.14721 13.59983,-3.11487 14.6909,-1.34948 1.30524,2.11193 0.47185,42.55056 -1.09123,52.94998 -0.78535,5.225 -1.43055,13.01708 -1.43379,17.31574 -0.003,4.29866 -0.47173,8.68616 -1.04108,9.75 -1.27639,2.38496 -6.19036,2.57363 -11.31058,0.43426 -1.9745,-0.825 -5.51696,-1.50277 -7.87212,-1.50616 -2.35517,-0.003 -5.54859,-0.66673 -7.0965,-1.4741 -1.54791,-0.80736 -5.14791,-1.7563 -8,-2.10876 -2.852095,-0.35245 -6.225564,-1.29246 -7.496602,-2.08891 -10.063981,-6.30622 7.470932,11.93382 24.037512,25.00412 5.34959,4.2206 10.19437,7.67381 10.76618,7.67381 0.5718,0 1.78562,1.56433 2.69737,3.47629 1.43342,3.00589 1.48701,4.12223 0.39608,8.25 -0.69391,2.62554 -1.69202,7.92371 -2.21804,11.77371 -0.52601,3.85 -1.39757,8.8 -1.9368,11 -0.53923,2.2 -1.44271,7.15 -2.00773,11 -0.56503,3.85 -1.64892,8.8 -2.40865,11 -0.75973,2.2 -1.64842,6.33633 -1.97486,9.19185 -0.32645,2.85551 -1.25651,6.77856 -2.06681,8.71788 -0.8103,1.93932 -1.47327,4.87383 -1.47327,6.52113 0,1.64731 -0.9,5.27842 -2,8.06914 -1.1,2.79072 -2.00277,6.29488 -2.00616,7.78702 -0.003,1.49214 -0.681,4.00696 -1.50581,5.58848 -0.82481,1.58153 -1.90914,5.18153 -2.40963,8 -0.50049,2.81848 -1.60313,6.9245 -2.4503,9.1245 -0.84717,2.2 -1.57438,4.9 -1.61601,6 -0.0416,1.1 -0.73639,2.87351 -1.54389,3.94113 -0.80752,1.06762 -1.47809,3.09262 -1.49017,4.5 -0.0121,1.40738 -0.91207,4.52051 -2,6.91807 -3.443757,7.58937 -2.112659,8.82859 5.52197,5.1408 z M 228.73142,214.99474 c -1.83832,-1.36798 -1.8843,-2.89673 -1.30291,-43.31768 0.59554,-41.40479 1.94014,-62.76266 4.09862,-65.10306 1.84601,-2.0016 12.59095,-4.29715 20.06996,-4.28776 3.87194,0.005 14.76707,-0.52176 24.2114,-1.17027 20.41746,-1.402013 43.72628,0.0963 51.20562,3.2915 2.40741,1.02846 5.16481,1.86993 6.12755,1.86993 0.96274,0 2.29618,0.65757 2.96319,1.46127 0.66701,0.8037 2.18461,1.7586 3.37245,2.12199 3.53517,1.0815 15.60373,11.42613 17.40262,14.91674 0.56688,1.1 0.96913,3.125 0.89388,4.5 -0.12539,2.29132 -0.63765,2.55701 -6.13681,3.18293 -3.3,0.37561 -7.96908,1.38811 -10.37573,2.25 -2.40665,0.86189 -6.91902,1.56707 -10.02749,1.56707 -3.46633,0 -6.50048,0.59446 -7.84662,1.53733 -2.20094,1.54161 -5.25016,9.75843 -5.25016,14.1478 0,1.27716 -0.9,4.00132 -2,6.05369 -1.1,2.05236 -2,4.47063 -2,5.37393 0,0.9033 -0.675,2.20256 -1.5,2.88725 -0.825,0.68469 -1.50274,1.75229 -1.50609,2.37244 -0.007,1.25308 -7.1016,11.72145 -10.99948,16.22967 -3.47766,4.02219 -13.47789,12.39789 -14.80255,12.39789 -0.60088,0 -1.45236,0.60235 -1.89219,1.33854 -0.93723,1.56877 -17.31585,9.66146 -19.55361,9.66146 -0.84022,0 -3.48931,0.89012 -5.88688,1.97804 -2.39756,1.08792 -5.61115,1.98792 -7.14132,2 -1.53016,0.0121 -4.31051,0.66056 -6.17854,1.44108 -5.47024,2.28561 -13.71586,2.95696 -15.94491,1.29822 z m 13.33156,-5.9213 c 3.5343,-0.50968 7.67445,-1.5723 9.20034,-2.36137 1.52589,-0.78907 3.75991,-1.43467 4.96448,-1.43467 4.46109,0 23.91107,-9.80623 30.74318,-15.5 9.19014,-7.65891 17.08427,-17.64898 21.73044,-27.5 2.9929,-6.34569 6.46722,-17.94144 6.45006,-21.52749 -0.0238,-4.96933 2.28116,-7.19578 8.22553,-7.94544 2.89299,-0.36484 7.28498,-1.26741 9.75998,-2.0057 2.475,-0.73828 7.35078,-1.60472 10.83507,-1.92541 3.48429,-0.32069 6.7859,-0.8617 7.33691,-1.20225 1.70844,-1.05587 -6.7674,-8.93384 -14.57157,-13.54371 -5.61941,-3.31936 -14.43016,-6.10086 -25.60041,-8.0819 -7.88567,-1.39852 -51.91751,-0.20757 -61.12361,1.65325 -4.05702,0.82004 -9.17639,1.6232 -11.37639,1.78481 l -4,0.29384 -0.60685,19.5 c -0.33376,10.725 -1.13143,32.325 -1.77259,48 -1.24068,30.33182 -1.02012,34.60794 1.72439,33.43192 0.91028,-0.39005 4.54675,-1.1262 8.08104,-1.63588 z"
       id="path950" />
    <path
       style="fill:#000000;fill-opacity:0;stroke:#ef0000;stroke-width:0.392123;stroke-linecap:round;stroke-linejoin:round;stroke-opacity:0"
       d="m 232.7936,210.24288 c -0.20051,-0.25131 -0.49612,-0.88494 -0.6569,-1.40806 -0.45195,-1.47047 -0.27134,-17.41137 0.37961,-33.50479 0.73031,-18.05532 1.66815,-44.15081 2.01969,-56.19756 l 0.26531,-9.09184 2.58907,-0.24733 c 1.42399,-0.13603 5.76527,-0.75533 9.64729,-1.37622 3.88202,-0.62089 9.35214,-1.31167 12.15582,-1.53507 9.82226,-0.78263 27.7587,-1.28786 39.31474,-1.10742 12.59907,0.19674 13.71875,0.33973 23.92436,3.0552 7.52769,2.00295 12.2051,4.08367 17.93042,7.97628 3.91317,2.66053 10.78463,9.09708 10.78388,10.10134 -7.9e-4,0.80173 -0.56195,0.94155 -6.86932,1.71092 -4.29962,0.52446 -13.59824,2.31598 -14.33136,2.76115 -0.12188,0.074 -2.4158,0.50866 -5.0976,0.9659 -7.74119,1.31985 -9.23062,2.51524 -9.82422,7.88468 -0.42519,3.84608 -2.13561,10.51677 -4.05902,15.83029 -3.69642,10.21151 -10.00554,19.81106 -18.73065,28.49936 -6.12929,6.10342 -10.72339,9.26642 -21.27753,14.64939 -6.65201,3.39275 -11.15628,5.16725 -14.9669,5.89634 -1.5746,0.30127 -3.52726,0.83173 -4.33926,1.17879 -2.65835,1.13623 -4.92532,1.72147 -10.49521,2.70945 -3.01935,0.53557 -6.05401,1.13855 -6.74369,1.33995 -0.87883,0.25662 -1.36303,0.22948 -1.61853,-0.0907 z"
       id="path2059" />
    <path
       style="fill:#000000;fill-opacity:0;stroke:#ef0000;stroke-width:0.392123;stroke-linecap:round;stroke-linejoin:round;stroke-opacity:0"
       d="m 232.7936,210.24288 c -0.20051,-0.25131 -0.49612,-0.88494 -0.6569,-1.40806 -0.45195,-1.47047 -0.27134,-17.41137 0.37961,-33.50479 0.73031,-18.05532 1.66815,-44.15081 2.01969,-56.19756 l 0.26531,-9.09184 2.58907,-0.24733 c 1.42399,-0.13603 5.76527,-0.75533 9.64729,-1.37622 3.88202,-0.62089 9.35214,-1.31167 12.15582,-1.53507 9.82226,-0.78263 27.7587,-1.28786 39.31474,-1.10742 12.59907,0.19674 13.71875,0.33973 23.92436,3.0552 7.52769,2.00295 12.2051,4.08367 17.93042,7.97628 3.91317,2.66053 10.78463,9.09708 10.78388,10.10134 -7.9e-4,0.80173 -0.56195,0.94155 -6.86932,1.71092 -4.29962,0.52446 -13.59824,2.31598 -14.33136,2.76115 -0.12188,0.074 -2.4158,0.50866 -5.0976,0.9659 -7.74119,1.31985 -9.23062,2.51524 -9.82422,7.88468 -0.42519,3.84608 -2.13561,10.51677 -4.05902,15.83029 -3.69642,10.21151 -10.00554,19.81106 -18.73065,28.49936 -6.12929,6.10342 -10.72339,9.26642 -21.27753,14.64939 -6.65201,3.39275 -11.15628,5.16725 -14.9669,5.89634 -1.5746,0.30127 -3.52726,0.83173 -4.33926,1.17879 -2.65835,1.13623 -4.92532,1.72147 -10.49521,2.70945 -3.01935,0.53557 -6.05401,1.13855 -6.74369,1.33995 -0.87883,0.25662 -1.36303,0.22948 -1.61853,-0.0907 z"
       id="path2653" />
    <path
       style="fill:#000000;fill-opacity:0;stroke:#ef0000;stroke-width:0.392123;stroke-linecap:round;stroke-linejoin:round;stroke-opacity:0"
       d="m 98.880423,382.64697 c -0.539833,-0.53983 -0.223855,-2.24963 0.954139,-5.16298 1.465598,-3.62464 2.156988,-5.9396 2.484468,-8.31861 0.13501,-0.98079 0.85761,-2.99991 1.60577,-4.48694 0.74817,-1.48702 1.3603,-3.10228 1.3603,-3.58946 0,-0.48718 0.68359,-3.0559 1.51909,-5.70827 0.8355,-2.65237 2.00605,-6.9392 2.60121,-9.52629 0.59517,-2.58709 1.65968,-6.20443 2.36558,-8.03853 0.7059,-1.8341 1.40895,-4.39346 1.56233,-5.68747 0.15337,-1.294 1.04384,-4.75697 1.97881,-7.69548 0.93498,-2.93851 1.87764,-6.7323 2.0948,-8.43065 0.21717,-1.69835 0.92592,-4.76423 1.575,-6.81308 0.64908,-2.04884 1.54212,-5.93086 1.98452,-8.62671 0.4424,-2.69585 1.32561,-6.75432 1.96268,-9.01884 0.63707,-2.26451 1.78608,-7.73463 2.55336,-12.15582 0.76728,-4.42119 1.55884,-8.65612 1.75901,-9.41096 0.20017,-0.75483 1.07614,-5.60736 1.9466,-10.78339 0.87046,-5.17602 1.92312,-10.96651 2.33926,-12.86775 0.41613,-1.90124 0.66083,-4.047 0.54377,-4.76836 -0.35114,-2.16384 -2.57711,-5.77233 -4.07253,-6.60193 -3.46719,-1.92344 -13.12318,-9.45296 -20.66615,-16.11498 -7.900645,-6.97792 -17.003986,-16.38353 -16.421131,-16.96639 0.07713,-0.0771 1.269442,0.38526 2.649571,1.02755 1.571765,0.73147 4.267437,1.47865 7.2148,1.99978 2.58802,0.45759 5.76422,1.23781 7.05822,1.7338 3.65479,1.4009 3.64371,1.39837 7.88707,1.80043 2.4561,0.23272 5.50069,0.85296 7.86349,1.60194 6.823,2.16283 11.09735,1.64409 11.98537,-1.45455 0.18124,-0.6324 0.50263,-4.67892 0.71422,-8.99228 0.21158,-4.31335 0.65206,-10.13638 0.97884,-12.94007 0.32678,-2.80368 0.75661,-6.77561 0.95518,-8.82652 1.24947,-12.90494 1.56619,-47.40965 0.44753,-48.75605 -0.42928,-0.51667 -1.27135,-0.64773 -4.1618,-0.64773 -4.62643,0 -7.21002,0.49956 -10.39508,2.00999 -1.40278,0.66522 -3.60923,1.43847 -4.90324,1.71832 -1.29401,0.27985 -3.74676,1.1456 -5.45057,1.92389 -1.7038,0.77828 -4.16249,1.69094 -5.46374,2.02813 -1.30126,0.33718 -3.6128,1.29168 -5.13676,2.1211 -1.52397,0.82943 -3.564898,1.71679 -4.535403,1.97194 -0.970505,0.25513 -3.656569,1.32784 -5.969029,2.38378 -3.957886,1.8073 -5.010423,2.17196 -5.010423,1.73591 0,-0.10119 0.346813,-0.85112 0.770697,-1.66652 1.1547,-2.22122 1.764612,-5.67817 3.763523,-21.33151 2.615247,-20.4798 2.574172,-22.613387 -0.820817,-42.636135 C 90.608777,74.29029 89.399187,68.467259 88.66498,65.739206 87.930773,63.011154 87.020663,59.563924 86.642512,58.078697 86.264362,56.59347 85.462792,54.455971 84.861246,53.328699 84.2597,52.201428 83.475604,50.152187 83.118811,48.774832 c -0.833954,-3.219372 -1.6002,-5.03571 -2.55162,-6.04845 -0.577898,-0.615145 -1.554349,-3.840939 -1.554349,-5.134938 0,-0.07778 -0.627654,-0.836149 -1.394786,-1.685273 -1.269194,-1.404846 -1.330984,-1.576648 -0.686216,-1.907964 0.389714,-0.200257 2.385287,-0.468932 4.434606,-0.597058 2.04932,-0.128125 4.519697,-0.514811 5.489726,-0.859302 2.083687,-0.739989 7.384,-1.554457 13.919508,-2.13893 7.36594,-0.658738 11.48918,-1.197979 15.09675,-1.974368 3.92638,-0.845 8.51844,-1.342934 19.99829,-2.16849 7.78796,-0.560059 13.5673,-1.169461 19.99829,-2.108715 6.19093,-0.904194 34.19853,-2.1642 63.31766,-2.848536 37.83344,-0.889133 78.39987,0.912777 93.33559,4.145849 1.50967,0.326793 4.86233,0.768087 7.45034,0.980654 4.8774,0.400605 7.60948,0.907997 13.88926,2.579461 2.03172,0.540777 5.18645,1.168685 7.01051,1.39535 1.82405,0.226666 4.39666,0.85783 5.71691,1.402587 1.32024,0.544757 4.75336,1.501711 7.62914,2.126562 2.87579,0.624852 6.14205,1.568178 7.25837,2.09628 1.11631,0.528102 3.55861,1.390778 5.42731,1.917058 1.8687,0.52628 4.23516,1.511616 5.25878,2.189636 1.02362,0.678019 2.24038,1.232762 2.7039,1.232762 0.46352,0 1.8008,0.513424 2.97173,1.140942 3.26113,1.747693 5.02947,2.621629 7.87094,3.889927 4.50579,2.011172 13.41385,8.406509 21.06632,15.124076 10.30521,9.046237 20.77149,24.934092 22.08429,33.524055 0.72695,4.756526 4.01691,9.452853 6.62212,9.452853 1.34457,0 3.51849,-1.02804 6.63683,-3.13852 1.18617,-0.8028 3.21541,-2.004377 4.50941,-2.670175 1.29401,-0.665802 2.79388,-1.68891 3.33305,-2.273578 l 0.98031,-1.06303 0.12021,1.624151 c 0.16704,2.257015 -0.90756,8.161612 -1.88928,10.380952 -0.44939,1.01591 -1.23979,3.88565 -1.75646,6.37719 -0.51666,2.49154 -1.45923,5.62329 -2.09459,6.95946 -0.63536,1.33617 -1.26236,3.31168 -1.39333,4.39002 -0.13739,1.13123 -0.9768,3.45351 -1.9843,5.48972 -0.9604,1.94102 -1.8677,4.23494 -2.01622,5.09761 -0.14852,0.86267 -1.02697,3.06836 -1.95213,4.90154 -0.92515,1.83317 -1.78301,3.8183 -1.90637,4.41139 -0.12335,0.59308 -0.30852,1.49019 -0.41148,1.99357 -0.10296,0.50339 -0.72114,1.58713 -1.37374,2.40831 -0.6526,0.82119 -1.43701,2.33648 -1.74313,3.36731 -0.67061,2.25818 -1.22092,3.34336 -2.4366,4.80483 -0.50527,0.60743 -1.19356,2.04997 -1.52952,3.20564 -0.33597,1.15569 -1.04273,2.68793 -1.57058,3.40501 -0.52785,0.71707 -1.34055,2.09782 -1.80599,3.06832 -0.46545,0.97051 -1.49822,2.55861 -2.29504,3.52911 -0.79682,0.97051 -2.37351,3.52911 -3.50374,5.68579 -1.13024,2.15668 -2.97437,5.15642 -4.09807,6.6661 -1.1237,1.50967 -2.38101,3.40269 -2.79403,4.2067 -2.00625,3.90556 -17.91816,22.60538 -28.6712,33.69464 -8.31101,8.57088 -9.17218,9.84144 -9.14518,13.49258 0.0216,2.91344 0.65487,4.71261 2.42619,6.89246 0.76356,0.93966 2.31385,3.38481 3.4451,5.43365 1.13124,2.04884 2.53618,4.43099 3.12208,5.29366 0.58591,0.86268 2.35456,3.75495 3.93034,6.42729 1.57578,2.67234 3.36357,5.42657 3.97287,6.12053 0.6093,0.69395 3.10427,4.2423 5.54437,7.88521 7.05304,10.52971 17.90233,25.43519 21.06753,28.94397 1.18617,1.31494 5.18783,6.09467 8.89258,10.62163 7.78999,9.51885 12.73537,15.16073 20.06799,22.89441 3.21997,3.39608 5.03234,5.58561 4.70548,5.68467 -0.2924,0.0886 -3.00201,0.53406 -6.02136,0.98988 -3.01935,0.45581 -7.43074,1.27844 -9.80308,1.82807 -2.37235,0.54963 -6.88312,1.2438 -10.02393,1.54258 -3.85735,0.36696 -6.72056,0.87385 -8.82277,1.56195 -1.71172,0.56029 -5.64009,1.45494 -8.72972,1.98812 -3.13793,0.54152 -6.68616,1.41973 -8.03853,1.98959 -1.33156,0.56108 -4.48471,1.43209 -7.007,1.93558 -2.52229,0.50349 -5.44723,1.35186 -6.49987,1.88527 -1.05264,0.53341 -4.36926,1.70436 -7.37027,2.60211 -5.36076,1.60366 -8.63926,2.84608 -14.87435,5.63674 -1.72534,0.77221 -3.57813,1.41037 -4.1173,1.41812 -1.18104,0.017 -2.22816,0.46244 -16.32641,6.94547 -6.06801,2.79035 -11.91468,5.72076 -12.9926,6.51203 -2.41562,1.77323 -3.11709,1.80362 -3.79154,0.16427 -0.69987,-1.70113 -0.92292,-3.33209 -1.40771,-10.29324 -0.49675,-7.13293 -1.27204,-12.19212 -2.32381,-15.16409 -0.43289,-1.2232 -1.05427,-4.48763 -1.38084,-7.25428 -0.61733,-5.2299 -0.81127,-6.13957 -2.39698,-11.24308 -0.52562,-1.69171 -1.22421,-4.74457 -1.55241,-6.78414 -0.3282,-2.03957 -1.04458,-4.71392 -1.59197,-5.943 -0.54737,-1.22909 -1.42593,-4.17571 -1.95233,-6.54805 -0.52641,-2.37235 -1.42373,-5.27039 -1.99405,-6.4401 -0.57032,-1.16971 -1.27674,-3.27071 -1.56983,-4.66891 -0.29308,-1.39819 -1.22199,-4.07258 -2.06423,-5.94309 -0.84225,-1.87051 -1.6522,-4.09266 -1.79988,-4.93811 -0.14769,-0.84546 -1.02404,-3.21352 -1.94744,-5.26236 -0.9234,-2.04885 -1.88836,-4.74425 -2.14436,-5.98978 -0.39085,-1.90166 -0.81642,-2.64371 -2.65541,-4.63003 -3.61408,-3.90364 -4.97605,-4.24446 -9.04328,-2.26305 -1.95753,0.95365 -4.01125,1.47893 -9.04982,2.31469 -3.58472,0.59461 -8.89981,1.56608 -11.81133,2.15883 l -5.29366,1.07773 -18.54152,0.0387 c -15.41228,0.0322 -18.59871,0.13104 -18.88039,0.58599 -0.70344,1.13613 -0.91345,6.19014 -0.88159,21.21552 0.0349,16.48523 0.20257,20.51807 1.89414,45.57177 0.59291,8.78156 0.99885,16.04439 0.90208,16.13963 -0.0968,0.0952 -10.93973,0.28982 -24.09546,0.43241 -26.54494,0.28771 -31.4466,0.53723 -37.91435,1.92998 -2.43923,0.52526 -7.05445,1.33429 -10.25604,1.79784 -3.20159,0.46354 -7.61298,1.35314 -9.80309,1.97686 -2.1901,0.62373 -6.07359,1.49962 -8.62998,1.94642 -2.61492,0.45703 -6.17021,1.40719 -8.12812,2.17225 -1.91407,0.74794 -4.05742,1.36421 -4.76298,1.36948 -1.92898,0.0144 -4.29129,0.64123 -8.25725,2.19096 -1.96781,0.76893 -4.64446,1.56758 -5.94812,1.77476 -1.30365,0.20718 -4.31715,1.16205 -6.69666,2.12193 -4.08991,1.64984 -5.993032,2.0785 -6.587717,1.48381 z M 239.38089,215.39809 c 1.18046,-0.22575 3.65083,-0.90488 5.48972,-1.50918 1.83889,-0.60429 4.73101,-1.29043 6.42695,-1.52474 1.81844,-0.25125 4.6464,-1.05615 6.89288,-1.96188 2.09514,-0.84472 4.50135,-1.6647 5.34713,-1.82219 3.96663,-0.7386 20.16363,-8.74516 20.16363,-9.96735 0,-0.16943 0.77884,-0.67416 1.73076,-1.12162 3.91227,-1.83898 13.44308,-10.42413 17.46766,-15.73448 3.38006,-4.45994 7.05414,-10.06491 8.11146,-12.37439 0.51965,-1.13507 1.21622,-2.28901 1.54795,-2.56431 0.78981,-0.65549 1.55795,-2.21358 1.85001,-3.75256 0.12883,-0.67884 0.95649,-2.83828 1.83924,-4.79875 1.13271,-2.5156 1.76598,-4.63687 2.15208,-7.20886 0.99073,-6.59982 3.53444,-12.27679 6.03335,-13.46504 0.79888,-0.37988 3.6765,-0.84437 7.25429,-1.17096 6.03003,-0.55043 6.44004,-0.62332 11.61594,-2.06485 1.61751,-0.45049 4.70548,-1.08853 6.86216,-1.41787 6.2708,-0.95758 6.41525,-0.99081 7.04561,-1.62117 0.79595,-0.79595 0.79181,-4.42613 -0.007,-6.33848 -1.28904,-3.08513 -12.52605,-12.90439 -17.4195,-15.22175 -1.18058,-0.55908 -2.7278,-1.52688 -3.43827,-2.15068 -0.71046,-0.6238 -1.77377,-1.22748 -2.3629,-1.34151 -0.58913,-0.11404 -3.27684,-0.91493 -5.97269,-1.77976 -8.77086,-2.81371 -14.58292,-3.50176 -31.95805,-3.78335 -9.94376,-0.16115 -16.023,-0.0532 -23.91952,0.42486 -5.82303,0.35251 -14.38112,0.80607 -19.01798,1.00791 -11.31274,0.49242 -18.96435,1.94104 -21.37247,4.0463 -1.31252,1.14744 -1.93205,4.47499 -2.72085,14.61387 -0.93811,12.058 -1.32884,24.10795 -1.82407,56.25343 -0.49136,31.89485 -0.35882,36.2406 1.15141,37.75083 1.4037,1.4037 5.62382,1.63268 11.03129,0.59853 z"
       id="path2692" />
    <path
       style="fill:#000000;fill-opacity:0;stroke:#ef0000;stroke-width:0.392123;stroke-linecap:round;stroke-linejoin:round;stroke-opacity:0"
       d="m 98.880423,382.64697 c -0.539833,-0.53983 -0.223855,-2.24963 0.954139,-5.16298 1.465598,-3.62464 2.156988,-5.9396 2.484468,-8.31861 0.13501,-0.98079 0.85761,-2.99991 1.60577,-4.48694 0.74817,-1.48702 1.3603,-3.10228 1.3603,-3.58946 0,-0.48718 0.68359,-3.0559 1.51909,-5.70827 0.8355,-2.65237 2.00605,-6.9392 2.60121,-9.52629 0.59517,-2.58709 1.65968,-6.20443 2.36558,-8.03853 0.7059,-1.8341 1.40895,-4.39346 1.56233,-5.68747 0.15337,-1.294 1.04384,-4.75697 1.97881,-7.69548 0.93498,-2.93851 1.87764,-6.7323 2.0948,-8.43065 0.21717,-1.69835 0.92592,-4.76423 1.575,-6.81308 0.64908,-2.04884 1.54212,-5.93086 1.98452,-8.62671 0.4424,-2.69585 1.32561,-6.75432 1.96268,-9.01884 0.63707,-2.26451 1.78608,-7.73463 2.55336,-12.15582 0.76728,-4.42119 1.55884,-8.65612 1.75901,-9.41096 0.20017,-0.75483 1.07614,-5.60736 1.9466,-10.78339 0.87046,-5.17602 1.92312,-10.96651 2.33926,-12.86775 0.41613,-1.90124 0.66083,-4.047 0.54377,-4.76836 -0.35114,-2.16384 -2.57711,-5.77233 -4.07253,-6.60193 -3.46719,-1.92344 -13.12318,-9.45296 -20.66615,-16.11498 -7.900645,-6.97792 -17.003986,-16.38353 -16.421131,-16.96639 0.07713,-0.0771 1.269442,0.38526 2.649571,1.02755 1.571765,0.73147 4.267437,1.47865 7.2148,1.99978 2.58802,0.45759 5.76422,1.23781 7.05822,1.7338 3.65479,1.4009 3.64371,1.39837 7.88707,1.80043 2.4561,0.23272 5.50069,0.85296 7.86349,1.60194 6.823,2.16283 11.09735,1.64409 11.98537,-1.45455 0.18124,-0.6324 0.50263,-4.67892 0.71422,-8.99228 0.21158,-4.31335 0.65206,-10.13638 0.97884,-12.94007 0.32678,-2.80368 0.75661,-6.77561 0.95518,-8.82652 1.24947,-12.90494 1.56619,-47.40965 0.44753,-48.75605 -0.42928,-0.51667 -1.27135,-0.64773 -4.1618,-0.64773 -4.62643,0 -7.21002,0.49956 -10.39508,2.00999 -1.40278,0.66522 -3.60923,1.43847 -4.90324,1.71832 -1.29401,0.27985 -3.74676,1.1456 -5.45057,1.92389 -1.7038,0.77828 -4.16249,1.69094 -5.46374,2.02813 -1.30126,0.33718 -3.6128,1.29168 -5.13676,2.1211 -1.52397,0.82943 -3.564898,1.71679 -4.535403,1.97194 -0.970505,0.25513 -3.656569,1.32784 -5.969029,2.38378 -3.957886,1.8073 -5.010423,2.17196 -5.010423,1.73591 0,-0.10119 0.346813,-0.85112 0.770697,-1.66652 1.1547,-2.22122 1.764612,-5.67817 3.763523,-21.33151 2.615247,-20.4798 2.574172,-22.613387 -0.820817,-42.636135 C 90.608777,74.29029 89.399187,68.467259 88.66498,65.739206 87.930773,63.011154 87.020663,59.563924 86.642512,58.078697 86.264362,56.59347 85.462792,54.455971 84.861246,53.328699 84.2597,52.201428 83.475604,50.152187 83.118811,48.774832 c -0.833954,-3.219372 -1.6002,-5.03571 -2.55162,-6.04845 -0.577898,-0.615145 -1.554349,-3.840939 -1.554349,-5.134938 0,-0.07778 -0.627654,-0.836149 -1.394786,-1.685273 -1.269194,-1.404846 -1.330984,-1.576648 -0.686216,-1.907964 0.389714,-0.200257 2.385287,-0.468932 4.434606,-0.597058 2.04932,-0.128125 4.519697,-0.514811 5.489726,-0.859302 2.083687,-0.739989 7.384,-1.554457 13.919508,-2.13893 7.36594,-0.658738 11.48918,-1.197979 15.09675,-1.974368 3.92638,-0.845 8.51844,-1.342934 19.99829,-2.16849 7.78796,-0.560059 13.5673,-1.169461 19.99829,-2.108715 6.19093,-0.904194 34.19853,-2.1642 63.31766,-2.848536 37.83344,-0.889133 78.39987,0.912777 93.33559,4.145849 1.50967,0.326793 4.86233,0.768087 7.45034,0.980654 4.8774,0.400605 7.60948,0.907997 13.88926,2.579461 2.03172,0.540777 5.18645,1.168685 7.01051,1.39535 1.82405,0.226666 4.39666,0.85783 5.71691,1.402587 1.32024,0.544757 4.75336,1.501711 7.62914,2.126562 2.87579,0.624852 6.14205,1.568178 7.25837,2.09628 1.11631,0.528102 3.55861,1.390778 5.42731,1.917058 1.8687,0.52628 4.23516,1.511616 5.25878,2.189636 1.02362,0.678019 2.24038,1.232762 2.7039,1.232762 0.46352,0 1.8008,0.513424 2.97173,1.140942 3.26113,1.747693 5.02947,2.621629 7.87094,3.889927 4.50579,2.011172 13.41385,8.406509 21.06632,15.124076 10.30521,9.046237 20.77149,24.934092 22.08429,33.524055 0.72695,4.756526 4.01691,9.452853 6.62212,9.452853 1.34457,0 3.51849,-1.02804 6.63683,-3.13852 1.18617,-0.8028 3.21541,-2.004377 4.50941,-2.670175 1.29401,-0.665802 2.79388,-1.68891 3.33305,-2.273578 l 0.98031,-1.06303 0.12021,1.624151 c 0.16704,2.257015 -0.90756,8.161612 -1.88928,10.380952 -0.44939,1.01591 -1.23979,3.88565 -1.75646,6.37719 -0.51666,2.49154 -1.45923,5.62329 -2.09459,6.95946 -0.63536,1.33617 -1.26236,3.31168 -1.39333,4.39002 -0.13739,1.13123 -0.9768,3.45351 -1.9843,5.48972 -0.9604,1.94102 -1.8677,4.23494 -2.01622,5.09761 -0.14852,0.86267 -1.02697,3.06836 -1.95213,4.90154 -0.92515,1.83317 -1.78301,3.8183 -1.90637,4.41139 -0.12335,0.59308 -0.30852,1.49019 -0.41148,1.99357 -0.10296,0.50339 -0.72114,1.58713 -1.37374,2.40831 -0.6526,0.82119 -1.43701,2.33648 -1.74313,3.36731 -0.67061,2.25818 -1.22092,3.34336 -2.4366,4.80483 -0.50527,0.60743 -1.19356,2.04997 -1.52952,3.20564 -0.33597,1.15569 -1.04273,2.68793 -1.57058,3.40501 -0.52785,0.71707 -1.34055,2.09782 -1.80599,3.06832 -0.46545,0.97051 -1.49822,2.55861 -2.29504,3.52911 -0.79682,0.97051 -2.37351,3.52911 -3.50374,5.68579 -1.13024,2.15668 -2.97437,5.15642 -4.09807,6.6661 -1.1237,1.50967 -2.38101,3.40269 -2.79403,4.2067 -2.00625,3.90556 -17.91816,22.60538 -28.6712,33.69464 -8.31101,8.57088 -9.17218,9.84144 -9.14518,13.49258 0.0216,2.91344 0.65487,4.71261 2.42619,6.89246 0.76356,0.93966 2.31385,3.38481 3.4451,5.43365 1.13124,2.04884 2.53618,4.43099 3.12208,5.29366 0.58591,0.86268 2.35456,3.75495 3.93034,6.42729 1.57578,2.67234 3.36357,5.42657 3.97287,6.12053 0.6093,0.69395 3.10427,4.2423 5.54437,7.88521 7.05304,10.52971 17.90233,25.43519 21.06753,28.94397 1.18617,1.31494 5.18783,6.09467 8.89258,10.62163 7.78999,9.51885 12.73537,15.16073 20.06799,22.89441 3.21997,3.39608 5.03234,5.58561 4.70548,5.68467 -0.2924,0.0886 -3.00201,0.53406 -6.02136,0.98988 -3.01935,0.45581 -7.43074,1.27844 -9.80308,1.82807 -2.37235,0.54963 -6.88312,1.2438 -10.02393,1.54258 -3.85735,0.36696 -6.72056,0.87385 -8.82277,1.56195 -1.71172,0.56029 -5.64009,1.45494 -8.72972,1.98812 -3.13793,0.54152 -6.68616,1.41973 -8.03853,1.98959 -1.33156,0.56108 -4.48471,1.43209 -7.007,1.93558 -2.52229,0.50349 -5.44723,1.35186 -6.49987,1.88527 -1.05264,0.53341 -4.36926,1.70436 -7.37027,2.60211 -5.36076,1.60366 -8.63926,2.84608 -14.87435,5.63674 -1.72534,0.77221 -3.57813,1.41037 -4.1173,1.41812 -1.18104,0.017 -2.22816,0.46244 -16.32641,6.94547 -6.06801,2.79035 -11.91468,5.72076 -12.9926,6.51203 -2.41562,1.77323 -3.11709,1.80362 -3.79154,0.16427 -0.69987,-1.70113 -0.92292,-3.33209 -1.40771,-10.29324 -0.49675,-7.13293 -1.27204,-12.19212 -2.32381,-15.16409 -0.43289,-1.2232 -1.05427,-4.48763 -1.38084,-7.25428 -0.61733,-5.2299 -0.81127,-6.13957 -2.39698,-11.24308 -0.52562,-1.69171 -1.22421,-4.74457 -1.55241,-6.78414 -0.3282,-2.03957 -1.04458,-4.71392 -1.59197,-5.943 -0.54737,-1.22909 -1.42593,-4.17571 -1.95233,-6.54805 -0.52641,-2.37235 -1.42373,-5.27039 -1.99405,-6.4401 -0.57032,-1.16971 -1.27674,-3.27071 -1.56983,-4.66891 -0.29308,-1.39819 -1.22199,-4.07258 -2.06423,-5.94309 -0.84225,-1.87051 -1.6522,-4.09266 -1.79988,-4.93811 -0.14769,-0.84546 -1.02404,-3.21352 -1.94744,-5.26236 -0.9234,-2.04885 -1.88836,-4.74425 -2.14436,-5.98978 -0.39085,-1.90166 -0.81642,-2.64371 -2.65541,-4.63003 -3.61408,-3.90364 -4.97605,-4.24446 -9.04328,-2.26305 -1.95753,0.95365 -4.01125,1.47893 -9.04982,2.31469 -3.58472,0.59461 -8.89981,1.56608 -11.81133,2.15883 l -5.29366,1.07773 -18.54152,0.0387 c -15.41228,0.0322 -18.59871,0.13104 -18.88039,0.58599 -0.70344,1.13613 -0.91345,6.19014 -0.88159,21.21552 0.0349,16.48523 0.20257,20.51807 1.89414,45.57177 0.59291,8.78156 0.99885,16.04439 0.90208,16.13963 -0.0968,0.0952 -10.93973,0.28982 -24.09546,0.43241 -26.54494,0.28771 -31.4466,0.53723 -37.91435,1.92998 -2.43923,0.52526 -7.05445,1.33429 -10.25604,1.79784 -3.20159,0.46354 -7.61298,1.35314 -9.80309,1.97686 -2.1901,0.62373 -6.07359,1.49962 -8.62998,1.94642 -2.61492,0.45703 -6.17021,1.40719 -8.12812,2.17225 -1.91407,0.74794 -4.05742,1.36421 -4.76298,1.36948 -1.92898,0.0144 -4.29129,0.64123 -8.25725,2.19096 -1.96781,0.76893 -4.64446,1.56758 -5.94812,1.77476 -1.30365,0.20718 -4.31715,1.16205 -6.69666,2.12193 -4.08991,1.64984 -5.993032,2.0785 -6.587717,1.48381 z M 239.38089,215.39809 c 1.18046,-0.22575 3.65083,-0.90488 5.48972,-1.50918 1.83889,-0.60429 4.73101,-1.29043 6.42695,-1.52474 1.81844,-0.25125 4.6464,-1.05615 6.89288,-1.96188 2.09514,-0.84472 4.50135,-1.6647 5.34713,-1.82219 3.96663,-0.7386 20.16363,-8.74516 20.16363,-9.96735 0,-0.16943 0.77884,-0.67416 1.73076,-1.12162 3.91227,-1.83898 13.44308,-10.42413 17.46766,-15.73448 3.38006,-4.45994 7.05414,-10.06491 8.11146,-12.37439 0.51965,-1.13507 1.21622,-2.28901 1.54795,-2.56431 0.78981,-0.65549 1.55795,-2.21358 1.85001,-3.75256 0.12883,-0.67884 0.95649,-2.83828 1.83924,-4.79875 1.13271,-2.5156 1.76598,-4.63687 2.15208,-7.20886 0.99073,-6.59982 3.53444,-12.27679 6.03335,-13.46504 0.79888,-0.37988 3.6765,-0.84437 7.25429,-1.17096 6.03003,-0.55043 6.44004,-0.62332 11.61594,-2.06485 1.61751,-0.45049 4.70548,-1.08853 6.86216,-1.41787 6.2708,-0.95758 6.41525,-0.99081 7.04561,-1.62117 0.79595,-0.79595 0.79181,-4.42613 -0.007,-6.33848 -1.28904,-3.08513 -12.52605,-12.90439 -17.4195,-15.22175 -1.18058,-0.55908 -2.7278,-1.52688 -3.43827,-2.15068 -0.71046,-0.6238 -1.77377,-1.22748 -2.3629,-1.34151 -0.58913,-0.11404 -3.27684,-0.91493 -5.97269,-1.77976 -8.77086,-2.81371 -14.58292,-3.50176 -31.95805,-3.78335 -9.94376,-0.16115 -16.023,-0.0532 -23.91952,0.42486 -5.82303,0.35251 -14.38112,0.80607 -19.01798,1.00791 -11.31274,0.49242 -18.96435,1.94104 -21.37247,4.0463 -1.31252,1.14744 -1.93205,4.47499 -2.72085,14.61387 -0.93811,12.058 -1.32884,24.10795 -1.82407,56.25343 -0.49136,31.89485 -0.35882,36.2406 1.15141,37.75083 1.4037,1.4037 5.62382,1.63268 11.03129,0.59853 z"
       id="path2731" />
    <path
       style="fill:#000000;fill-opacity:0;stroke:#ef0000;stroke-width:0.392123;stroke-linecap:round;stroke-linejoin:round;stroke-opacity:0"
       d="m 98.880423,382.64697 c -0.539833,-0.53983 -0.223855,-2.24963 0.954139,-5.16298 1.465598,-3.62464 2.156988,-5.9396 2.484468,-8.31861 0.13501,-0.98079 0.85761,-2.99991 1.60577,-4.48694 0.74817,-1.48702 1.3603,-3.10228 1.3603,-3.58946 0,-0.48718 0.68359,-3.0559 1.51909,-5.70827 0.8355,-2.65237 2.00605,-6.9392 2.60121,-9.52629 0.59517,-2.58709 1.65968,-6.20443 2.36558,-8.03853 0.7059,-1.8341 1.40895,-4.39346 1.56233,-5.68747 0.15337,-1.294 1.04384,-4.75697 1.97881,-7.69548 0.93498,-2.93851 1.87764,-6.7323 2.0948,-8.43065 0.21717,-1.69835 0.92592,-4.76423 1.575,-6.81308 0.64908,-2.04884 1.54212,-5.93086 1.98452,-8.62671 0.4424,-2.69585 1.32561,-6.75432 1.96268,-9.01884 0.63707,-2.26451 1.78608,-7.73463 2.55336,-12.15582 0.76728,-4.42119 1.55884,-8.65612 1.75901,-9.41096 0.20017,-0.75483 1.07614,-5.60736 1.9466,-10.78339 0.87046,-5.17602 1.92312,-10.96651 2.33926,-12.86775 0.41613,-1.90124 0.66083,-4.047 0.54377,-4.76836 -0.35114,-2.16384 -2.57711,-5.77233 -4.07253,-6.60193 -3.46719,-1.92344 -13.12318,-9.45296 -20.66615,-16.11498 -7.900645,-6.97792 -17.003986,-16.38353 -16.421131,-16.96639 0.07713,-0.0771 1.269442,0.38526 2.649571,1.02755 1.571765,0.73147 4.267437,1.47865 7.2148,1.99978 2.58802,0.45759 5.76422,1.23781 7.05822,1.7338 3.65479,1.4009 3.64371,1.39837 7.88707,1.80043 2.4561,0.23272 5.50069,0.85296 7.86349,1.60194 6.823,2.16283 11.09735,1.64409 11.98537,-1.45455 0.18124,-0.6324 0.50263,-4.67892 0.71422,-8.99228 0.21158,-4.31335 0.65206,-10.13638 0.97884,-12.94007 0.32678,-2.80368 0.75661,-6.77561 0.95518,-8.82652 1.24947,-12.90494 1.56619,-47.40965 0.44753,-48.75605 -0.42928,-0.51667 -1.27135,-0.64773 -4.1618,-0.64773 -4.62643,0 -7.21002,0.49956 -10.39508,2.00999 -1.40278,0.66522 -3.60923,1.43847 -4.90324,1.71832 -1.29401,0.27985 -3.74676,1.1456 -5.45057,1.92389 -1.7038,0.77828 -4.16249,1.69094 -5.46374,2.02813 -1.30126,0.33718 -3.6128,1.29168 -5.13676,2.1211 -1.52397,0.82943 -3.564898,1.71679 -4.535403,1.97194 -0.970505,0.25513 -3.656569,1.32784 -5.969029,2.38378 -3.957886,1.8073 -5.010423,2.17196 -5.010423,1.73591 0,-0.10119 0.346813,-0.85112 0.770697,-1.66652 1.1547,-2.22122 1.764612,-5.67817 3.763523,-21.33151 2.615247,-20.4798 2.574172,-22.613387 -0.820817,-42.636135 C 90.608777,74.29029 89.399187,68.467259 88.66498,65.739206 87.930773,63.011154 87.020663,59.563924 86.642512,58.078697 86.264362,56.59347 85.462792,54.455971 84.861246,53.328699 84.2597,52.201428 83.475604,50.152187 83.118811,48.774832 c -0.833954,-3.219372 -1.6002,-5.03571 -2.55162,-6.04845 -0.577898,-0.615145 -1.554349,-3.840939 -1.554349,-5.134938 0,-0.07778 -0.627654,-0.836149 -1.394786,-1.685273 -1.269194,-1.404846 -1.330984,-1.576648 -0.686216,-1.907964 0.389714,-0.200257 2.385287,-0.468932 4.434606,-0.597058 2.04932,-0.128125 4.519697,-0.514811 5.489726,-0.859302 2.083687,-0.739989 7.384,-1.554457 13.919508,-2.13893 7.36594,-0.658738 11.48918,-1.197979 15.09675,-1.974368 3.92638,-0.845 8.51844,-1.342934 19.99829,-2.16849 7.78796,-0.560059 13.5673,-1.169461 19.99829,-2.108715 6.19093,-0.904194 34.19853,-2.1642 63.31766,-2.848536 37.83344,-0.889133 78.39987,0.912777 93.33559,4.145849 1.50967,0.326793 4.86233,0.768087 7.45034,0.980654 4.8774,0.400605 7.60948,0.907997 13.88926,2.579461 2.03172,0.540777 5.18645,1.168685 7.01051,1.39535 1.82405,0.226666 4.39666,0.85783 5.71691,1.402587 1.32024,0.544757 4.75336,1.501711 7.62914,2.126562 2.87579,0.624852 6.14205,1.568178 7.25837,2.09628 1.11631,0.528102 3.55861,1.390778 5.42731,1.917058 1.8687,0.52628 4.23516,1.511616 5.25878,2.189636 1.02362,0.678019 2.24038,1.232762 2.7039,1.232762 0.46352,0 1.8008,0.513424 2.97173,1.140942 3.26113,1.747693 5.02947,2.621629 7.87094,3.889927 4.50579,2.011172 13.41385,8.406509 21.06632,15.124076 10.30521,9.046237 20.77149,24.934092 22.08429,33.524055 0.72695,4.756526 4.01691,9.452853 6.62212,9.452853 1.34457,0 3.51849,-1.02804 6.63683,-3.13852 1.18617,-0.8028 3.21541,-2.004377 4.50941,-2.670175 1.29401,-0.665802 2.79388,-1.68891 3.33305,-2.273578 l 0.98031,-1.06303 0.12021,1.624151 c 0.16704,2.257015 -0.90756,8.161612 -1.88928,10.380952 -0.44939,1.01591 -1.23979,3.88565 -1.75646,6.37719 -0.51666,2.49154 -1.45923,5.62329 -2.09459,6.95946 -0.63536,1.33617 -1.26236,3.31168 -1.39333,4.39002 -0.13739,1.13123 -0.9768,3.45351 -1.9843,5.48972 -0.9604,1.94102 -1.8677,4.23494 -2.01622,5.09761 -0.14852,0.86267 -1.02697,3.06836 -1.95213,4.90154 -0.92515,1.83317 -1.78301,3.8183 -1.90637,4.41139 -0.12335,0.59308 -0.30852,1.49019 -0.41148,1.99357 -0.10296,0.50339 -0.72114,1.58713 -1.37374,2.40831 -0.6526,0.82119 -1.43701,2.33648 -1.74313,3.36731 -0.67061,2.25818 -1.22092,3.34336 -2.4366,4.80483 -0.50527,0.60743 -1.19356,2.04997 -1.52952,3.20564 -0.33597,1.15569 -1.04273,2.68793 -1.57058,3.40501 -0.52785,0.71707 -1.34055,2.09782 -1.80599,3.06832 -0.46545,0.97051 -1.49822,2.55861 -2.29504,3.52911 -0.79682,0.97051 -2.37351,3.52911 -3.50374,5.68579 -1.13024,2.15668 -2.97437,5.15642 -4.09807,6.6661 -1.1237,1.50967 -2.38101,3.40269 -2.79403,4.2067 -2.00625,3.90556 -17.91816,22.60538 -28.6712,33.69464 -8.31101,8.57088 -9.17218,9.84144 -9.14518,13.49258 0.0216,2.91344 0.65487,4.71261 2.42619,6.89246 0.76356,0.93966 2.31385,3.38481 3.4451,5.43365 1.13124,2.04884 2.53618,4.43099 3.12208,5.29366 0.58591,0.86268 2.35456,3.75495 3.93034,6.42729 1.57578,2.67234 3.36357,5.42657 3.97287,6.12053 0.6093,0.69395 3.10427,4.2423 5.54437,7.88521 7.05304,10.52971 17.90233,25.43519 21.06753,28.94397 1.18617,1.31494 5.18783,6.09467 8.89258,10.62163 7.78999,9.51885 12.73537,15.16073 20.06799,22.89441 3.21997,3.39608 5.03234,5.58561 4.70548,5.68467 -0.2924,0.0886 -3.00201,0.53406 -6.02136,0.98988 -3.01935,0.45581 -7.43074,1.27844 -9.80308,1.82807 -2.37235,0.54963 -6.88312,1.2438 -10.02393,1.54258 -3.85735,0.36696 -6.72056,0.87385 -8.82277,1.56195 -1.71172,0.56029 -5.64009,1.45494 -8.72972,1.98812 -3.13793,0.54152 -6.68616,1.41973 -8.03853,1.98959 -1.33156,0.56108 -4.48471,1.43209 -7.007,1.93558 -2.52229,0.50349 -5.44723,1.35186 -6.49987,1.88527 -1.05264,0.53341 -4.36926,1.70436 -7.37027,2.60211 -5.36076,1.60366 -8.63926,2.84608 -14.87435,5.63674 -1.72534,0.77221 -3.57813,1.41037 -4.1173,1.41812 -1.18104,0.017 -2.22816,0.46244 -16.32641,6.94547 -6.06801,2.79035 -11.91468,5.72076 -12.9926,6.51203 -2.41562,1.77323 -3.11709,1.80362 -3.79154,0.16427 -0.69987,-1.70113 -0.92292,-3.33209 -1.40771,-10.29324 -0.49675,-7.13293 -1.27204,-12.19212 -2.32381,-15.16409 -0.43289,-1.2232 -1.05427,-4.48763 -1.38084,-7.25428 -0.61733,-5.2299 -0.81127,-6.13957 -2.39698,-11.24308 -0.52562,-1.69171 -1.22421,-4.74457 -1.55241,-6.78414 -0.3282,-2.03957 -1.04458,-4.71392 -1.59197,-5.943 -0.54737,-1.22909 -1.42593,-4.17571 -1.95233,-6.54805 -0.52641,-2.37235 -1.42373,-5.27039 -1.99405,-6.4401 -0.57032,-1.16971 -1.27674,-3.27071 -1.56983,-4.66891 -0.29308,-1.39819 -1.22199,-4.07258 -2.06423,-5.94309 -0.84225,-1.87051 -1.6522,-4.09266 -1.79988,-4.93811 -0.14769,-0.84546 -1.02404,-3.21352 -1.94744,-5.26236 -0.9234,-2.04885 -1.88836,-4.74425 -2.14436,-5.98978 -0.39085,-1.90166 -0.81642,-2.64371 -2.65541,-4.63003 -3.61408,-3.90364 -4.97605,-4.24446 -9.04328,-2.26305 -1.95753,0.95365 -4.01125,1.47893 -9.04982,2.31469 -3.58472,0.59461 -8.89981,1.56608 -11.81133,2.15883 l -5.29366,1.07773 -18.54152,0.0387 c -15.41228,0.0322 -18.59871,0.13104 -18.88039,0.58599 -0.70344,1.13613 -0.91345,6.19014 -0.88159,21.21552 0.0349,16.48523 0.20257,20.51807 1.89414,45.57177 0.59291,8.78156 0.99885,16.04439 0.90208,16.13963 -0.0968,0.0952 -10.93973,0.28982 -24.09546,0.43241 -26.54494,0.28771 -31.4466,0.53723 -37.91435,1.92998 -2.43923,0.52526 -7.05445,1.33429 -10.25604,1.79784 -3.20159,0.46354 -7.61298,1.35314 -9.80309,1.97686 -2.1901,0.62373 -6.07359,1.49962 -8.62998,1.94642 -2.61492,0.45703 -6.17021,1.40719 -8.12812,2.17225 -1.91407,0.74794 -4.05742,1.36421 -4.76298,1.36948 -1.92898,0.0144 -4.29129,0.64123 -8.25725,2.19096 -1.96781,0.76893 -4.64446,1.56758 -5.94812,1.77476 -1.30365,0.20718 -4.31715,1.16205 -6.69666,2.12193 -4.08991,1.64984 -5.993032,2.0785 -6.587717,1.48381 z M 239.38089,215.39809 c 1.18046,-0.22575 3.65083,-0.90488 5.48972,-1.50918 1.83889,-0.60429 4.73101,-1.29043 6.42695,-1.52474 1.81844,-0.25125 4.6464,-1.05615 6.89288,-1.96188 2.09514,-0.84472 4.50135,-1.6647 5.34713,-1.82219 3.96663,-0.7386 20.16363,-8.74516 20.16363,-9.96735 0,-0.16943 0.77884,-0.67416 1.73076,-1.12162 3.91227,-1.83898 13.44308,-10.42413 17.46766,-15.73448 3.38006,-4.45994 7.05414,-10.06491 8.11146,-12.37439 0.51965,-1.13507 1.21622,-2.28901 1.54795,-2.56431 0.78981,-0.65549 1.55795,-2.21358 1.85001,-3.75256 0.12883,-0.67884 0.95649,-2.83828 1.83924,-4.79875 1.13271,-2.5156 1.76598,-4.63687 2.15208,-7.20886 0.99073,-6.59982 3.53444,-12.27679 6.03335,-13.46504 0.79888,-0.37988 3.6765,-0.84437 7.25429,-1.17096 6.03003,-0.55043 6.44004,-0.62332 11.61594,-2.06485 1.61751,-0.45049 4.70548,-1.08853 6.86216,-1.41787 6.2708,-0.95758 6.41525,-0.99081 7.04561,-1.62117 0.79595,-0.79595 0.79181,-4.42613 -0.007,-6.33848 -1.28904,-3.08513 -12.52605,-12.90439 -17.4195,-15.22175 -1.18058,-0.55908 -2.7278,-1.52688 -3.43827,-2.15068 -0.71046,-0.6238 -1.77377,-1.22748 -2.3629,-1.34151 -0.58913,-0.11404 -3.27684,-0.91493 -5.97269,-1.77976 -8.77086,-2.81371 -14.58292,-3.50176 -31.95805,-3.78335 -9.94376,-0.16115 -16.023,-0.0532 -23.91952,0.42486 -5.82303,0.35251 -14.38112,0.80607 -19.01798,1.00791 -11.31274,0.49242 -18.96435,1.94104 -21.37247,4.0463 -1.31252,1.14744 -1.93205,4.47499 -2.72085,14.61387 -0.93811,12.058 -1.32884,24.10795 -1.82407,56.25343 -0.49136,31.89485 -0.35882,36.2406 1.15141,37.75083 1.4037,1.4037 5.62382,1.63268 11.03129,0.59853 z"
       id="path2770" />
    <path
       style="fill:#000000;fill-opacity:0.1882353;stroke:none;stroke-width:0.392123;stroke-linecap:round;stroke-linejoin:round;stroke-opacity:0"
       d="m 98.880423,382.64697 c -0.539833,-0.53983 -0.223855,-2.24963 0.954139,-5.16298 1.465598,-3.62464 2.156988,-5.9396 2.484468,-8.31861 0.13501,-0.98079 0.85761,-2.99991 1.60577,-4.48694 0.74817,-1.48702 1.3603,-3.10228 1.3603,-3.58946 0,-0.48718 0.68359,-3.0559 1.51909,-5.70827 0.8355,-2.65237 2.00605,-6.9392 2.60121,-9.52629 0.59517,-2.58709 1.65968,-6.20443 2.36558,-8.03853 0.7059,-1.8341 1.40895,-4.39346 1.56233,-5.68747 0.15337,-1.294 1.04384,-4.75697 1.97881,-7.69548 0.93498,-2.93851 1.87764,-6.7323 2.0948,-8.43065 0.21717,-1.69835 0.92592,-4.76423 1.575,-6.81308 0.64908,-2.04884 1.54212,-5.93086 1.98452,-8.62671 0.4424,-2.69585 1.32561,-6.75432 1.96268,-9.01884 0.63707,-2.26451 1.78608,-7.73463 2.55336,-12.15582 0.76728,-4.42119 1.55884,-8.65612 1.75901,-9.41096 0.20017,-0.75483 1.07614,-5.60736 1.9466,-10.78339 0.87046,-5.17602 1.92312,-10.96651 2.33926,-12.86775 0.41613,-1.90124 0.66083,-4.047 0.54377,-4.76836 -0.35114,-2.16384 -2.57711,-5.77233 -4.07253,-6.60193 -3.46719,-1.92344 -13.12318,-9.45296 -20.66615,-16.11498 -7.900645,-6.97792 -17.003986,-16.38353 -16.421131,-16.96639 0.07713,-0.0771 1.269442,0.38526 2.649571,1.02755 1.571765,0.73147 4.267437,1.47865 7.2148,1.99978 2.58802,0.45759 5.76422,1.23781 7.05822,1.7338 3.65479,1.4009 3.64371,1.39837 7.88707,1.80043 2.4561,0.23272 5.50069,0.85296 7.86349,1.60194 6.823,2.16283 11.09735,1.64409 11.98537,-1.45455 0.18124,-0.6324 0.50263,-4.67892 0.71422,-8.99228 0.21158,-4.31335 0.65206,-10.13638 0.97884,-12.94007 0.32678,-2.80368 0.75661,-6.77561 0.95518,-8.82652 1.24947,-12.90494 1.56619,-47.40965 0.44753,-48.75605 -0.42928,-0.51667 -1.27135,-0.64773 -4.1618,-0.64773 -4.62643,0 -7.21002,0.49956 -10.39508,2.00999 -1.40278,0.66522 -3.60923,1.43847 -4.90324,1.71832 -1.29401,0.27985 -3.74676,1.1456 -5.45057,1.92389 -1.7038,0.77828 -4.16249,1.69094 -5.46374,2.02813 -1.30126,0.33718 -3.6128,1.29168 -5.13676,2.1211 -1.52397,0.82943 -3.564898,1.71679 -4.535403,1.97194 -0.970505,0.25513 -3.656569,1.32784 -5.969029,2.38378 -3.957886,1.8073 -5.010423,2.17196 -5.010423,1.73591 0,-0.10119 0.346813,-0.85112 0.770697,-1.66652 1.1547,-2.22122 1.764612,-5.67817 3.763523,-21.33151 2.615247,-20.4798 2.574172,-22.613387 -0.820817,-42.636135 C 90.608777,74.29029 89.399187,68.467259 88.66498,65.739206 87.930773,63.011154 87.020663,59.563924 86.642512,58.078697 86.264362,56.59347 85.462792,54.455971 84.861246,53.328699 84.2597,52.201428 83.475604,50.152187 83.118811,48.774832 c -0.833954,-3.219372 -1.6002,-5.03571 -2.55162,-6.04845 -0.577898,-0.615145 -1.554349,-3.840939 -1.554349,-5.134938 0,-0.07778 -0.627654,-0.836149 -1.394786,-1.685273 -1.269194,-1.404846 -1.330984,-1.576648 -0.686216,-1.907964 0.389714,-0.200257 2.385287,-0.468932 4.434606,-0.597058 2.04932,-0.128125 4.519697,-0.514811 5.489726,-0.859302 2.083687,-0.739989 7.384,-1.554457 13.919508,-2.13893 7.36594,-0.658738 11.48918,-1.197979 15.09675,-1.974368 3.92638,-0.845 8.51844,-1.342934 19.99829,-2.16849 7.78796,-0.560059 13.5673,-1.169461 19.99829,-2.108715 6.19093,-0.904194 34.19853,-2.1642 63.31766,-2.848536 37.83344,-0.889133 78.39987,0.912777 93.33559,4.145849 1.50967,0.326793 4.86233,0.768087 7.45034,0.980654 4.8774,0.400605 7.60948,0.907997 13.88926,2.579461 2.03172,0.540777 5.18645,1.168685 7.01051,1.39535 1.82405,0.226666 4.39666,0.85783 5.71691,1.402587 1.32024,0.544757 4.75336,1.501711 7.62914,2.126562 2.87579,0.624852 6.14205,1.568178 7.25837,2.09628 1.11631,0.528102 3.55861,1.390778 5.42731,1.917058 1.8687,0.52628 4.23516,1.511616 5.25878,2.189636 1.02362,0.678019 2.24038,1.232762 2.7039,1.232762 0.46352,0 1.8008,0.513424 2.97173,1.140942 3.26113,1.747693 5.02947,2.621629 7.87094,3.889927 4.50579,2.011172 13.41385,8.406509 21.06632,15.124076 10.30521,9.046237 20.77149,24.934092 22.08429,33.524055 0.72695,4.756526 4.01691,9.452853 6.62212,9.452853 1.34457,0 3.51849,-1.02804 6.63683,-3.13852 1.18617,-0.8028 3.21541,-2.004377 4.50941,-2.670175 1.29401,-0.665802 2.79388,-1.68891 3.33305,-2.273578 l 0.98031,-1.06303 0.12021,1.624151 c 0.16704,2.257015 -0.90756,8.161612 -1.88928,10.380952 -0.44939,1.01591 -1.23979,3.88565 -1.75646,6.37719 -0.51666,2.49154 -1.45923,5.62329 -2.09459,6.95946 -0.63536,1.33617 -1.26236,3.31168 -1.39333,4.39002 -0.13739,1.13123 -0.9768,3.45351 -1.9843,5.48972 -0.9604,1.94102 -1.8677,4.23494 -2.01622,5.09761 -0.14852,0.86267 -1.02697,3.06836 -1.95213,4.90154 -0.92515,1.83317 -1.78301,3.8183 -1.90637,4.41139 -0.12335,0.59308 -0.30852,1.49019 -0.41148,1.99357 -0.10296,0.50339 -0.72114,1.58713 -1.37374,2.40831 -0.6526,0.82119 -1.43701,2.33648 -1.74313,3.36731 -0.67061,2.25818 -1.22092,3.34336 -2.4366,4.80483 -0.50527,0.60743 -1.19356,2.04997 -1.52952,3.20564 -0.33597,1.15569 -1.04273,2.68793 -1.57058,3.40501 -0.52785,0.71707 -1.34055,2.09782 -1.80599,3.06832 -0.46545,0.97051 -1.49822,2.55861 -2.29504,3.52911 -0.79682,0.97051 -2.37351,3.52911 -3.50374,5.68579 -1.13024,2.15668 -2.97437,5.15642 -4.09807,6.6661 -1.1237,1.50967 -2.38101,3.40269 -2.79403,4.2067 -2.00625,3.90556 -17.91816,22.60538 -28.6712,33.69464 -8.31101,8.57088 -9.17218,9.84144 -9.14518,13.49258 0.0216,2.91344 0.65487,4.71261 2.42619,6.89246 0.76356,0.93966 2.31385,3.38481 3.4451,5.43365 1.13124,2.04884 2.53618,4.43099 3.12208,5.29366 0.58591,0.86268 2.35456,3.75495 3.93034,6.42729 1.57578,2.67234 3.36357,5.42657 3.97287,6.12053 0.6093,0.69395 3.10427,4.2423 5.54437,7.88521 7.05304,10.52971 17.90233,25.43519 21.06753,28.94397 1.18617,1.31494 5.18783,6.09467 8.89258,10.62163 7.78999,9.51885 12.73537,15.16073 20.06799,22.89441 3.21997,3.39608 5.03234,5.58561 4.70548,5.68467 -0.2924,0.0886 -3.00201,0.53406 -6.02136,0.98988 -3.01935,0.45581 -7.43074,1.27844 -9.80308,1.82807 -2.37235,0.54963 -6.88312,1.2438 -10.02393,1.54258 -3.85735,0.36696 -6.72056,0.87385 -8.82277,1.56195 -1.71172,0.56029 -5.64009,1.45494 -8.72972,1.98812 -3.13793,0.54152 -6.68616,1.41973 -8.03853,1.98959 -1.33156,0.56108 -4.48471,1.43209 -7.007,1.93558 -2.52229,0.50349 -5.44723,1.35186 -6.49987,1.88527 -1.05264,0.53341 -4.36926,1.70436 -7.37027,2.60211 -5.36076,1.60366 -8.63926,2.84608 -14.87435,5.63674 -1.72534,0.77221 -3.57813,1.41037 -4.1173,1.41812 -1.18104,0.017 -2.22816,0.46244 -16.32641,6.94547 -6.06801,2.79035 -11.91468,5.72076 -12.9926,6.51203 -2.41562,1.77323 -3.11709,1.80362 -3.79154,0.16427 -0.69987,-1.70113 -0.92292,-3.33209 -1.40771,-10.29324 -0.49675,-7.13293 -1.27204,-12.19212 -2.32381,-15.16409 -0.43289,-1.2232 -1.05427,-4.48763 -1.38084,-7.25428 -0.61733,-5.2299 -0.81127,-6.13957 -2.39698,-11.24308 -0.52562,-1.69171 -1.22421,-4.74457 -1.55241,-6.78414 -0.3282,-2.03957 -1.04458,-4.71392 -1.59197,-5.943 -0.54737,-1.22909 -1.42593,-4.17571 -1.95233,-6.54805 -0.52641,-2.37235 -1.42373,-5.27039 -1.99405,-6.4401 -0.57032,-1.16971 -1.27674,-3.27071 -1.56983,-4.66891 -0.29308,-1.39819 -1.22199,-4.07258 -2.06423,-5.94309 -0.84225,-1.87051 -1.6522,-4.09266 -1.79988,-4.93811 -0.14769,-0.84546 -1.02404,-3.21352 -1.94744,-5.26236 -0.9234,-2.04885 -1.88836,-4.74425 -2.14436,-5.98978 -0.39085,-1.90166 -0.81642,-2.64371 -2.65541,-4.63003 -3.61408,-3.90364 -4.97605,-4.24446 -9.04328,-2.26305 -1.95753,0.95365 -4.01125,1.47893 -9.04982,2.31469 -3.58472,0.59461 -8.89981,1.56608 -11.81133,2.15883 l -5.29366,1.07773 -18.54152,0.0387 c -15.41228,0.0322 -18.59871,0.13104 -18.88039,0.58599 -0.70344,1.13613 -0.91345,6.19014 -0.88159,21.21552 0.0349,16.48523 0.20257,20.51807 1.89414,45.57177 0.59291,8.78156 0.99885,16.04439 0.90208,16.13963 -0.0968,0.0952 -10.93973,0.28982 -24.09546,0.43241 -26.54494,0.28771 -31.4466,0.53723 -37.91435,1.92998 -2.43923,0.52526 -7.05445,1.33429 -10.25604,1.79784 -3.20159,0.46354 -7.61298,1.35314 -9.80309,1.97686 -2.1901,0.62373 -6.07359,1.49962 -8.62998,1.94642 -2.61492,0.45703 -6.17021,1.40719 -8.12812,2.17225 -1.91407,0.74794 -4.05742,1.36421 -4.76298,1.36948 -1.92898,0.0144 -4.29129,0.64123 -8.25725,2.19096 -1.96781,0.76893 -4.64446,1.56758 -5.94812,1.77476 -1.30365,0.20718 -4.31715,1.16205 -6.69666,2.12193 -4.08991,1.64984 -5.993032,2.0785 -6.587717,1.48381 z M 239.38089,215.39809 c 1.18046,-0.22575 3.65083,-0.90488 5.48972,-1.50918 1.83889,-0.60429 4.73101,-1.29043 6.42695,-1.52474 1.81844,-0.25125 4.6464,-1.05615 6.89288,-1.96188 2.09514,-0.84472 4.50135,-1.6647 5.34713,-1.82219 3.96663,-0.7386 20.16363,-8.74516 20.16363,-9.96735 0,-0.16943 0.77884,-0.67416 1.73076,-1.12162 3.91227,-1.83898 13.44308,-10.42413 17.46766,-15.73448 3.38006,-4.45994 7.05414,-10.06491 8.11146,-12.37439 0.51965,-1.13507 1.21622,-2.28901 1.54795,-2.56431 0.78981,-0.65549 1.55795,-2.21358 1.85001,-3.75256 0.12883,-0.67884 0.95649,-2.83828 1.83924,-4.79875 1.13271,-2.5156 1.76598,-4.63687 2.15208,-7.20886 0.99073,-6.59982 3.53444,-12.27679 6.03335,-13.46504 0.79888,-0.37988 3.6765,-0.84437 7.25429,-1.17096 6.03003,-0.55043 6.44004,-0.62332 11.61594,-2.06485 1.61751,-0.45049 4.70548,-1.08853 6.86216,-1.41787 6.2708,-0.95758 6.41525,-0.99081 7.04561,-1.62117 0.79595,-0.79595 0.79181,-4.42613 -0.007,-6.33848 -1.28904,-3.08513 -12.52605,-12.90439 -17.4195,-15.22175 -1.18058,-0.55908 -2.7278,-1.52688 -3.43827,-2.15068 -0.71046,-0.6238 -1.77377,-1.22748 -2.3629,-1.34151 -0.58913,-0.11404 -3.27684,-0.91493 -5.97269,-1.77976 -8.77086,-2.81371 -14.58292,-3.50176 -31.95805,-3.78335 -9.94376,-0.16115 -16.023,-0.0532 -23.91952,0.42486 -5.82303,0.35251 -14.38112,0.80607 -19.01798,1.00791 -11.31274,0.49242 -18.96435,1.94104 -21.37247,4.0463 -1.31252,1.14744 -1.93205,4.47499 -2.72085,14.61387 -0.93811,12.058 -1.32884,24.10795 -1.82407,56.25343 -0.49136,31.89485 -0.35882,36.2406 1.15141,37.75083 1.4037,1.4037 5.62382,1.63268 11.03129,0.59853 z"
       id="path2809" />
  </g>
</svg>
