<?xml version="1.0" encoding="utf-8"?>
<!-- Generator: Adobe Illustrator 23.0.3, SVG Export Plug-In . SVG Version: 6.00 Build 0)  -->
<svg version="1.1" id="Layer_1" xmlns="http://www.w3.org/2000/svg" xmlns:xlink="http://www.w3.org/1999/xlink" x="0px" y="0px"
	 viewBox="0 0 310.6 877.4" style="enable-background:new 0 0 310.6 877.4;" xml:space="preserve">
<style type="text/css">
	.st0{fill:#FFFFFF;}
</style>
<title>no_face</title>
<g>
	<rect x="120.5" y="74.8" class="st0" width="101" height="130.1"/>
	<rect x="92" y="55" transform="matrix(0.993 -0.1183 0.1183 0.993 -17.2789 17.3281)" class="st0" width="90.7" height="198.4"/>
	<rect x="104" y="45.9" class="st0" width="100.7" height="32"/>
	<rect x="92.2" y="45.9" class="st0" width="17.4" height="17.4"/>
	<rect x="99.1" y="32.2" class="st0" width="100.7" height="17.5"/>
	<rect x="114.3" y="20.9" class="st0" width="70.8" height="25"/>
	<rect x="127.2" y="11.3" class="st0" width="48" height="18.6"/>
	<g id="g235">
		<path id="path237" d="M-0.5,697.4c0.1-98.6,0.4-189.1,0.8-201.2c1-34.5,4.7-89.3,7.6-115c1.1-9.4,2.2-19.5,2.5-22.5
			c0.6-5.9,1.3-11,4.6-32c1.2-7.4,2.3-14.9,2.5-16.5c0.7-5.7,5.4-29.3,11.9-59.5c2.3-10.7,11-43.6,16-60.5
			c3.3-11.2,2.7-8.4,7.5-37.5c8.8-53.3,10.6-62.1,16.6-78.8C82.7,37,111.6,6.7,138.3,1.8c20.5-3.7,37.5,2.3,54.3,19.1
			c8.7,8.8,19.9,24.8,20.9,30.1c0.2,1.2,0.7,2.3,1.4,3.2c1.7,2.1,8.8,23.2,11,32.5c4.1,18,7.8,48.6,9.6,79.5
			c0.9,15.1,3,29.7,4.7,33.1c2,3.9,13.3,34,16.4,43.4c5.1,15.7,6.3,19.8,8.7,28c1.4,4.7,3.4,11.6,4.5,15.5
			c7.9,26.9,17.4,72.3,22.5,108c2.3,15.5,5.5,39.5,6,44.5c0.2,2.5,0.9,8.3,1.5,13s1.5,14.8,2,22.5c2.1,29,3.8,55.1,3.9,57
			c0,1.1,0.5,21.6,1.1,45.5s1,101.2,1.1,171.8l0,128.2H-0.6L-0.5,697.4z M159.7,232.1c14.4-2.9,19.5-7.6,28.3-25.9
			c5.9-12.2,9.9-25.2,11.8-38.6c2-14.4,4.1-43.7,4.7-66c0.7-26.8-0.2-32.8-7.1-46.5c-6.1-12.2-12.8-20.2-22-26.3
			c-9-6-12.4-7.2-23-7.8c-25.1-1.6-46.5,13.8-55.9,40.2c-3.3,9.1-4.4,14.4-6.2,28.5c-1.8,14.7-1.8,22.3,0.1,40.2
			c2.3,22,5.5,37.1,12,56.4c10.9,32.4,19.2,42.6,38,46.8C144.7,234,152.3,233.6,159.7,232.1L159.7,232.1z M141.9,218.5l-2.5-1.1
			l2.5-0.8c3.4-1,18-1,20.5,0c1.9,0.8,1.8,0.9-0.8,1.9C158,220,145.2,219.9,141.9,218.5L141.9,218.5z M137.4,204.6
			c-8.4-1.9-11.2-3.9-9.9-7.3c1.1-2.8,6.7-3.6,25.3-3.6c21.2,0,23.3,0.6,21.5,5.6c-0.8,2.4-2,3.1-7,4.5
			C160.7,205.7,144,206.1,137.4,204.6L137.4,204.6z M115.7,173.7c-4.2-13-6.6-22.7-7.9-31.8c-1.4-10-1.2-10.3,7.6-9.9l6,0.3l-0.3,14
			c-0.1,7.7-0.8,18.9-1.5,25l-1.2,11L115.7,173.7z M178.5,160.5c-0.4-10.6-0.9-20.6-1.1-22.3c-0.7-4.8,1.8-7.5,6.8-7.5
			c2.3,0,4.6,0.6,6.6,1.6c2.1,1.5,2.3,2.2,1.9,7.8c-0.5,6.5-3.3,15.2-9.6,30.4l-3.9,9.3L178.5,160.5z M106.6,123.4
			c-4.8-1.9-3-2.7,6.3-2.7s11,0.8,6.4,2.8C116.2,124.9,110.4,124.9,106.6,123.4L106.6,123.4z M175.9,120.7
			c-3.8-2.4,9.2-4.1,14.6-1.9c2.6,1,2.7,1.2,0.8,1.9C188.6,121.9,177.7,121.9,175.9,120.7z M104.1,112.2c-7.2-3.1-6.5-10.5,1.2-12.6
			c4.9-1.3,13.8,0.1,16.8,2.8c4.8,4.3-1.4,11.3-10.1,11.3C109.3,113.6,106.6,113.1,104.1,112.2L104.1,112.2z M176.3,110.3
			c-7.4-3.2-7.2-8.2,0.4-11.5c9.9-4.2,20.1-2,20.1,4.3S184.6,113.9,176.3,110.3L176.3,110.3z M109.1,86.9c-4.4-2.2-4.8-4.6-2.4-14.2
			c3.8-15,9.5-24.3,12.1-20c1,1.7,3,19.7,3,27.5c0,5.3-0.3,6.6-1.9,7.5C117.2,89.1,112.9,88.8,109.1,86.9L109.1,86.9z M175.5,82.9
			c-0.3-0.4-0.8-8.1-1.2-17c-0.7-16-0.7-16.2,1.4-16.2c1.6,0.2,3.1,1,4.2,2.3c4.2,4.4,12,22.1,12,27.2c-0.1,1.5-1.1,2.8-2.5,3.3
			C186.5,83.8,176.3,84.1,175.5,82.9L175.5,82.9z"/>
	</g>
</g>
</svg>
