<svg xmlns="http://www.w3.org/2000/svg" viewBox="0 0 84.68 133.1"><title>toss</title><g id="Layer_2" data-name="Layer 2"><g id="Layer"><path d="M84.26,86.22a23,23,0,0,0-2.77-.54c-.75-.12-1.2-2.76.08-2.76,1.55,0-.58-3.16-.38-3.88-.19-2.32,3.32,0,3.14-2.28-.06-.67-3.73-2.58-3.48-3.21.44-1.11,4.25-1.77,2-2.66-1-.41-2.74-.57-2.82-1,1.46-.83,4.29-1.5,3.37-2.19a3.71,3.71,0,0,0-3.49-.2c-.76-1.71-3.14-.54-3.52-1.16S80,64.26,77.8,62.88c.85-3.07,5.56-4,2.8-4.82-1.76-.51-3.57,1.57-5.18,2.24-.49-1.78-2.61-3.37-2.83-4-.27-.81,5-4.57,2.07-5.74-1.55,1.47-3.23,3.8-5.38,3.41-.24-1.53,2.53-5-1-4.53-1,.13-3.78,3.5-4.64,3,.14-1.83,4-7.86,2.55-8.37-1.24-.43-2.61,3.53-4.11,4S60.49,50.93,59,51.35c-.76-1.37.52-3.37-.61-3.66-.68-.17-.7-.85-.65-1.74.21-3.83-2.36-1.93-2.67-1.93s-.57-2.44-3-1.1c-.42.24-.36,2.76-.86,3.16s-1.67.18-2.49.28c-.56.06-.09-2.55-1-3.37-1.1-1-1.85,4-2.49,2.77s-1.27-7-3.45-5.34c-1,.78.08,7.13-.9,6.87S38,43.5,37.12,43.46c-2.61-.12-.91,5.14-1.69,5.4-2.31.77-4.3-2-5.71-3-2.51-1.8-2.15,2-2.13,3.32-.81-.9-5-2.76-4.25.6.53,2.53,1.53,2.12.93,4.18-3,0-2,1.85-3.19,2.86s-3.82-2.53-3.72-.26c.05,1,2,3.86,1.81,4.79C18.05,61,13.51,59,12.81,59.9c-1.1,1.42,1.85,3.42,2.37,4-.47.26-1.94,1.42-2.41,1.68,2.15.34,3.74,3.28,2.89,3.67s-2.41-.67-3.06,0c-1.75,1.73,1.11,2.66,1.11,3.44a17.94,17.94,0,0,1-3.33,1.4c-.63,1.46,5.37,3.8,1.71,3.65-4.17-1.87-6.8-4.32-8-7.43-3-7.9,3.22-19.56,9.86-31.9,6.3-11.7,12.82-23.76,12.61-34.68-.11-5.5-3.35-4.42-3.29.2.12,10-6.15,21.65-12.22,32.92C4,49.86-2.58,62.16,1,71.48c1.69,4.38,5.41,7.63,11.36,9.92,1.14.44-4.21,2.34-.64,2.91,1.2.19,8.94-.51,5.21.7a16,16,0,0,0-4.84,3.26c-.93,1.2,2.14,2,3.15,3.09-1.39.69-4.28,2.52-2.84,3.61.9.68,3.13-.3,4.4-.27.68,0-.28,1.36.16,2s2.4.83,2.3.92c-1.11,1-6.2,3.74-5,5,.5.57,2.31.84,3.31.8.18.6-.7,2.72.94,2.44a10.72,10.72,0,0,1,.66,2.66c.16,2.2-7.36,5.7-5.89,7.56s8.72,1.72,9.73,5.4c.26.92.89,8,2.67,7.28,2.24-.88,3.73-7.49,8.84-6.05a11.58,11.58,0,0,1,2.15,1c1.78,1.3-.22,9.31,2.14,9.34s6.84-5.68,10.33-4.14c.88.38,6.76,4.35,7.34,2.52.44-1.39-.92-3.88-1.1-6.31,5,.84,9.73.86,13.3-.71,1.93-.84,3.6-3.67,3-8.36a58.24,58.24,0,0,0-2.35-8.87h2.15c0-.8-.73-2.29,0-3.2,2.77.33,1.3-.88,2.28-1.37.71-.36,2.26,2,3.13.82-.41-1.2-1.24-4.4,0-4.47.67,0,4.48,2.77,5.54,1.53-1-1-4.38-3.13-4.69-4.94-.43-2.6,4.53.13,1-4.11,1.07-.72,3.57.85,4.19,0s-1.71-.82-1.63-3C82,88.13,86,87.18,84.26,86.22ZM66.72,121.79c-2.73,1.47-6.64,1.5-10.94.74a4.63,4.63,0,0,1,1.53-1.73c.6-.42,5.2-2.84,5.07-3.89-.1-.85-1.08-1.33-2.33-1.68-.44-.12.48-.33,1.36-.66-.57-1.09-1-2.65-.42-3.72,1.91,1,3.08,4,5.09,5s.17-2.2-.57-3.19a4.45,4.45,0,0,1-.94-2.15c.7.58,1.63,1.44,2.83,2.45C69,117.27,68.94,120.58,66.72,121.79Z"/><path d="M42.5,63.32c5.64-1.34,9.68-4.67,9-7.45s-5.76-3.94-11.4-2.6-9.68,4.66-9,7.44S36.86,64.65,42.5,63.32Zm-1.62-7.61c2-.58,3.87-.07,4.11,1.13s-1.22,2.64-3.25,3.22-3.87.07-4.11-1.13S38.85,56.29,40.88,55.71Z" style="fill:#fff"/><path d="M36.31,81.06c1.62,4.93,9,6.94,16.39,4.5s12.15-8.42,10.53-13.35-9-6.94-16.4-4.5S34.69,76.13,36.31,81.06Zm18.3-6c.59,1.78-1.11,3.93-3.78,4.81s-5.32.15-5.91-1.62S46,74.3,48.71,73.42,54,73.27,54.61,75Z" style="fill:#fff"/><path d="M38.58,116.42a2.08,2.08,0,0,0,.1.47,74.32,74.32,0,0,0,15.32,5,4.05,4.05,0,0,1,1.35-1.52c.53-.37,4.57-2.5,4.46-3.42-.22-1.88-5.27-1.73-6.73-2.71-2.11-1.4-.14-8.41-2.41-8.34-1.42,0-6.12,4-6.93,3.92C43.85,111.53,38.36,114.14,38.58,116.42Z" style="fill:#f19ac1"/><path d="M41.08,123.63c-.42.44-2.37-.18-3.83-.71-.4-.14.77,1,.87,1.64.4,2.4-.38,6.86,1.27,6.88,2,0,6-5,9.09-3.65.77.34,6,3.83,6.46,2.22.38-1.22-.81-3.41-1-5.55a71.49,71.49,0,0,1-13.25-3.83C41.31,121.86,41.69,123,41.08,123.63Z" style="fill:#f19ac1"/><path d="M27.64,111.75c1.11.43,4.78,2.3,9.42,4.28a1.86,1.86,0,0,1-.11-.47c-.24-2.52,6.44-5.42,4.95-7.13-.93-1.08-5.19-1.69-6.74-2.45-2.93-1.42-1.76-6.57-3.28-7.74-1.19-.91-4.66,5.08-6.78,4.9-1.29-.11-7.73-3.24-7-.66.33,1.25,1.92,4.36,2.06,6.22s-6.48,5-5.19,6.65,7.67,1.51,8.57,4.76c.22.8.77,7,2.35,6.4,2-.78,3.28-6.59,7.77-5.32.62.17,4.82,2,5.47,1.29s.23-1.77-.37-3a126.48,126.48,0,0,1-11.85-5.3C24,112.7,24,110.31,27.64,111.75Z" style="fill:#efe518"/></g></g></svg>