<svg xmlns="http://www.w3.org/2000/svg" viewBox="0 0 74.64 87.75"><title>Asset 20</title><g id="Layer_2" data-name="Layer 2"><g id="Layer"><path d="M74.22,53.65a23,23,0,0,0-2.77-.53c-.75-.12-1.2-2.76.08-2.76,1.55,0-.58-3.16-.38-3.88-.19-2.33,3.32,0,3.14-2.28-.06-.67-3.73-2.58-3.48-3.21.44-1.11,4.25-1.77,2-2.66-1-.42-2.74-.57-2.82-1,1.46-.83,4.29-1.5,3.37-2.19A3.69,3.69,0,0,0,69.9,35c-.76-1.71-3.14-.54-3.52-1.16S70,31.7,67.76,30.32c.85-3.07,5.56-4,2.8-4.83C68.8,25,67,27.07,65.38,27.74c-.49-1.79-2.61-3.37-2.83-4-.27-.81,5-4.57,2.07-5.74-1.55,1.47-3.23,3.8-5.38,3.41-.24-1.53,2.53-5-1-4.53-1,.13-3.78,3.5-4.64,3,.14-1.83,4-7.86,2.55-8.37-1.24-.43-2.61,3.53-4.11,4S50.45,18.37,49,18.79c-.63-1.14.15-2.72-.23-3.38,2.07-1.28,5.17-3.07,3.52-3.91-1.31-.68-5.29-1.16-7.09-2.29S44.9-.1,42.53,0,36,6,32.43,4.67c-.89-.34-7-4-7.46-2.15s2.32,5.58,1.22,8.66c0,.66-3.18,3.11-4.38,4-.81-.66-1.52-1.42-2.13-1.86-2.51-1.8-2.15,2-2.13,3.32-.81-.9-5-2.76-4.25.6.53,2.53,1.53,2.12.93,4.18-3,0-2,1.85-3.19,2.86S7.22,21.74,7.32,24c0,1,2,3.86,1.81,4.8C8,28.45,3.47,26.44,2.77,27.34c-1.1,1.42,1.85,3.42,2.37,4C4.67,31.6,3.2,32.77,2.73,33c2.15.34,3.74,3.28,2.89,3.66s-2.41-.66-3.07,0C.81,38.4,3.67,39.33,3.67,40.11a17.94,17.94,0,0,1-3.33,1.4c-1.39,2.4,2.24,2.68,2.8,3.36a3.47,3.47,0,0,1,.17,3.49c-.6.84-6,2.69-1.62,3.39,1.2.19,8.94-.51,5.21.7a15.78,15.78,0,0,0-4.84,3.26c-.93,1.2,2.14,2,3.15,3.09-1.39.68-4.28,2.52-2.84,3.61.9.68,3.13-.3,4.4-.27.68,0-.29,1.36.16,2s2.4.83,2.3.92c-1.11,1-6.2,3.74-5.05,5,.62.7,3.19,1,3.84.73-1.09,1.16-.73,3.34.74,2.33.59-.41,4.22-1.72,3.42-.67-1.06,1.41-3.14,5.24-1,5.14,1.47-.08,4.87-3.4,4-.76-1,3,2.6-1.64,3.36,0,.86,1.83,3.8-4.62,4.2-3.24.47,1.61-1,4.33-2,5.74a5.46,5.46,0,0,0-.94,3.18c.19,4.11,4.48-2.32,6.3-4.17a19.4,19.4,0,0,0,.77,5.19c.29-.46,2.68-1.86,3-2.32.24,1.77.54,4,1.4,3.89,1.29-.15,2-3.29,3.21-4.83a4.08,4.08,0,0,0,.22,2.18c.71-.34,1.09-1.14,1.8-1.47,2,1.69,1.56,3.7,3,3.21,1.74-.59,2.51,5.29,3.5,3,.83-1.87-.12-4,.56-6.35.61-2,.72,1.14,2.11.68l1.26,3.18a2.5,2.5,0,0,0,1.8-2.41A5.9,5.9,0,0,0,51.37,82c-.57-1.09-1-2.65-.42-3.72,1.91.95,3.08,3.95,5.09,5s.17-2.21-.57-3.19-1.39-2.46-.54-3.36c1,1.14,3.43,4.87,5,4.52.37-.09-2.78-5.92-1.3-6.57h2.71c.05-.8-.73-2.29,0-3.2,2.77.33,1.3-.89,2.28-1.37.71-.36,2.26,2,3.13.82-.41-1.21-1.24-4.4,0-4.47.67,0,4.48,2.77,5.54,1.53-1-1-4.38-3.13-4.69-4.94-.43-2.6,4.53.13,1-4.11,1.07-.72,3.57.85,4.19,0S71.12,58.12,71.2,56C72,55.57,75.92,54.62,74.22,53.65Z"/><path d="M28.55,19.43c2.18,1.29.58,8.39,2.83,8.21,1.43-.12,4.44-3.2,6-4,2.87-1.52,6.34,2.47,8.18,1.92,1.44-.42-1.73-7.2.31-9.28.91-.92,6.35-3.38,4.43-4.37-1.16-.59-4.66-1-6.24-2s-.23-8.19-2.31-8.1S36,7.08,32.81,5.89C32,5.59,26.68,2.37,26.26,4c-.54,2.05,3.38,6.54-.29,9.42-.51.39-4.44,2.73-4.28,3.65C22,18.93,27,18.53,28.55,19.43Z" style="fill:#f19ac1"/><path d="M23.88,38.42c-5.53,0-10,4.95-10,11s4.48,11.06,10,11.06,10-5,10-11.06S29.41,38.42,23.88,38.42ZM26.3,55.49c-2.55,0-4.61-2.52-4.61-5.62s2.06-5.63,4.61-5.63,4.62,2.52,4.62,5.63S28.85,55.49,26.3,55.49Z" style="fill:#fff"/><path d="M50.76,38.42c-5.52,0-10,4.95-10,11s4.48,11.06,10,11.06,10-5,10-11.06S56.29,38.42,50.76,38.42Zm2.73,17.07c-2.55,0-4.62-2.52-4.62-5.62s2.07-5.63,4.62-5.63,4.61,2.52,4.61,5.63S56,55.49,53.49,55.49Z" style="fill:#fff"/></g></g></svg>