<svg xmlns="http://www.w3.org/2000/svg" viewBox="0 0 74.64 80.18"><title>Asset 8</title><g id="Layer_2" data-name="Layer 2"><g id="Layer"><path d="M14.23,13.84c.6-2.06-.4-1.65-.93-4.18-.71-3.36,3.44-1.5,4.25-.6,0-1.3-.38-5.12,2.13-3.32,1.41,1,3.4,3.76,5.71,3,.77-.26-.92-5.53,1.69-5.4.88,0,3,3.6,3.8,3.83s-.12-6.1.9-6.87c2.18-1.64,2.81,4.1,3.45,5.34s1.39-3.8,2.49-2.77c.87.82.4,3.43,1,3.36.82-.09,2,.1,2.49-.27S41.61,3,42,2.79c2.42-1.35,2.54,1.08,3,1.09S47.9,2,47.69,5.81c0,.9,0,1.57.65,1.75,1.13.28-.15,2.29.61,3.66,1.5-.43,1.62-2.86,3.12-3.31s2.87-4.42,4.11-4c1.44.5-2.41,6.54-2.55,8.37.86.49,3.67-2.88,4.64-3,3.5-.45.73,3,1,4.53,2.15.39,3.83-1.94,5.38-3.41,2.89,1.17-2.34,4.93-2.07,5.74.22.66,2.34,2.24,2.83,4,1.61-.68,3.42-2.76,5.18-2.25,2.76.8-2,1.76-2.8,4.83,2.2,1.38-1.69,3-1.38,3.49s2.76-.56,3.52,1.16a3.69,3.69,0,0,1,3.49.2c.92.69-1.91,1.36-3.37,2.19.08.39,1.78.55,2.82,1,2.22.88-1.59,1.55-2,2.66-.25.63,3.42,2.53,3.48,3.21.18,2.32-3.33-.05-3.14,2.28-.2.72,1.93,3.88.38,3.88-1.28,0-.83,2.64-.08,2.75a25.11,25.11,0,0,1,2.77.54c1.7,1-2.23,1.92-3,2.34-.08,2.13,2.25,2.12,1.63,2.95s-3.12-.74-4.19,0c3.53,4.25-1.43,1.52-1,4.12.31,1.8,3.65,3.93,4.69,4.93-1.06,1.25-4.87-1.56-5.54-1.52-1.28.07-.45,3.26,0,4.47-.87,1.18-2.42-1.18-3.13-.82-1,.48.49,1.69-2.28,1.37-.7.91.08,2.4,0,3.2H58.66c-1.48.65,1.67,6.48,1.3,6.56-1.6.36-4-3.37-5-4.51-.85.9-.21,2.37.54,3.36s2.44,4.14.57,3.19-3.18-4-5.09-5c-.6,1.07-.15,2.63.42,3.72a5.9,5.9,0,0,1-2.76.33,2.5,2.5,0,0,1-1.8,2.41L45.55,74c-1.39.46-1.5-2.71-2.11-.68-.68,2.3.27,4.48-.56,6.35-1,2.24-1.76-3.65-3.5-3-1.46.49-1-1.52-3-3.21-.71.33-1.09,1.13-1.8,1.46a4,4,0,0,1-.22-2.17c-1.24,1.54-1.92,4.68-3.21,4.83-.86.1-1.16-2.12-1.4-3.89-.29.46-2.68,1.86-3,2.32A19.4,19.4,0,0,1,26,70.77c-1.82,1.85-6.18,8.28-6.3,4.16-.05-1.79,2.22-5.27,2-6.36-.23-1.41-4.52,4.55-4.36,2.54.24-3-3.31,1.22-2.27-1.81.9-2.65-2.5.68-4,.75-2.09.11,0-3.72,1-5.13.8-1.05-2.83.26-3.42.67-1.47,1-1.83-1.17-.74-2.34-.65.23-3.22,0-3.84-.72-1.15-1.29,3.94-4,5.05-5,.1-.09-1.77-.16-2.3-.93s.52-2-.16-2c-1.27,0-3.5,1-4.4.27-1.44-1.09,1.45-2.92,2.84-3.6-1-1.13-4.08-1.9-3.15-3.09A15.78,15.78,0,0,1,6.9,44.88c3.73-1.21-4-.51-5.21-.7-4.36-.7,1-2.55,1.62-3.39a3.48,3.48,0,0,0-.17-3.5c-.56-.67-4.19-1-2.8-3.35a17.94,17.94,0,0,0,3.33-1.4c0-.78-2.86-1.71-1.12-3.44.66-.64,2.23.4,3.07,0s-.74-3.32-2.89-3.66C3.2,25.2,4.67,24,5.14,23.78c-.52-.59-3.47-2.6-2.37-4,.7-.9,5.24,1.11,6.36,1.46.22-.94-1.76-3.78-1.81-4.8-.1-2.26,2.62,1.18,3.72.27S11.22,13.8,14.23,13.84Z"/><path d="M25.36,51.13c5.52,0,10-5,10-11.05s-4.48-11-10-11-10,4.94-10,11S19.83,51.13,25.36,51.13ZM17.82,40.52a8.59,8.59,0,0,1,15-.15c.51,1,.25,1.37-.15,1.71a1.2,1.2,0,0,1-1.81-.26c-3.44-5.29-9-3.49-11,0a1.36,1.36,0,0,1-1.75.33A1.14,1.14,0,0,1,17.82,40.52Z" style="fill:#fff"/><path d="M24.94,57.28c.4-2.21-2.19-4.52-5.78-5.18s-6.82.6-7.22,2.81,2.18,4.52,5.77,5.17S24.53,59.48,24.94,57.28Z" style="fill:#f19ac1"/><path d="M42.23,40.08c0,6.1,4.48,11.05,10,11.05s10-5,10-11.05-4.48-11-10-11S42.23,34,42.23,40.08Zm17.2.29c.51,1,.25,1.37-.15,1.71a1.2,1.2,0,0,1-1.81-.26c-3.44-5.29-9-3.49-11,0a1.36,1.36,0,0,1-1.75.33,1.14,1.14,0,0,1-.3-1.63A8.59,8.59,0,0,1,59.43,40.37Z" style="fill:#fff"/><path d="M54.55,52.89c-3.59.65-6.18,3-5.77,5.17s3.63,3.46,7.22,2.81,6.18-3,5.77-5.18S58.14,52.23,54.55,52.89Z" style="fill:#f19ac1"/></g></g></svg>